<svg width="48" height="48" viewBox="0 0 48 48" fill="none" xmlns="http://www.w3.org/2000/svg">
<circle cx="24" cy="24" r="24" fill="white"/>
<path d="M34.0109 17.4783H31.4022L29.962 15.3043C29.4185 14.4891 28.4674 14 27.4891 14H21.5109C20.5326 14 19.5815 14.4891 19.038 15.3043L17.5978 17.4783H14.9891C13.3315 17.4783 12 18.8098 12 20.4674V31.0109C12 32.6685 13.3315 34 14.9891 34H34.0109C35.6685 34 37 32.6685 37 31.0109V20.4674C37 18.8098 35.6685 17.4783 34.0109 17.4783ZM24.5 31.5543C20.7772 31.5543 17.7609 28.538 17.7609 24.8152C17.7609 21.0924 20.7772 18.1033 24.5 18.1033C28.2228 18.1033 31.2391 21.1196 31.2391 24.8424C31.2391 28.538 28.2228 31.5543 24.5 31.5543ZM33.6304 21.6902C33.6033 21.6902 33.5761 21.6902 33.5217 21.6902H32.4348C31.9457 21.663 31.5652 21.2554 31.5924 20.7663C31.6196 20.3043 31.9728 19.9511 32.4348 19.9239H33.5217C34.0109 19.8967 34.4185 20.2772 34.4456 20.7663C34.4728 21.2554 34.1196 21.663 33.6304 21.6902Z" fill="#E2D4AF"/>
<path d="M24.5 21.0918C22.4348 21.0918 20.75 22.7766 20.75 24.8418C20.75 26.907 22.4348 28.5646 24.5 28.5646C26.5652 28.5646 28.25 26.8798 28.25 24.8146C28.25 22.7494 26.5652 21.0918 24.5 21.0918Z" fill="#E2D4AF"/>
</svg>
