<svg width="253" height="33" viewBox="0 0 253 33" fill="none" xmlns="http://www.w3.org/2000/svg">
<path d="M4.38317 11.0617H11.5365C12.5885 11.0617 13.4651 10.7695 14.1664 10.1851C14.8677 9.57727 15.2184 8.71232 15.2184 7.59023C15.2184 6.32787 14.9028 5.43955 14.2716 4.92526C13.6404 4.41096 12.7287 4.15382 11.5365 4.15382H4.38317V11.0617ZM0 0.577148H12.1677C14.4119 0.577148 16.2119 1.09144 17.5678 2.12003C18.9236 3.14861 19.6016 4.70318 19.6016 6.78372C19.6016 8.04608 19.286 9.1331 18.6548 10.0448C18.047 10.9331 17.1704 11.6227 16.0249 12.1137V12.1838C17.5678 12.5111 18.7366 13.2474 19.5314 14.3929C20.3262 15.515 20.7236 16.9293 20.7236 18.6358C20.7236 19.6177 20.5483 20.541 20.1977 21.406C19.847 22.2476 19.2977 22.9839 18.5496 23.6151C17.8015 24.2229 16.8431 24.7138 15.6742 25.0879C14.5054 25.4385 13.1145 25.6138 11.5014 25.6138H0V0.577148ZM4.38317 22.0372H12.1326C13.4651 22.0372 14.4937 21.6982 15.2184 21.0203C15.9664 20.319 16.3405 19.3371 16.3405 18.0748C16.3405 16.8358 15.9664 15.889 15.2184 15.2345C14.4937 14.5566 13.4651 14.2176 12.1326 14.2176H4.38317V22.0372Z" fill="#D5475E"/>
<path d="M37.0549 14.954C37.0082 14.3228 36.8679 13.715 36.6341 13.1306C36.4238 12.5461 36.1199 12.0435 35.7224 11.6227C35.3484 11.1786 34.8809 10.8279 34.3198 10.5708C33.7822 10.2903 33.1744 10.15 32.4964 10.15C31.7951 10.15 31.1523 10.2786 30.5678 10.5357C30.0068 10.7695 29.5159 11.1085 29.0951 11.5526C28.6977 11.9734 28.3704 12.476 28.1133 13.0604C27.8795 13.6449 27.7509 14.276 27.7275 14.954H37.0549ZM27.7275 17.5839C27.7275 18.2852 27.821 18.9631 28.0081 19.6177C28.2185 20.2722 28.5224 20.8449 28.9198 21.3359C29.3172 21.8268 29.8198 22.2242 30.4276 22.5281C31.0354 22.8086 31.7601 22.9489 32.6016 22.9489C33.7705 22.9489 34.7056 22.7034 35.4069 22.2125C36.1315 21.6982 36.6692 20.9385 37.0199 19.9332H40.8069C40.5965 20.9151 40.2342 21.7917 39.7199 22.5631C39.2056 23.3346 38.5861 23.9891 37.8614 24.5268C37.1367 25.0411 36.3186 25.4268 35.4069 25.684C34.5185 25.9645 33.5835 26.1048 32.6016 26.1048C31.1756 26.1048 29.9133 25.871 28.8146 25.4034C27.7158 24.9359 26.7808 24.2814 26.0093 23.4398C25.2613 22.5982 24.6885 21.593 24.2911 20.4242C23.9171 19.2553 23.7301 17.9696 23.7301 16.567C23.7301 15.2812 23.9288 14.0656 24.3262 12.9202C24.747 11.7513 25.3314 10.7344 26.0795 9.86948C26.8509 8.98115 27.7743 8.27985 28.8496 7.76556C29.925 7.25126 31.1406 6.99412 32.4964 6.99412C33.9224 6.99412 35.1965 7.29802 36.3186 7.90582C37.464 8.49024 38.4108 9.27337 39.1589 10.2552C39.9069 11.237 40.4446 12.3708 40.7719 13.6565C41.1225 14.9189 41.216 16.228 41.0524 17.5839H27.7275Z" fill="#D5475E"/>
<path d="M47.5851 19.793C47.702 20.9618 48.1461 21.78 48.9176 22.2476C49.689 22.7151 50.6124 22.9489 51.6877 22.9489C52.0618 22.9489 52.4825 22.9255 52.9501 22.8787C53.441 22.8086 53.8969 22.6917 54.3176 22.5281C54.7384 22.3644 55.0774 22.1307 55.3345 21.8268C55.6151 21.4995 55.7436 21.0787 55.7203 20.5644C55.6969 20.0501 55.5099 19.6293 55.1592 19.3021C54.8086 18.9748 54.3527 18.7176 53.7917 18.5306C53.254 18.3202 52.6345 18.1449 51.9332 18.0046C51.2319 17.8644 50.5189 17.7124 49.7942 17.5488C49.0461 17.3852 48.3215 17.1865 47.6201 16.9527C46.9422 16.7189 46.3227 16.4033 45.7617 16.0059C45.224 15.6085 44.7915 15.1059 44.4643 14.4981C44.137 13.8669 43.9733 13.0955 43.9733 12.1838C43.9733 11.202 44.2071 10.3838 44.6747 9.72922C45.1656 9.05128 45.7734 8.51362 46.4981 8.11621C47.2461 7.69542 48.0643 7.40321 48.9526 7.23957C49.8643 7.07593 50.7293 6.99412 51.5475 6.99412C52.4825 6.99412 53.3709 7.09931 54.2124 7.3097C55.0774 7.49672 55.8488 7.81231 56.5268 8.25647C57.2281 8.70063 57.8008 9.28506 58.245 10.0097C58.7125 10.711 59.0047 11.5643 59.1216 12.5695H54.9488C54.7618 11.6111 54.3176 10.9682 53.6163 10.6409C52.9384 10.3136 52.1553 10.15 51.267 10.15C50.9864 10.15 50.6475 10.1734 50.2501 10.2201C49.876 10.2669 49.5137 10.3604 49.163 10.5007C48.8357 10.6175 48.5552 10.8046 48.3215 11.0617C48.0877 11.2955 47.9708 11.6111 47.9708 12.0085C47.9708 12.4994 48.1344 12.8968 48.4617 13.2007C48.8124 13.5046 49.2565 13.7617 49.7942 13.9721C50.3553 14.1591 50.9864 14.3228 51.6877 14.463C52.389 14.6033 53.1137 14.7553 53.8618 14.9189C54.5865 15.0825 55.2995 15.2812 56.0008 15.515C56.7021 15.7488 57.3216 16.0644 57.8592 16.4618C58.4203 16.8592 58.8645 17.3618 59.1917 17.9696C59.5424 18.5774 59.7177 19.3254 59.7177 20.2138C59.7177 21.2891 59.4723 22.2008 58.9813 22.9489C58.4904 23.6969 57.8476 24.3047 57.0527 24.7723C56.2813 25.2398 55.4164 25.5788 54.4579 25.7892C53.4994 25.9996 52.5527 26.1048 51.6176 26.1048C50.4721 26.1048 49.4085 25.9762 48.4267 25.719C47.4682 25.4619 46.6266 25.0762 45.9019 24.5619C45.2006 24.0242 44.6396 23.3697 44.2188 22.5982C43.8214 21.8034 43.611 20.8683 43.5876 19.793H47.5851Z" fill="#D5475E"/>
<path d="M61.4076 7.48503H64.4232V2.04989H68.4206V7.48503H72.0324V10.4656H68.4206V20.1436C68.4206 20.5644 68.4323 20.9268 68.4557 21.2307C68.5024 21.5346 68.5843 21.7917 68.7012 22.0021C68.8414 22.2125 69.0401 22.3761 69.2973 22.493C69.5544 22.5865 69.9051 22.6333 70.3492 22.6333C70.6297 22.6333 70.9103 22.6333 71.1908 22.6333C71.4713 22.6099 71.7518 22.5631 72.0324 22.493V25.5788C71.5882 25.6255 71.1557 25.6723 70.7349 25.719C70.3142 25.7658 69.8817 25.7892 69.4375 25.7892C68.3856 25.7892 67.5323 25.6957 66.8778 25.5086C66.2466 25.2983 65.744 25.006 65.3699 24.632C65.0193 24.2346 64.7738 23.7437 64.6336 23.1593C64.5167 22.5748 64.4465 21.9086 64.4232 21.1605V10.4656H61.4076V7.48503Z" fill="#D5475E"/>
<path d="M81.7347 2.22583L77.6084 25.6142H84.303C91.7339 25.6142 96.0143 22.3782 97.1443 16.2999C97.1615 16.2314 97.6066 13.7488 97.6066 13.6803C97.7607 12.8242 97.8121 11.7455 97.8121 11.0778C97.8121 5.8214 94.6103 2.22583 88.4465 2.22583H81.7347ZM84.44 4.98244H87.5048C92.1277 4.98244 94.5761 7.12266 94.5761 11.3689C94.5761 11.9681 94.5247 13.0125 94.422 13.6461C94.4049 13.6974 93.9939 15.9232 93.9768 15.9746C93.0865 20.5975 89.4567 22.8576 84.2345 22.8576H81.3067L84.44 4.98244Z" fill="#4B5064"/>
<path d="M106.236 25.9052C108.924 25.9052 110.671 24.467 111.321 23.1829H111.527L111.099 25.6142H114.095L115.858 15.7007C116.013 14.8275 116.184 13.8344 116.184 12.9269C116.184 9.63956 113.975 7.311 109.695 7.311C105.705 7.311 103.205 9.31424 102.709 12.0195H105.722C106.116 10.8552 107.298 9.87926 109.455 9.87926C112.263 9.87926 113.187 11.5914 113.187 13.1153C113.187 13.4063 113.153 13.7488 113.119 13.9371L112.948 15.05H108.137C103.531 15.05 101.134 17.1047 100.843 20.1352C100.808 20.4092 100.808 20.666 100.808 20.8714C100.808 24.0561 103.257 25.9052 106.236 25.9052ZM103.942 20.5632C103.942 18.9024 105.209 17.3786 108.034 17.3786H112.468L112.075 19.5531C111.681 21.7618 109.541 23.3712 107.143 23.3712C105.089 23.3712 103.942 22.1556 103.942 20.5632Z" fill="#4B5064"/>
<path d="M124.043 7.65343H121.32L120.875 10.1703H123.58L121.851 19.964C121.697 20.9057 121.594 21.7104 121.594 22.2754C121.594 24.604 123.135 25.7683 126.132 25.7683C127.056 25.7683 128.152 25.6484 128.666 25.5286L129.094 23.0459C128.614 23.1486 127.724 23.2342 126.988 23.2342C125.498 23.2342 124.83 22.6863 124.83 21.4365C124.83 20.9399 124.916 20.392 125.19 18.7826L126.697 10.1703H130.583L131.045 7.65343H127.142L127.929 3.13328H124.847L124.043 7.65343Z" fill="#4B5064"/>
<path d="M136.473 2.14022C136.473 3.35587 137.415 4.2462 138.648 4.2462C139.949 4.2462 140.908 3.35587 140.908 2.1231C140.908 0.890332 139.983 0 138.682 0C137.432 0 136.473 0.890332 136.473 2.14022ZM133.254 25.6142H136.387L139.572 7.60207H136.439L133.254 25.6142Z" fill="#4B5064"/>
<path d="M142.586 25.6142H145.719L147.551 15.2384C148.064 12.3448 149.76 9.89638 152.773 9.89638C155.256 9.89638 156.163 11.6086 156.163 13.5776C156.163 14.348 156.009 15.2384 155.923 15.752L154.177 25.6142H157.31L159.022 15.9404C159.194 14.9816 159.382 13.92 159.382 12.9269C159.382 10.0162 157.738 7.311 153.869 7.311C151.266 7.311 149.486 8.52664 148.51 10.547H148.304L148.835 7.60207H145.77L142.586 25.6142Z" fill="#4B5064"/>
<path d="M171.71 7.32812C168.371 7.32812 165.186 9.34849 164.279 14.0056L163.885 15.9746C163.748 16.6595 163.645 17.7895 163.645 18.423C163.645 22.7377 166.761 25.306 170.117 25.306C172.805 25.306 174.518 23.9705 175.168 22.3782H175.408L174.98 24.8094C174.432 27.977 172.96 29.6378 169.758 29.6378C167.309 29.6378 165.683 28.268 165.649 26.9839C165.631 26.9839 165.631 26.8298 165.631 26.8127H162.601C162.601 26.8127 162.601 27.001 162.601 27.0353C162.601 29.6892 165.221 32.2061 169.587 32.2061C174.364 32.2061 177.086 29.946 177.908 25.3745L181.024 7.61919H177.942L177.326 11.0435H177.103C176.555 9.02317 174.689 7.32812 171.71 7.32812ZM176.504 14.6734C176.504 14.8275 176.504 15.3582 176.35 16.2999L176.059 17.8923C175.545 20.8714 173.627 22.8233 171.213 22.8233C168.491 22.8233 166.761 21.1796 166.761 18.0635C166.761 17.6183 166.881 16.6937 166.967 16.2314L167.241 14.8446C167.789 11.8483 169.518 9.91351 172.069 9.91351C174.637 9.91351 176.504 11.6942 176.504 14.6734Z" fill="#4B5064"/>
<path d="M198.901 22.8573H188.062L189.466 14.9299H199.705L200.168 12.2418H189.946L191.23 4.98219H202L202.479 2.22559H188.525L184.398 25.6139H198.421L198.901 22.8573Z" fill="#4B5064"/>
<path d="M207.787 25.6139H211.245L220.2 7.60182H216.998L210.115 22.3437H209.944L208.009 7.60182H204.79L207.787 25.6139Z" fill="#4B5064"/>
<path d="M228.692 25.905C232.836 25.905 235.507 23.4052 235.918 21.0253H232.853C232.493 22.2067 231.09 23.2682 228.898 23.2682C225.782 23.2682 224.669 21.1109 224.669 18.9022C224.669 18.3029 224.754 17.6694 224.84 17.3612H236.603C236.654 17.19 237.048 14.9471 237.048 14.9128C237.579 11.557 235.866 7.31075 230.405 7.31075C226.295 7.31075 223.162 9.67356 222.426 13.8341L221.964 16.3168C221.844 16.9846 221.69 18.029 221.69 19.0563C221.69 23.5593 224.686 25.905 228.692 25.905ZM234.034 15.0498H225.302L225.542 13.9026C226.124 11.0775 228.179 9.84477 230.302 9.84477C233.247 9.84477 234.582 12.0706 234.086 14.7416C234.086 14.7587 234.034 15.0327 234.034 15.0498Z" fill="#4B5064"/>
<path d="M240.198 25.6139H243.332L245.112 15.4607C245.643 12.5671 247.27 10.153 250.454 10.153C250.917 10.153 251.619 10.2215 251.995 10.3584L252.612 7.46485C252.303 7.41348 251.653 7.31075 251.122 7.31075C248.451 7.31075 246.67 8.93732 246.02 10.6153H245.797L246.345 7.60182H243.383L240.198 25.6139Z" fill="#4B5064"/>
</svg>
