<svg width="856" height="631" viewBox="0 0 856 631" fill="none" xmlns="http://www.w3.org/2000/svg">
<path d="M841.159 364.931L841.16 364.925C843.062 342.44 843.405 320.449 842.416 299.258C838.497 220.505 815.14 150.915 778.197 98.8985C775.463 95.0632 772.654 91.3063 769.772 87.6654C766.996 84.1665 764.225 80.7894 761.345 77.4923L761.343 77.4893C755.309 70.5445 748.974 63.983 742.378 57.9178L742.376 57.916C709.499 27.5793 670.176 8.27214 626.678 3.38847L626.677 3.38842C530.965 -7.38962 467.286 29.752 427.495 69.5707C407.585 89.4953 393.651 110.099 384.695 125.721C380.218 133.531 376.989 140.091 374.88 144.693C373.826 146.994 373.053 148.804 372.544 150.036C372.29 150.652 372.102 151.123 371.978 151.438C371.916 151.596 371.87 151.714 371.84 151.793L371.807 151.88L371.799 151.9L371.798 151.905C371.797 151.905 371.797 151.905 371.177 151.673L371.797 151.905L371.224 153.441L369.745 152.733C357.628 146.937 324.025 138.152 281.476 135.92C238.969 133.69 187.735 138.013 140.327 158.255L140.324 158.256C129.782 162.731 119.47 168.001 109.464 174.179C103.77 177.709 98.1234 181.499 92.6725 185.625L92.6676 185.629C71.865 201.24 52.9518 221.325 37.2917 246.958C-14.1364 331.154 -3.33467 407.605 27.1254 468.449L27.1257 468.45C28.1113 470.421 29.136 472.395 30.1628 474.334L30.1656 474.34C32.6293 479.04 35.2474 483.631 37.9462 488.155C42.2409 495.3 46.7233 502.213 51.3932 508.82L841.159 364.931ZM841.159 364.931C840.97 367.283 840.742 369.637 840.513 372.004L840.513 372.005C839.6 381.403 838.42 390.839 836.936 400.389L836.935 400.397C836.594 402.673 836.214 404.988 835.833 407.316C833.967 418.393 831.76 429.545 829.172 440.773L830.633 441.11L829.172 440.773C827.499 448.036 825.634 455.303 823.654 462.616C820.532 473.922 817.03 485.304 813.147 496.726L813.144 496.734C812.654 498.203 812.126 499.676 811.59 501.167L811.586 501.178C806.753 514.992 801.272 528.848 795.218 542.785C789.963 554.816 784.253 566.884 778.048 578.914L778.045 578.919C775.343 584.208 772.527 589.498 769.597 594.788C766.853 599.742 764.035 604.731 761.142 609.68L761.139 609.685C760.936 610.035 760.723 610.396 760.507 610.762L760.496 610.781C760.409 610.928 760.322 611.076 760.235 611.224L743.359 611.188L158.555 609.929H158.552H153.359C153.177 609.806 152.928 609.638 152.617 609.424C151.882 608.92 150.795 608.164 149.395 607.161C149.028 606.895 148.639 606.615 148.231 606.321C146.922 605.38 145.409 604.291 143.735 603.021C143.45 602.804 143.161 602.587 142.87 602.367C142.168 601.838 141.448 601.295 140.702 600.709L140.696 600.703L140.689 600.698C134.498 595.951 126.446 589.494 117.368 581.519C117.103 581.258 116.836 581.035 116.604 580.836C114.668 579.128 112.693 577.343 110.635 575.476L110.625 575.467L110.615 575.458C110.485 575.344 110.351 575.219 110.195 575.072C110.114 574.996 110.025 574.913 109.934 574.829C109.869 574.769 109.802 574.708 109.734 574.649C109.635 574.552 109.542 574.471 109.479 574.415L109.47 574.408C109.438 574.38 109.413 574.358 109.392 574.339C109.359 574.31 109.336 574.288 109.314 574.266L109.289 574.241L109.263 574.217C109.068 574.04 108.88 573.861 108.677 573.668L108.671 573.662C108.48 573.481 108.276 573.286 108.061 573.09C108.042 573.072 108.025 573.057 108.01 573.043C107.988 573.023 107.967 573.005 107.953 572.992L107.919 572.942L107.797 572.826C107.425 572.474 107.055 572.133 106.694 571.8C106.33 571.465 105.975 571.139 105.621 570.804L105.62 570.802C101.476 566.887 97.2167 562.703 92.8412 558.252C91.3519 556.724 89.8699 555.204 88.389 553.647L88.3764 553.634L88.3635 553.621L88.2866 553.544L88.2377 553.496C88.2334 553.492 88.2291 553.487 88.2248 553.483C85.4156 550.521 82.6057 547.484 79.7572 544.331C79.7555 544.329 79.7539 544.328 79.7522 544.326L78.9054 543.366L78.0508 542.397C78.0501 542.397 78.0493 542.396 78.0486 542.395C77.9186 542.246 77.7975 542.107 77.6739 541.964C77.5501 541.821 77.4238 541.675 77.2876 541.52L77.2831 541.515C74.13 537.944 71.0126 534.256 67.8925 530.451L67.889 530.447C67.5277 530.01 67.1758 529.581 66.8226 529.152C66.472 528.725 66.1201 528.297 65.7586 527.86C62.8328 524.212 59.9463 520.49 57.0987 516.655L57.0887 516.641L57.0784 516.628C56.9638 516.481 56.8551 516.331 56.7287 516.156C56.607 515.987 56.4677 515.794 56.3151 515.598L56.2581 515.525L56.2296 515.496C55.8544 514.995 55.4784 514.485 55.0984 513.969L55.0914 513.959C54.6974 513.425 54.2991 512.884 53.9001 512.352C53.8963 512.347 53.8925 512.342 53.8887 512.337L52.6526 510.594L51.3949 508.822L841.159 364.931Z" stroke="#FBFBFF" stroke-width="3"/>
<path d="M852.159 381.931L852.16 381.925C854.062 359.44 854.405 337.449 853.416 316.258C849.497 237.505 826.14 167.915 789.197 115.899C786.463 112.063 783.654 108.306 780.772 104.665C777.996 101.167 775.225 97.7894 772.345 94.4923L772.343 94.4893C766.309 87.5445 759.974 80.983 753.378 74.9178L753.376 74.916C720.499 44.5793 681.176 25.2721 637.678 20.3885L637.677 20.3884C541.965 9.61038 478.286 46.752 438.495 86.5707C418.585 106.495 404.651 127.099 395.695 142.721C391.218 150.531 387.989 157.091 385.88 161.693C384.826 163.994 384.053 165.804 383.544 167.036C383.29 167.652 383.102 168.123 382.978 168.438C382.916 168.596 382.87 168.714 382.84 168.793L382.807 168.88L382.799 168.9L382.798 168.905C382.797 168.905 382.797 168.905 382.177 168.673L382.797 168.905L382.224 170.441L380.745 169.733C368.628 163.937 335.025 155.152 292.476 152.92C249.969 150.69 198.735 155.013 151.327 175.255L151.324 175.256C140.782 179.731 130.47 185.001 120.464 191.179C114.77 194.709 109.123 198.499 103.673 202.625L103.668 202.629C82.865 218.24 63.9518 238.325 48.2917 263.958C-3.13641 348.154 7.66533 424.605 38.1254 485.449L38.1257 485.45C39.1113 487.421 40.136 489.395 41.1628 491.334L41.1656 491.34C43.6293 496.04 46.2474 500.631 48.9462 505.155C53.2409 512.3 57.7233 519.213 62.3932 525.82L852.159 381.931ZM852.159 381.931C851.97 384.283 851.742 386.637 851.513 389.004L851.513 389.005C850.6 398.403 849.42 407.839 847.936 417.389L847.935 417.397C847.594 419.673 847.214 421.988 846.833 424.316C844.967 435.393 842.76 446.545 840.172 457.773L841.633 458.11L840.172 457.773C838.499 465.036 836.634 472.303 834.654 479.616C831.532 490.922 828.03 502.304 824.147 513.726L824.144 513.734C823.654 515.203 823.126 516.676 822.59 518.167L822.586 518.178C817.753 531.992 812.272 545.848 806.218 559.785C800.963 571.816 795.253 583.884 789.048 595.914L789.045 595.919C786.343 601.208 783.527 606.498 780.597 611.788C777.853 616.742 775.035 621.731 772.142 626.68L772.139 626.685C771.936 627.035 771.723 627.396 771.507 627.762L771.496 627.781C771.409 627.928 771.322 628.076 771.235 628.224L754.359 628.188L169.555 626.929H169.552H164.359C164.177 626.806 163.928 626.638 163.617 626.424C162.882 625.92 161.795 625.164 160.395 624.161C160.028 623.895 159.639 623.615 159.231 623.321C157.922 622.38 156.409 621.291 154.735 620.021C154.45 619.804 154.161 619.587 153.87 619.367C153.168 618.838 152.448 618.295 151.702 617.709L151.696 617.703L151.689 617.698C145.498 612.951 137.446 606.494 128.368 598.519C128.103 598.258 127.836 598.035 127.604 597.836C125.668 596.128 123.693 594.343 121.635 592.476L121.625 592.467L121.615 592.458C121.485 592.344 121.351 592.219 121.195 592.072C121.114 591.996 121.025 591.913 120.934 591.829C120.869 591.769 120.802 591.708 120.734 591.649C120.635 591.552 120.542 591.471 120.479 591.415L120.47 591.408C120.438 591.38 120.413 591.358 120.392 591.339C120.359 591.31 120.336 591.288 120.314 591.266L120.289 591.241L120.263 591.217C120.068 591.04 119.88 590.861 119.677 590.668L119.671 590.662C119.48 590.481 119.276 590.286 119.061 590.09C119.042 590.072 119.025 590.057 119.01 590.043C118.988 590.023 118.967 590.005 118.953 589.992L118.919 589.942L118.797 589.826C118.425 589.474 118.055 589.133 117.694 588.8C117.33 588.465 116.975 588.139 116.621 587.804L116.62 587.802C112.476 583.887 108.217 579.703 103.841 575.252C102.352 573.724 100.87 572.204 99.389 570.647L99.3764 570.634L99.3635 570.621L99.2866 570.544L99.2377 570.496C99.2334 570.492 99.2291 570.487 99.2248 570.483C96.4156 567.521 93.6057 564.484 90.7572 561.331C90.7555 561.329 90.7539 561.328 90.7522 561.326L89.9054 560.366L89.0508 559.397C89.0501 559.397 89.0493 559.396 89.0486 559.395C88.9186 559.246 88.7975 559.107 88.6739 558.964C88.5501 558.821 88.4238 558.675 88.2876 558.52L88.2831 558.515C85.13 554.944 82.0126 551.256 78.8925 547.451L78.889 547.447C78.5277 547.01 78.1758 546.581 77.8226 546.152C77.472 545.725 77.1201 545.297 76.7586 544.86C73.8328 541.212 70.9463 537.49 68.0987 533.655L68.0887 533.641L68.0784 533.628C67.9638 533.481 67.8551 533.331 67.7287 533.156C67.607 532.987 67.4677 532.794 67.3151 532.598L67.2581 532.525L67.2296 532.496C66.8544 531.995 66.4784 531.485 66.0984 530.969L66.0914 530.959C65.6974 530.425 65.2991 529.884 64.9001 529.352C64.8963 529.347 64.8925 529.342 64.8887 529.337L63.6526 527.594L62.3949 525.822L852.159 381.931Z" fill="#FAF8FF" stroke="#EBEDFB" stroke-width="3"/>
<path d="M781.871 103.581V147.086L339.642 212.306L772.139 91.9414C775.459 95.6813 778.741 99.5739 781.871 103.581Z" fill="#B9C2FF"/>
<path d="M502.787 587.214H544.499V629.117L163.865 628.315C163.865 628.315 158.866 625.033 150.699 618.775C139.289 610.036 121.658 595.534 102.729 576.224V291.646C102.767 291.608 102.843 291.531 102.882 291.455H104.484V364.651H142.838V246.843C143.334 246.385 143.792 245.889 144.288 245.431H153.6V245.355H207.791V245.431H207.829V263.1H207.791V275.236H207.829V292.905H207.791V305.079H207.829V322.748H207.791V322.825L213.553 322.748V230.357H274.308V242.073H274.346V259.742H274.308V275.236H274.346V292.905H274.308V305.079H274.346V322.748H274.308V334.044H274.346V351.714H274.308V363.01H274.346V380.679H274.308V391.326H274.346V402.546H274.308V403.767H342.848V504.86H368.455V530.314H396.047V486.465H445.696V367.284H453.481V355.415H454.588V367.284H461.038H493.247V355.415H494.354V367.284H502.749V587.214H502.787Z" fill="#28395A"/>
<path d="M684.67 212.306V629.422L579.876 629.193V212.306H684.67Z" fill="#28395A"/>
<path d="M781.87 272.488V612.477C778.741 618.202 775.497 623.888 772.101 629.612L716.651 629.498V272.488H781.87Z" fill="#28395A"/>
<path d="M559.536 628.354C574.687 549.777 570.794 501.578 570.756 500.967C570.718 499.746 572.893 498.678 574.076 498.639C575.259 498.601 580.488 498.296 581.098 499.326C581.9 500.7 584.953 560.081 562.36 628.354H559.536Z" fill="#A0795F"/>
<path d="M490.653 376.251L495.003 375.602C496.682 375.144 497.942 374.381 498.018 372.778L498.285 364.306C498.323 362.932 497.484 361.673 496.186 361.215C492.027 359.803 488.325 356.406 489.241 351.216C489.241 351.216 491.645 338.813 491.683 338.432L507.711 338.928C507.749 339.309 509.696 351.827 509.696 351.827C510.65 356.559 506.337 360.261 502.063 361.405C500.804 361.749 499.926 362.817 499.888 364.115L499.621 372.702C499.583 374.381 500.766 375.182 502.559 375.831L506.719 376.785C507.024 376.785 507.063 377.205 506.719 377.167L490.691 376.67C490.309 376.709 490.309 376.403 490.653 376.251Z" fill="#7693CE"/>
<path d="M489.927 353.812C490.691 358.162 494.659 361.024 499.163 361.139C503.628 361.253 508.093 358.162 508.97 354.193C509.123 353.43 509.161 352.629 509.047 351.827C508.932 351.14 508.78 350.491 508.627 349.843C508.551 349.576 506.872 338.89 506.872 338.89L492.332 338.47L490.08 349.995C490.042 350.186 490.004 350.377 489.966 350.53L489.927 350.72C489.889 350.911 489.851 351.064 489.851 351.255C489.775 352.171 489.813 353.01 489.927 353.812Z" fill="#EBF3FA"/>
<path d="M489.928 353.81C490.691 358.161 494.66 361.023 499.163 361.137C503.628 361.252 508.093 358.161 508.971 354.192C507.177 353.925 502.254 353.314 498.362 353.963C495.805 354.383 492.446 354.154 489.928 353.81Z" fill="#C94C43"/>
<path opacity="0.7" d="M505.46 354.117C505.613 353.353 505.651 352.552 505.536 351.751C505.422 351.064 505.269 350.415 505.117 349.766C505.04 349.499 503.361 338.813 503.361 338.813L505.193 338.852C505.193 338.852 506.872 349.537 506.948 349.804C507.139 350.453 507.292 351.102 507.368 351.789C507.483 352.59 507.444 353.392 507.292 354.155C506.414 358.124 501.911 361.215 497.484 361.1C497.179 361.1 496.835 361.062 496.53 361.024C500.652 360.757 504.62 357.818 505.46 354.117Z" fill="white"/>
<path d="M533.585 507.226L561.558 600.418C561.558 600.418 574.343 597.289 579.075 589.809C579.075 589.809 575.907 499.211 556.597 485.702C537.211 472.154 533.585 507.226 533.585 507.226Z" fill="#33415C"/>
<path d="M474.052 627.321H519.503C519.923 627.245 520.266 627.13 520.457 627.054C523.51 625.528 523.243 616.865 520.724 610.873C519.732 608.507 522.709 603.508 521.64 601.6C519.579 597.898 506.948 591.296 504.734 601.066C504.658 601.371 503.704 606.904 503.628 607.172C500.842 616.331 488.439 620.49 481.303 621.635C475.807 622.551 474.395 625.718 474.052 627.321Z" fill="#162759"/>
<path d="M648.493 318.626C648.493 318.626 637.845 331.258 624.26 325.991C624.26 325.991 621.321 318.931 621.283 313.703C621.283 313.054 621.283 312.444 621.245 311.833C621.168 305.956 620.978 302.674 620.978 302.674C621.588 302.407 641.738 294.164 641.7 294.851C641.433 310.726 648.493 318.626 648.493 318.626Z" fill="#FFB27D"/>
<path d="M553.277 627.323H568.199C571.328 627.323 574.801 624.194 575.678 618.469C576.556 612.745 582.968 609.616 584.38 604.922C585.753 600.228 578.655 593.625 578.655 593.625L577.472 592.099L576.251 590.496L564.421 593.282C564.421 593.282 564.115 596.106 563.963 599.693C563.848 602.288 563.772 605.265 563.924 607.898C564.268 614.157 562.169 620.912 556.597 622.133C550.949 623.278 553.277 627.323 553.277 627.323Z" fill="#162759"/>
<path d="M551.254 446.623L544.423 449.179C544.423 449.179 530.646 448.302 528.166 463.071C528.166 463.071 527.593 469.253 531.944 468.184C536.294 467.116 534.463 466.887 540.645 465.551C546.827 464.177 551.827 460.094 552.552 455.514L555.338 451.088L551.254 446.623Z" fill="#FFB27D"/>
<path d="M547.667 453.187C544.69 448.874 544.805 447.997 544.805 447.997C544.805 447.997 580.258 412.009 583.425 408.46C586.593 404.949 616.207 344.767 616.207 344.767L626.549 344.462C642.31 344.004 651.698 361.826 642.425 374.572C626.816 396.057 608.002 421.55 603.422 426.473C589.837 440.975 553.277 457.995 553.277 457.995C553.277 457.995 549.995 456.583 547.667 453.187Z" fill="#5975A3"/>
<path d="M659.331 458.758C660.285 434.449 662.384 413.345 664.865 398.576C668.834 375.068 672.383 361.559 672.421 361.406C672.955 359.345 680.473 350.988 697.265 351.255C714.018 351.522 712.453 362.475 712.453 362.475C712.453 362.856 712.415 363.2 712.339 363.467C712.186 364.039 696.769 421.245 697.456 495.127C697.456 496.158 697.57 497.951 697.494 499.134C697.494 499.134 658.644 500.165 658.644 499.134C657.27 492.685 657.957 474.787 659.331 458.758Z" fill="#D1A586"/>
<path d="M654.446 494.746C654.446 495.776 654.98 496.616 655.629 496.616C656.278 496.616 656.774 495.776 656.812 494.746H690.128C690.128 495.776 690.662 496.616 691.311 496.616C691.96 496.616 692.494 495.738 692.494 494.707C692.303 473.565 693.486 453.835 695.242 436.395C699.669 392.928 707.835 363.887 707.95 363.467C708.026 363.2 708.064 362.856 708.064 362.475C708.064 362.475 709.667 351.522 692.876 351.255C676.122 350.988 668.566 359.345 668.032 361.406C667.994 361.52 665.971 369.153 663.3 382.93C662.422 387.471 661.468 392.699 660.476 398.576C657.995 413.307 655.896 434.449 654.942 458.758C653.606 474.787 653.11 488.296 654.446 494.746Z" fill="#E5BD9E"/>
<path d="M654.446 494.745C654.446 495.775 654.98 496.615 655.629 496.615C656.278 496.615 656.774 495.775 656.812 494.745H690.128C690.128 495.775 690.662 496.615 691.311 496.615C691.96 496.615 692.494 495.737 692.494 494.707C692.303 473.565 693.486 453.835 695.242 436.394C689.746 408.803 668.451 387.737 663.338 382.967C662.46 387.508 661.506 392.736 660.514 398.613C658.033 413.344 655.934 434.486 654.98 458.796C653.606 474.786 653.11 488.295 654.446 494.745Z" fill="#DFB697"/>
<path d="M688.029 494.364H687.953L687.915 494.288C687.877 494.25 687.877 494.212 687.877 494.135C687.877 494.097 687.877 494.097 687.877 494.059C687.839 492.685 685.053 492.418 680.626 492.418C679.634 492.418 678.565 492.418 677.42 492.456C676.161 492.456 674.787 492.495 673.375 492.495C669.139 492.495 663.567 492.38 657.996 491.35C654.408 490.701 656.813 462.499 659.369 436.09C659.789 431.587 660.133 428.038 660.285 425.977C661.926 403.461 671.505 363.658 671.581 363.353C672.001 361.712 677.726 355.453 690.243 355.644C694.861 355.72 698.181 356.865 700.089 359.117C702.073 361.483 701.73 364.116 701.73 364.23C701.73 364.498 701.692 364.765 701.654 364.994C701.615 365.223 692.991 416.742 691.579 429.145C689.213 449.905 688.297 493.487 688.297 494.097C688.297 494.135 688.297 494.174 688.297 494.174V494.364H688.029ZM680.588 491.998C684.48 491.998 686.961 492.189 687.877 493.143C688.029 486.77 688.984 448.188 691.159 429.03C692.609 416.36 701.196 364.956 701.234 364.803C701.272 364.612 701.31 364.383 701.31 364.116C701.31 364.078 701.654 361.483 699.784 359.269C697.952 357.132 694.746 356.026 690.243 355.949C677.993 355.758 672.383 361.75 671.963 363.353C671.887 363.734 662.308 403.767 660.667 425.901C660.514 428 660.171 431.549 659.751 436.014C658.797 445.784 657.538 459.179 656.889 470.475C655.973 486.999 657.003 490.663 658.034 490.854C663.567 491.846 669.139 491.96 673.337 491.96C674.749 491.96 676.123 491.96 677.382 491.922C678.527 492.037 679.596 491.998 680.588 491.998Z" fill="#D1A586"/>
<path d="M694.975 496.577H564.421C564.421 496.577 567.474 483.945 643.074 485.853C696.578 487.189 694.975 496.577 694.975 496.577Z" fill="#E5BD9E"/>
<path d="M705.584 628.354C690.433 549.777 694.326 501.578 694.364 500.967C694.402 499.746 692.227 498.678 691.044 498.639C689.861 498.601 684.633 498.296 684.022 499.326C683.221 500.7 680.168 560.081 702.76 628.354H705.584Z" fill="#D1A586"/>
<path d="M583.692 628.354C598.843 549.777 594.95 501.578 594.912 500.967C594.874 499.746 597.049 498.678 598.232 498.639C599.416 498.601 604.644 498.296 605.254 499.326C606.056 500.7 609.109 560.081 586.516 628.354H583.692Z" fill="#D1A586"/>
<path d="M681.274 628.354C666.124 549.777 670.016 501.578 670.055 500.967C670.093 499.746 667.918 498.678 666.735 498.639C665.552 498.601 660.323 498.296 659.713 499.326C658.911 500.7 655.858 560.081 678.45 628.354H681.274Z" fill="#A0795F"/>
<path d="M564.382 500.623H694.86C696.349 500.623 697.57 499.401 697.57 497.913V496.043C697.57 494.555 696.349 493.333 694.86 493.333H564.382C562.894 493.333 561.673 494.555 561.673 496.043V497.913C561.673 499.401 562.894 500.623 564.382 500.623Z" fill="#D1A586"/>
<path d="M676.046 435.097C676.046 435.097 688.373 481.693 666.963 488.448C666.963 488.448 648.531 497.263 560.681 491.119C560.681 491.119 564.421 530.045 522.251 606.294C522.251 606.294 509.886 609.614 502.139 600.378C502.139 600.378 518.587 490.394 524.083 465.932C528.204 447.385 645.249 441.279 676.046 435.097Z" fill="#031539"/>
<path d="M508.741 364.344C507.597 364.077 506.681 363.161 506.413 361.978C505.04 356.597 501.109 354.041 500.651 354.613C500.307 355.071 501.719 357.933 501.987 359.04C493.591 358.887 496.224 353.468 489.088 352.514C487.676 352.323 486.264 358.582 491.95 366.138C495.537 370.947 496.491 369.267 507.482 371.672L512.672 372.969L514.008 364.917C513.932 364.879 511.184 364.955 508.741 364.344Z" fill="#FFB27D"/>
<path d="M639.753 299.392C637.807 302.979 631.167 310.039 621.283 312.596C621.206 306.719 621.016 303.437 621.016 303.437C621.588 303.322 640.326 298.361 639.753 299.392Z" fill="#ED975D"/>
<path d="M614.604 303.054C614.604 303.054 640.593 309.16 644.142 292.903C647.691 276.646 653.454 266.494 637.006 261.915C620.558 257.335 615.978 262.831 613.46 267.945C610.979 273.135 607.926 301.07 614.604 303.054Z" fill="#FFB27D"/>
<path d="M643.264 297.369C643.608 297.598 649.218 299.315 659.789 278.212C661.468 274.891 662.575 267.717 658.72 261.42C654.828 255.085 641.089 250.124 629.679 247.949C618.268 245.773 615.52 252.223 612.849 258.672C610.025 265.465 601.858 271.037 601.858 271.037C611.704 276.532 623.573 268.671 627.656 269.968C631.777 271.266 633.228 277.754 633.533 279.814C633.838 281.875 634.296 283.631 639.486 281.761C644.638 279.891 641.814 289.088 641.013 290.843C641.013 290.805 640.288 295.461 643.264 297.369Z" fill="#A9453D"/>
<path d="M601.591 380.526C603.003 385.029 601.285 415.903 604.834 434.793C606.933 445.937 612.391 449.066 612.505 449.18C616.703 452.424 634.372 460.019 647.577 465.629C677.076 478.108 683.717 461.965 683.449 458.263C683.335 456.622 671.008 366.521 662.536 340.379C657.652 325.191 652.003 313.246 644.142 308.666C643.112 308.094 639.562 310.345 634.487 313.589C629.793 316.604 625.404 316.718 620.596 316.299L613.841 322.977C608.727 328.93 603.27 336.83 601.781 348.088C601.667 348.928 601.591 349.805 601.476 350.759C601.133 355.301 598.881 371.94 601.591 380.526Z" fill="#B8C1FF"/>
<path d="M601.133 367.626C601.286 375.144 601.706 383.578 602.278 392.127C602.316 392.623 602.355 393.157 602.393 393.653C631.473 375.45 635.976 342.134 635.976 342.134C621.665 342.744 610.292 346.065 601.515 350.759C601.133 355.3 601.019 361.101 601.133 367.626Z" fill="#244583"/>
<path d="M507.062 368.046C508.589 363.314 511.451 363.276 511.451 363.276C511.451 363.276 560.146 370.794 564.535 369.573C568.924 368.351 606.132 332.593 606.132 332.593C606.132 332.593 620.367 317.71 632.236 321.183C642.539 324.197 646.661 331.677 648.149 338.737C649.905 347.171 645.821 355.567 637.998 359.956C620.443 369.763 583.502 390.524 575.182 392.699C556.674 397.507 508.207 374.915 508.207 374.915C508.207 374.915 505.917 371.595 507.062 368.046Z" fill="#B8C1FF"/>
<path d="M354.03 378.311L358.38 377.662C360.06 377.204 361.319 376.441 361.395 374.838L361.662 366.366C361.701 364.992 360.861 363.733 359.563 363.275C355.404 361.863 351.702 358.466 352.618 353.276C352.618 353.276 355.022 340.873 355.06 340.492L371.088 340.988C371.127 341.369 373.073 353.887 373.073 353.887C374.027 358.619 369.715 362.321 365.44 363.466C364.181 363.809 363.303 364.878 363.265 366.175L362.998 374.762C362.96 376.441 364.143 377.242 365.937 377.891L370.096 378.845C370.402 378.845 370.44 379.265 370.096 379.227L354.03 378.73C353.686 378.73 353.725 378.463 354.03 378.311Z" fill="#7693CE"/>
<path d="M353.304 355.872C354.068 360.222 358.037 363.084 362.54 363.199C367.005 363.313 371.47 360.222 372.348 356.253C372.5 355.49 372.538 354.689 372.424 353.887C372.309 353.2 372.157 352.551 372.004 351.903C371.928 351.636 370.249 340.95 370.249 340.95L355.709 340.53L353.457 352.055C353.419 352.246 353.381 352.437 353.343 352.59L353.304 352.78C353.266 352.971 353.228 353.124 353.228 353.315C353.152 354.192 353.19 355.07 353.304 355.872Z" fill="#EBF3FA"/>
<path d="M353.304 355.871C354.067 360.222 358.036 363.084 362.54 363.198C367.005 363.313 371.47 360.222 372.347 356.253C370.554 355.986 365.631 355.375 361.738 356.024C359.181 356.444 355.861 356.176 353.304 355.871Z" fill="#C94C43"/>
<path opacity="0.7" d="M368.836 356.139C368.989 355.376 369.027 354.574 368.913 353.773C368.798 353.086 368.645 352.437 368.493 351.789C368.416 351.521 366.737 340.836 366.737 340.836L368.569 340.874C368.569 340.874 370.248 351.56 370.325 351.827C370.515 352.475 370.668 353.124 370.744 353.811C370.859 354.613 370.821 355.414 370.668 356.177C369.79 360.146 365.287 363.237 360.86 363.123C360.555 363.123 360.211 363.085 359.906 363.046C364.028 362.817 367.997 359.879 368.836 356.139Z" fill="white"/>
<path d="M246.067 457.424C245.113 433.115 243.014 412.011 240.534 397.242C236.565 373.734 233.016 360.224 232.978 360.072C232.443 358.011 224.925 349.653 208.134 349.92C191.38 350.187 192.945 361.14 192.945 361.14C192.945 361.522 192.983 361.865 193.06 362.132C193.212 362.705 208.63 419.91 207.943 493.793C207.943 494.823 207.828 496.617 207.905 497.8C207.905 497.8 246.754 498.83 246.754 497.8C248.128 491.35 247.479 473.452 246.067 457.424Z" fill="#D1A586"/>
<path d="M250.952 493.41C250.952 494.441 250.417 495.28 249.769 495.28C249.12 495.28 248.624 494.441 248.586 493.41H215.27C215.27 494.441 214.735 495.28 214.087 495.28C213.438 495.28 212.904 494.403 212.904 493.372C213.094 472.23 211.911 452.5 210.156 435.06C205.729 391.593 197.562 362.551 197.448 362.131C197.371 361.864 197.333 361.521 197.333 361.139C197.333 361.139 195.73 350.186 212.522 349.919C229.275 349.652 236.832 358.01 237.366 360.071C237.404 360.185 239.427 367.818 242.098 381.594C242.976 386.136 243.93 391.364 244.922 397.241C247.403 411.972 249.501 433.114 250.456 457.423C251.791 473.451 252.287 486.961 250.952 493.41Z" fill="#E5BD9E"/>
<path d="M250.952 493.409C250.952 494.44 250.418 495.279 249.769 495.279C249.12 495.279 248.624 494.44 248.586 493.409H215.27C215.27 494.44 214.736 495.279 214.087 495.279C213.438 495.279 212.904 494.401 212.904 493.371C213.095 472.229 211.912 452.499 210.156 435.059C215.652 407.467 236.947 386.402 242.06 381.631C242.938 386.173 243.892 391.401 244.884 397.278C247.365 412.009 249.464 433.151 250.418 457.46C251.792 473.45 252.288 486.96 250.952 493.409Z" fill="#DFB697"/>
<path d="M217.178 493.029V492.8C217.178 492.762 217.178 492.724 217.178 492.724C217.178 492.075 216.262 448.532 213.896 427.771C212.484 415.368 203.859 363.849 203.821 363.62C203.745 363.391 203.707 363.124 203.707 362.857C203.707 362.781 203.325 360.147 205.348 357.781C207.256 355.568 210.538 354.385 215.193 354.308C227.711 354.118 233.435 360.338 233.855 362.017C233.931 362.323 243.51 402.241 245.151 424.642C245.304 426.741 245.647 430.29 246.067 434.755C248.624 461.163 251.028 489.366 247.441 490.014C241.869 491.007 236.297 491.159 232.061 491.159C230.649 491.159 229.275 491.159 228.016 491.121C226.871 491.121 225.803 491.083 224.81 491.083C220.345 491.083 217.598 491.35 217.56 492.724C217.56 492.876 217.56 492.915 217.521 492.953L217.483 493.029H217.178ZM215.728 354.652C215.537 354.652 215.346 354.652 215.155 354.652C210.652 354.728 207.408 355.835 205.615 357.972C203.707 360.186 204.088 362.742 204.088 362.781C204.088 363.048 204.126 363.277 204.164 363.467C204.203 363.62 212.827 415.063 214.239 427.695C216.415 446.853 217.369 485.435 217.521 491.808C218.399 490.854 220.918 490.663 224.81 490.663C225.803 490.663 226.871 490.663 228.016 490.701C229.275 490.701 230.649 490.739 232.061 490.739C236.297 490.739 241.831 490.625 247.365 489.633C248.395 489.442 249.425 485.778 248.509 469.254C247.899 457.958 246.601 444.601 245.647 434.793C245.227 430.29 244.884 426.741 244.731 424.68C243.052 402.164 233.55 362.475 233.435 362.132C233.054 360.491 227.634 354.652 215.728 354.652Z" fill="#D1A586"/>
<path d="M210.423 495.241H340.978C340.978 495.241 337.925 482.609 262.324 484.518C208.82 485.853 210.423 495.241 210.423 495.241Z" fill="#E5BD9E"/>
<path d="M199.814 627.017C214.965 548.44 211.072 500.241 211.034 499.63C210.996 498.409 213.171 497.341 214.354 497.264C215.537 497.226 220.765 496.921 221.376 497.951C222.177 499.325 225.23 558.706 202.638 626.979H199.814V627.017Z" fill="#D1A586"/>
<path d="M321.705 627.017C306.555 548.44 310.447 500.241 310.485 499.63C310.524 498.409 308.348 497.341 307.165 497.264C305.982 497.226 300.754 496.921 300.143 497.951C299.342 499.325 296.289 558.706 318.881 626.979H321.705V627.017Z" fill="#D1A586"/>
<path d="M345.862 627.017C330.712 548.44 334.604 500.241 334.643 499.63C334.681 498.409 332.505 497.341 331.322 497.264C330.139 497.226 324.911 496.921 324.3 497.951C323.499 499.325 320.446 558.706 343.038 626.979H345.862V627.017Z" fill="#A0795F"/>
<path d="M224.124 627.017C239.275 548.44 235.382 500.241 235.344 499.63C235.306 498.409 237.481 497.341 238.664 497.264C239.847 497.226 245.075 496.921 245.686 497.951C246.487 499.325 249.54 558.706 226.948 626.979H224.124V627.017Z" fill="#A0795F"/>
<path d="M341.016 499.287H210.538C209.05 499.287 207.828 498.066 207.828 496.578V494.708C207.828 493.219 209.05 491.998 210.538 491.998H341.016C342.504 491.998 343.725 493.219 343.725 494.708V496.578C343.725 498.066 342.504 499.287 341.016 499.287Z" fill="#D1A586"/>
<path d="M273.583 252.414C273.583 252.414 255.876 246.804 242.939 264.778C229.963 282.753 220.117 283.936 223.59 291.874C227.063 299.811 217.866 304.467 221.339 311.794C224.811 319.122 228.59 318.32 224.964 325.571C220.537 334.348 226.452 345.263 229.353 348.812C236.833 358.009 233.589 375.793 244.999 377.93C244.999 377.93 301.022 355.147 305.945 347.858C310.868 340.607 308.922 328.777 301.595 319.312C294.229 309.848 307.395 310.611 304.495 302.101C301.595 293.591 299.648 292.637 302.358 283.325C305.067 274.052 299.267 275.197 296.748 268.06C294.229 260.886 295.412 259.283 288.543 255.161C281.216 250.811 273.583 252.414 273.583 252.414Z" fill="#56411E"/>
<path d="M300.144 331.944C300.144 331.944 323.385 380.602 326.705 380.716C329.987 380.83 357.846 388.845 357.846 388.845V393.271H317.394C317.394 393.271 286.329 353.926 292.779 343.355C299.228 332.784 300.144 331.944 300.144 331.944Z" fill="#ED985F"/>
<path d="M382.957 482.915C382.957 482.915 416.196 600.417 425.317 610.34L410.892 606.905C410.892 606.905 411.235 603.89 410.892 602.974C403.87 584.198 369.027 558.668 363.99 502.76L382.957 482.915Z" fill="#ED985F"/>
<path d="M283.925 349.69C262.134 358.582 255.57 323.778 256.982 323.472C259.195 321.106 261.714 312.52 260.531 300.041L261.638 300.155L278.01 301.91C278.01 301.91 277.628 308.055 277.971 313.283C278.01 313.665 278.01 314.008 278.048 314.351C278.429 318.587 281.826 321.602 282.78 322.442C284.23 322.595 289.726 347.324 283.925 349.69Z" fill="#FFB27D"/>
<path d="M277.971 313.32C269.385 312.328 264.08 304.657 261.676 300.192L278.048 301.948C278.01 301.91 277.628 308.092 277.971 313.32Z" fill="#ED985F"/>
<path d="M284.154 306.986C284.154 306.986 259.958 309.543 258.585 294.43C257.211 279.318 253.166 269.51 268.583 267.22C283.963 264.931 287.512 270.426 289.191 275.349C290.87 280.348 290.412 305.955 284.154 306.986Z" fill="#FFB27D"/>
<path d="M248.892 319.732C248.892 319.732 263.585 311.718 284.803 320.228C288.81 321.831 291.94 325.036 293.466 329.043C296.939 338.317 293.123 348.163 293.619 354.689C293.619 354.689 285.719 392.279 284.879 409.375C284.04 426.472 295.183 443.569 290.947 444.79C282.78 447.118 231.757 473.679 232.291 454.216C232.597 442.501 254.998 419.107 255.074 407.124C255.189 395.179 231.986 326.715 248.892 319.732Z" fill="#FFB27D"/>
<path d="M243.854 428.38C243.854 428.38 215.804 462.727 226.566 481.197C239.694 503.675 350.824 487.761 358.494 491.081C358.494 491.081 348.267 510.582 356.281 563.285C358.075 574.962 366.203 596.715 360.784 606.332L373.225 599.921C373.225 599.921 372.653 555.996 386.01 484.823C386.01 484.823 385.819 470.283 379.102 466.695C365.058 459.139 243.854 428.38 243.854 428.38Z" fill="#FFB27D"/>
<path d="M387.803 621.253C387.803 621.253 384.903 620.413 383.758 618.849C382.613 617.284 377.27 608.545 374.904 604.69C372.538 600.836 372.538 591.639 372.538 591.639L362.196 588.624C362.196 588.624 366.317 601.218 360.86 606.293L367.997 614.269C367.997 614.269 376.85 622.589 377.499 622.779C378.148 622.97 385.093 624.344 385.093 624.344L387.803 621.253Z" fill="#FFB27D"/>
<path d="M379.179 466.696C379.179 466.696 377.042 482.266 366.089 498.256C360.174 506.881 351.74 515.582 339.68 522.07C331.819 526.306 322.431 529.55 311.211 531.191C311.211 531.191 316.21 498.409 306.861 495.623C306.479 495.509 306.059 495.432 305.601 495.432C294.572 495.28 227.94 497.875 221.071 475.969C214.278 454.37 247.976 410.406 247.861 408.498C244.808 360.032 239.542 331.944 242.633 327.25C246.678 321.068 259.806 316.641 259.806 316.641C259.806 316.641 275.147 337.592 287.97 343.508C292.511 345.606 284.803 320.228 284.803 320.228C284.803 320.228 295.603 321.297 303.731 336.257C303.731 336.257 298.999 341.141 296.976 343.24C296.976 343.24 301.327 354.765 301.747 359.116C302.205 363.619 301.403 368.237 298.923 378.77C298.732 379.571 298.503 380.449 298.236 381.327C295.755 389.226 290.26 399.683 286.52 415.902C286.367 416.55 286.367 417.466 286.52 418.497C287.436 425.938 294.839 441.509 300.144 442.196C306.174 442.997 373.76 461.315 379.179 466.696Z" fill="#B8C1FF"/>
<path d="M286.52 415.901C286.367 416.55 286.367 417.466 286.52 418.496C252.135 375.869 249.998 332.745 249.998 332.745L298.274 381.326C295.793 389.226 290.298 399.72 286.52 415.901Z" fill="#69739D"/>
<path d="M247.174 326.373C246.602 328.128 244.083 335.685 245.19 337.173C252.326 346.752 293.694 391.936 305.677 394.264C318.882 396.821 353.304 364.039 353.304 364.039L349.106 362.055C349.106 362.055 310.677 378.198 308.616 376.251C306.097 373.885 277.971 340.722 271.675 333.891C262.134 323.511 250.342 316.642 247.174 326.373Z" fill="#FFB27D"/>
<path d="M437.835 621.254C437.835 621.254 433.255 619.384 430.813 616.675C423.6 608.737 422.99 607.592 419.517 600.99C418.105 598.28 410.892 606.333 410.892 606.333L424.363 622.933L432.187 625.757L437.835 621.254Z" fill="#ED985F"/>
<path d="M259.806 316.678C259.806 316.678 242.518 316.029 241.832 329.31C241.145 342.552 250.8 348.315 250.8 348.315C250.8 348.315 263.47 352.665 276.025 336.522C276.025 336.522 269.957 330.188 266.942 327.287C262.401 322.898 259.806 316.678 259.806 316.678Z" fill="#B8C1FF"/>
<path d="M360.021 614.577L362.616 627.018H365.364V615.645L360.021 614.577Z" fill="#C94C43"/>
<path d="M410.052 614.577L412.686 627.018H415.395V615.645L410.052 614.577Z" fill="#C94C43"/>
<path d="M442.376 627.017H422.951C422.951 627.017 420.776 617.361 415.738 617.018C410.663 616.713 408.296 613.354 409.48 610.683C410.243 608.966 410.701 607.554 410.93 606.333C410.93 606.333 419.516 609.5 422.684 617.323C425.851 625.147 437.872 621.292 437.872 621.292C440.429 622.399 442.452 623.048 442.376 627.017Z" fill="#C94C43"/>
<path d="M392.306 627.017H372.882C372.882 627.017 370.706 617.361 365.669 617.018C360.593 616.713 358.227 613.354 359.41 610.683C360.173 608.966 360.631 607.554 360.86 606.333C360.86 606.333 369.447 609.5 372.614 617.323C375.782 625.147 387.803 621.292 387.803 621.292C390.36 622.399 392.421 623.048 392.306 627.017Z" fill="#C94C43"/>
<path d="M348.648 362.244C348.648 362.244 352.388 360.222 355.365 360.031C358.38 359.84 361.967 358.466 361.662 359.535C361.394 360.603 357.578 362.13 358.418 362.664C359.257 363.16 361.662 363.962 363.646 363.847C365.592 363.733 369.485 361.252 368.722 362.969C367.958 364.687 363.913 368.35 360.479 368.045C357.426 367.778 351.091 366.175 351.091 366.175L348.648 362.244Z" fill="#FFB27D"/>
<path d="M357.808 388.806C357.808 388.806 367.158 386.249 369.6 386.363C372.042 386.478 381.202 390.981 381.316 393.271H356.281L357.808 388.806Z" fill="#ED985F"/>
<path d="M287.741 267.068C283.581 262.87 280.834 264.091 279.384 265.618C256.143 257.642 246.22 278.937 246.22 278.937C246.22 278.937 238.168 327.289 246.106 320.686C248.052 319.084 251.868 317.137 254.196 318.206C258.013 319.885 272.247 321.335 264.577 307.177C259.386 297.56 263.699 294.087 263.699 294.087C275.377 287.371 281.101 269.93 281.444 268.099C283.047 269.282 286.902 272.869 287.36 275.807C288.466 282.715 291.252 284.165 293.504 283.707C293.504 283.669 293.962 273.403 287.741 267.068Z" fill="#56411E"/>
<path d="M366.089 498.256C366.738 491.501 360.746 481.197 356.358 475.091C350.824 467.344 300.144 442.195 300.144 442.195C306.174 442.959 373.798 461.315 379.179 466.657C379.179 466.696 377.042 482.266 366.089 498.256Z" fill="#69739D"/>
<path d="M311.211 531.19C311.211 531.19 316.21 498.409 306.86 495.623C326.896 495.089 339.68 522.07 339.68 522.07C331.781 526.306 322.393 529.549 311.211 531.19Z" fill="#69739D"/>
<path d="M460.655 251.804C449.474 249.4 449.283 240.241 449.283 240.241C462.449 244.401 460.655 251.804 460.655 251.804Z" fill="#6BB7BF"/>
<path d="M461.418 249.706C461.418 249.706 468.402 252.53 473.363 245.431C473.363 245.431 465.311 244.057 461.418 249.706Z" fill="#6BB7BF"/>
<path d="M446.115 387.738L444.665 389.417C444.436 389.684 444.017 389.493 444.017 389.188C444.093 342.057 450.084 300.193 455.122 275.464C460.617 248.483 466.151 232.569 466.227 232.417C466.189 232.569 461.152 248.788 455.694 275.655C450.657 300.384 444.894 332.746 446.344 387.127C446.344 387.318 446.268 387.547 446.115 387.738Z" fill="#6BB7BF"/>
<path d="M466.112 225.968C464.318 227.419 457.487 233.525 464.127 238.219C464.127 238.219 469.203 239.821 470.882 235.929C472.18 232.952 472.523 229.594 472.6 228.182C472.638 227.8 472.332 227.495 471.989 227.457C471.607 227.419 471.073 227.342 470.539 227.113C469.928 226.884 469.585 225.93 468.745 225.701C468.211 225.587 467.677 225.472 467.066 225.51C466.722 225.587 466.417 225.739 466.112 225.968Z" fill="#F99746"/>
<path d="M462.334 236.539C462.334 236.539 464.357 238.18 463.593 240.736L463.555 241.69C463.555 241.69 464.089 239.286 466.57 238.561C466.608 238.561 464.357 238.828 462.334 236.539Z" fill="#6BB7BF"/>
<path d="M460.655 251.804C449.474 249.4 449.283 240.241 449.283 240.241C449.283 240.241 458.137 245.126 460.655 251.804Z" fill="#8AD8DB"/>
<path d="M449.894 245.506C449.894 245.506 442.872 248.215 438.025 240.964C438.063 241.002 446.116 239.781 449.894 245.506Z" fill="#6BB7BF"/>
<path d="M462.449 383.846L463.861 385.525C464.09 385.792 464.51 385.639 464.51 385.296C465.388 338.165 460.236 296.186 455.694 271.381C450.733 244.324 445.505 228.257 445.467 228.104C445.505 228.257 450.199 244.553 455.122 271.533C459.663 296.377 464.777 328.815 462.22 383.159C462.22 383.426 462.296 383.655 462.449 383.846Z" fill="#6BB7BF"/>
<path d="M445.696 221.693C447.452 223.181 454.168 229.402 447.452 233.981C447.452 233.981 442.338 235.508 440.735 231.539C439.514 228.524 439.247 225.204 439.17 223.792C439.17 223.41 439.437 223.105 439.819 223.105C440.201 223.067 440.735 222.991 441.269 222.8C441.918 222.571 442.223 221.617 443.101 221.426C443.635 221.311 444.17 221.197 444.78 221.273C445.085 221.311 445.429 221.464 445.696 221.693Z" fill="#F99746"/>
<path d="M449.283 232.341C449.283 232.341 447.222 233.905 447.909 236.539V237.493C447.909 237.493 447.413 235.089 444.933 234.287C444.971 234.287 447.184 234.554 449.283 232.341Z" fill="#6BB7BF"/>
<path d="M452.908 237.264C452.908 237.264 460.35 238.523 463.632 230.471C463.632 230.471 455.465 230.89 452.908 237.264Z" fill="#6BB7BF"/>
<path d="M468.021 375.336L466.991 377.282C466.838 377.588 466.38 377.511 466.304 377.168C456.114 331.144 452.832 288.974 452.336 263.787C451.802 236.272 453.748 219.518 453.787 219.328C453.748 219.48 452.413 236.386 452.947 263.825C453.443 289.089 454.855 321.908 468.136 374.649C468.174 374.878 468.136 375.107 468.021 375.336Z" fill="#6BB7BF"/>
<path d="M452.298 213.069C450.886 214.863 445.543 222.304 453.023 225.472C453.023 225.472 458.328 225.93 459.129 221.732C459.74 218.526 459.358 215.206 459.129 213.794C459.091 213.413 458.747 213.184 458.366 213.222C457.984 213.26 457.45 213.298 456.877 213.222C456.229 213.107 455.694 212.268 454.817 212.229C454.282 212.229 453.71 212.23 453.137 212.42C452.794 212.573 452.527 212.802 452.298 213.069Z" fill="#F99746"/>
<path d="M450.886 224.212C450.886 224.212 453.214 225.357 453.061 228.029L453.252 228.983C453.252 228.983 453.252 226.54 455.504 225.243C455.504 225.281 453.366 226.006 450.886 224.212Z" fill="#6BB7BF"/>
<path d="M459.015 228.982C459.015 228.982 459.015 223.105 464.09 221.235C464.09 221.274 465.197 226.158 459.015 228.982Z" fill="#6BB7BF"/>
<path d="M447.108 219.518C447.108 219.518 447.261 215.015 443.101 213.717C443.101 213.755 442.109 217.915 447.108 219.518Z" fill="#ED9F4A"/>
<path d="M460.732 246.538C460.885 246.653 462.907 242.15 458.786 238.562C458.824 238.562 457.107 243.371 460.732 246.538Z" fill="#ED9F4A"/>
<path d="M463.632 246.195C463.518 246.233 463.594 243.943 465.731 243.638C465.731 243.638 466.075 245.508 463.632 246.195Z" fill="#6BB7BF"/>
<path d="M442.376 238.561C442.376 238.561 440.582 234.821 434.82 235.47C434.82 235.47 435.697 239.477 442.376 238.561Z" fill="#6BB7BF"/>
<path d="M478.096 388.731L460.503 270.351C460.313 269.168 459.32 268.291 458.137 268.291H452.642C451.535 268.291 450.581 269.092 450.428 270.199L433.255 388.579C432.912 391.021 434.82 393.235 437.262 393.235H474.166C476.608 393.273 478.44 391.097 478.096 388.731Z" fill="#F99746"/>
<path d="M445.468 389.685L454.588 268.328C453.596 268.443 452.795 269.206 452.68 270.236L435.507 388.616C435.164 391.059 437.072 393.272 439.514 393.272H446.88C445.925 392.394 445.353 391.097 445.468 389.685Z" fill="#FFB278"/>
<path d="M466.189 393.273H476.417C477.294 393.273 478.134 392.968 478.783 392.472L466.189 393.273Z" fill="#FFB278"/>
<path d="M419.287 321.793V332.784C419.287 333.585 418.791 334.234 418.181 334.234H415.166C414.555 334.234 414.059 333.585 414.059 332.784V321.831C414.174 321.793 414.326 321.793 414.441 321.793H419.287Z" fill="#7A1818"/>
<path d="M417.799 329.73H415.853C411.579 329.73 408.068 333.241 408.068 337.515V390.294C408.068 391.859 409.365 393.156 410.93 393.156H422.76C424.172 393.156 425.317 392.011 425.317 390.599V337.248C425.317 333.088 421.921 329.73 417.799 329.73Z" fill="#7A1818"/>
<path d="M419.287 317.213V322.747C419.287 323.052 418.791 323.281 418.181 323.281H415.166C414.555 323.281 414.059 323.052 414.059 322.747V317.213C414.059 316.908 414.555 316.679 415.166 316.679H418.181C418.791 316.679 419.287 316.908 419.287 317.213Z" fill="#884C1A"/>
<path d="M425.317 341.026H408.068V374.189H425.317V341.026Z" fill="#884C1A"/>
<path d="M530.608 627.018C529.272 627.018 528.128 626.064 527.899 624.728L514.656 547.525L495.575 436.511L490.232 405.447L503.818 405.065L506.184 423.078L522.747 549.739L532.554 624.805C532.707 625.988 531.791 627.018 530.608 627.018Z" fill="#C69D7F"/>
<path d="M391.658 405.446L385.628 440.631L368.951 537.831L354.03 624.727C353.801 626.025 352.656 627.017 351.32 627.017C350.137 627.017 349.221 625.987 349.374 624.804L362.235 526.306L376.011 420.94L378.072 405.026L391.658 405.446Z" fill="#C69D7F"/>
<path d="M385.59 440.633C386.391 425.521 375.973 420.942 375.973 420.942L378.034 405.028L391.62 405.409L385.59 440.633Z" fill="#A0795F"/>
<path d="M506.184 423.078C497.368 427.085 495.575 436.511 495.575 436.511L490.232 405.447L503.818 405.065L506.184 423.078Z" fill="#A0795F"/>
<path d="M568.77 393.272H313.157C307.051 393.272 302.052 398.272 302.052 404.378V406.515C302.052 412.621 307.051 417.62 313.157 417.62H568.77C574.876 417.62 579.876 412.621 579.876 406.515V404.378C579.876 398.272 574.876 393.272 568.77 393.272Z" fill="#E0B594"/>
<path d="M119.673 189.79V592.633C114.254 587.633 108.568 582.176 102.767 576.223V201.315C108.263 197.193 113.911 193.339 119.673 189.79Z" fill="#B9C2FF"/>
<path d="M630.212 44.1982L410.739 116.592C419.478 104.571 430.393 91.6724 443.711 79.2696L630.212 44.1982Z" fill="#B9C2FF"/>
<path d="M527.059 133.806C534.289 133.806 540.149 127.945 540.149 120.716C540.149 113.487 534.289 107.626 527.059 107.626C519.83 107.626 513.969 113.487 513.969 120.716C513.969 127.945 519.83 133.806 527.059 133.806Z" fill="#FFF4E9"/>
<path d="M790.342 114.876V596.563C787.632 601.867 784.808 607.172 781.87 612.477C779.122 617.438 776.298 622.437 773.398 627.398V93.3906C776.298 96.7108 779.084 100.107 781.87 103.618C784.77 107.244 787.594 111.022 790.342 114.876Z" fill="#B9C2FF"/>
<path d="M836.062 479.978C832.932 491.312 829.421 502.723 825.529 514.171C825.033 515.66 824.498 517.148 823.964 518.636C819.118 532.489 813.622 546.38 807.554 560.348C803.585 561.645 799.693 562.6 796.296 563.134C780.917 565.462 785.687 559.127 790.992 549.777C796.296 540.427 813.05 536.229 816.866 531.917C820.682 527.605 812.782 527.605 803.509 531.802C794.235 536.038 792.976 547.296 778.131 554.433C763.286 561.531 740.922 536.916 740.922 536.916C752.753 536.306 769.659 523.445 769.048 519.514C768.438 515.583 740.35 526.307 735.58 526.803C730.771 527.299 719.857 521.346 718.177 501.997C716.498 482.649 748.173 477.268 748.173 477.268C748.173 477.268 779.619 500.662 785.763 499.212C791.908 497.8 762.789 473.986 762.789 473.986C773.742 468.72 807.783 472.04 807.783 472.04C807.783 472.04 819.118 508.6 824.727 505.737C830.337 502.837 813.05 473.872 813.05 473.872C821.255 473.376 830.795 477.345 836.062 479.978Z" fill="#887BFB"/>
<path d="M825.529 514.209C825.032 515.698 824.498 517.186 823.964 518.674C810.569 511.347 784.466 504.211 733.709 502.57C733.709 502.531 794.922 500.165 825.529 514.209Z" fill="#263361"/>
<path d="M63.6889 530.161C62.8493 528.978 62.0097 527.795 61.1701 526.612C56.4761 519.971 51.973 513.026 47.6606 505.851C48.004 492.456 47.3553 479.328 47.3553 479.328C47.3553 479.328 92.1963 457.767 109.789 459.484C109.789 459.484 81.9688 506.576 91.0515 505.47C100.134 504.363 131.351 456.66 131.351 456.66C131.351 456.66 177.337 448.15 184.702 475.398C192.068 502.646 180.161 516.27 173.368 517.949C166.575 519.666 122.879 519.094 123.986 524.742C125.131 530.428 154.63 539.511 171.078 534.397C171.078 534.397 152.913 579.238 129.1 576.948C107.538 574.887 99.4472 562.637 87.1589 559.47C83.9914 555.882 80.862 552.181 77.7327 548.364C77.0076 547.487 76.3207 546.647 75.5956 545.769C72.6571 542.106 69.7567 538.366 66.8945 534.511L63.6889 530.161Z" fill="#887BFB"/>
<path d="M66.8558 534.436C85.5937 520.24 115.704 503.219 163.636 483.833C162.339 484.252 102.958 503.639 63.6883 530.124L66.8558 534.436Z" fill="#213477"/>
<path d="M848.311 424.527C846.441 435.632 844.228 446.813 841.633 458.071C826.406 457.957 809.538 454.446 798.013 449.752C775.497 440.631 786.908 435.899 801.486 427.503C814.957 419.756 838.16 425.786 848.311 424.527Z" fill="#FADCAA"/>
<path d="M853.654 382.052C853.463 384.418 853.234 386.784 853.005 389.15C852.089 398.576 850.906 408.041 849.418 417.619C845.678 415.75 839.648 414.109 832.626 413.345C816.789 411.666 806.103 425.824 780.458 423.573C754.813 421.321 744.356 370.374 744.356 370.374C760.766 378.999 793.739 375.145 796.067 369.344C798.356 363.581 752.027 355.644 745.158 352.514C738.289 349.385 728.328 332.67 741.456 305.269C754.584 277.907 801.524 295.881 801.524 295.881C801.524 295.881 825.223 352.4 834.611 355.376C843.999 358.353 823.773 303.094 823.773 303.094C831.596 303.781 843.503 309.505 854.799 316.031C855.906 337.44 855.562 359.498 853.654 382.052Z" fill="#887BFB"/>
<path d="M762.026 318.397C762.904 318.855 817.018 348.24 853.654 382.052C853.463 384.418 853.234 386.784 853.005 389.15C835.794 370.718 807.592 347.4 762.026 318.397Z" fill="#213477"/>
<path d="M843.809 630.336H87.4261C86.8155 630.336 86.2812 629.84 86.2812 629.191V627.97C86.2812 627.359 86.7774 626.825 87.4261 626.825H843.771C844.381 626.825 844.916 627.321 844.916 627.97V629.191C844.916 629.802 844.419 630.336 843.809 630.336Z" fill="#B9C2FE"/>
<path d="M160.796 108L143.021 91.2717C139.973 88.0931 139 85.7964 139 81.8012C139.004 74.6229 144.414 69 151.316 69C154.797 69 158.126 70.4163 160.535 72.9039C162.957 70.4137 166.289 69 169.755 69C176.621 69 182 74.5685 182 81.6776C182 85.6962 181.01 88.1129 178.078 91.256L160.796 108ZM151.316 69.9893C144.968 69.9893 139.992 75.1779 139.989 81.8015C139.989 85.5406 140.859 87.5893 143.716 90.5688L160.786 106.633L177.373 90.563C180.123 87.6144 181.011 85.451 181.011 81.6776C181.011 75.1233 176.067 69.9893 169.755 69.9893C166.419 69.9893 163.218 71.4078 160.973 73.8814L160.544 74.3456L160.165 73.9582C157.921 71.4359 154.696 69.9893 151.316 69.9893Z" fill="#FF95A1"/>
<path d="M218.672 39L208.338 29.1346C206.566 27.2601 206 25.9056 206 23.5494C206.002 19.3161 209.148 16 213.16 16C215.184 16 217.12 16.8353 218.52 18.3023C219.929 16.8337 221.865 16 223.881 16C227.873 16 231 19.284 231 23.4765C231 25.8465 230.425 27.2717 228.72 29.1253L218.672 39ZM213.16 16.5834C209.47 16.5834 206.577 19.6434 206.575 23.5496C206.575 25.7547 207.081 26.9629 208.742 28.7201L218.666 38.1936L228.31 28.7167C229.909 26.9777 230.425 25.7019 230.425 23.4765C230.425 19.6112 227.551 16.5834 223.881 16.5834C221.941 16.5834 220.08 17.42 218.775 18.8788L218.526 19.1525L218.305 18.9241C217.001 17.4365 215.125 16.5834 213.16 16.5834Z" fill="#FF95A1"/>
</svg>
