<svg width="32" height="32" viewBox="0 0 32 32" fill="none" xmlns="http://www.w3.org/2000/svg">
<rect width="32" height="32" rx="8" fill="#323B52"/>
<mask id="mask0" mask-type="alpha" maskUnits="userSpaceOnUse" x="4" y="4" width="24" height="24">
<rect x="4.5" y="4.5" width="23" height="23" fill="#C4C4C4" stroke="white"/>
</mask>
<g mask="url(#mask0)">
<path d="M21.1026 5.95C19.2431 5.95 17.7192 7.47388 17.7192 9.33333C17.7192 9.6792 17.7716 10.0194 17.8695 10.3351L12.4298 13.3598C11.8522 12.8999 11.1247 12.6167 10.3333 12.6167C8.47389 12.6167 6.95 14.1405 6.95 16C6.95 17.8594 8.47389 19.3833 10.3333 19.3833C11.1244 19.3833 11.8519 19.1081 12.4298 18.6482L17.8774 21.6729C17.7787 21.9878 17.7192 22.3191 17.7192 22.6667C17.7192 24.5261 19.2431 26.05 21.1026 26.05C22.962 26.05 24.4859 24.5261 24.4859 22.6667C24.4859 20.8072 22.962 19.2833 21.1026 19.2833C20.182 19.2833 19.3418 19.6625 18.7302 20.2649L13.4422 17.3245C13.6167 16.9178 13.7167 16.4685 13.7167 16C13.7167 15.529 13.6185 15.0836 13.4423 14.6754L18.7221 11.7352C19.3346 12.3423 20.1782 12.7167 21.1026 12.7167C22.962 12.7167 24.4859 11.1928 24.4859 9.33333C24.4859 7.47388 22.962 5.95 21.1026 5.95ZM21.1026 7.58846C22.0753 7.58846 22.8474 8.36056 22.8474 9.33333C22.8474 10.3061 22.0753 11.0782 21.1026 11.0782C20.1298 11.0782 19.3577 10.3061 19.3577 9.33333C19.3577 8.36056 20.1298 7.58846 21.1026 7.58846ZM10.3333 14.2551C11.3061 14.2551 12.0782 15.0272 12.0782 16C12.0782 16.9728 11.3061 17.7449 10.3333 17.7449C9.36057 17.7449 8.58846 16.9728 8.58846 16C8.58846 15.0272 9.36057 14.2551 10.3333 14.2551ZM21.1026 20.9218C22.0753 20.9218 22.8474 21.6939 22.8474 22.6667C22.8474 23.6394 22.0753 24.4115 21.1026 24.4115C20.1298 24.4115 19.3577 23.6394 19.3577 22.6667C19.3577 21.6939 20.1298 20.9218 21.1026 20.9218Z" fill="white" stroke="white" stroke-width="0.1"/>
</g>
</svg>
