<svg width="40" height="40" viewBox="0 0 40 40" fill="none" xmlns="http://www.w3.org/2000/svg">
<path d="M0 8C0 3.58172 3.58172 0 8 0H24C32.8366 0 40 7.16344 40 16V32C40 36.4183 36.4183 40 32 40H0V8Z" fill="#F6E7EC"/>
<path fill-rule="evenodd" clip-rule="evenodd" d="M22.0246 17.975C22.5584 16.8575 22.8572 15.6063 22.8572 14.2853C22.8572 9.55143 19.0197 5.71387 14.2858 5.71387C9.5519 5.71387 5.71436 9.55143 5.71436 14.2853V19.9996V34.2853H20.0001H25.7144C30.4482 34.2853 34.2858 30.4477 34.2858 25.7139C34.2858 20.98 30.4482 17.1424 25.7144 17.1424C24.3933 17.1424 23.1421 17.4413 22.0246 17.975Z" fill="#A16294"/>
</svg>
