<svg width="245" height="40" viewBox="0 0 245 40" fill="none" xmlns="http://www.w3.org/2000/svg">
<path d="M0 8C0 3.58172 3.58172 0 8 0H24C32.8366 0 40 7.16344 40 16V32C40 36.4183 36.4183 40 32 40H0V8Z" fill="#F6E7EC"/>
<path fill-rule="evenodd" clip-rule="evenodd" d="M22.0246 17.975C22.5584 16.8575 22.8572 15.6063 22.8572 14.2853C22.8572 9.55143 19.0197 5.71387 14.2858 5.71387C9.5519 5.71387 5.71436 9.55143 5.71436 14.2853V19.9996V34.2853H20.0001H25.7144C30.4482 34.2853 34.2858 30.4477 34.2858 25.7139C34.2858 20.98 30.4482 17.1424 25.7144 17.1424C24.3933 17.1424 23.1421 17.4413 22.0246 17.975Z" fill="#A16294"/>
<path d="M62.74 27L62.72 17.72L58.12 25.4H56.96L52.36 17.84V27H49.88V13H52.02L57.58 22.28L63.04 13H65.18L65.2 27H62.74ZM73.1416 16.2C74.7149 16.2 75.9149 16.58 76.7416 17.34C77.5816 18.0867 78.0016 19.22 78.0016 20.74V27H75.6416V25.7C75.3349 26.1667 74.8949 26.5267 74.3216 26.78C73.7616 27.02 73.0816 27.14 72.2816 27.14C71.4816 27.14 70.7816 27.0067 70.1816 26.74C69.5816 26.46 69.1149 26.08 68.7816 25.6C68.4616 25.1067 68.3016 24.5533 68.3016 23.94C68.3016 22.98 68.6549 22.2133 69.3616 21.64C70.0816 21.0533 71.2082 20.76 72.7416 20.76H75.5016V20.6C75.5016 19.8533 75.2749 19.28 74.8216 18.88C74.3816 18.48 73.7216 18.28 72.8416 18.28C72.2416 18.28 71.6482 18.3733 71.0616 18.56C70.4882 18.7467 70.0016 19.0067 69.6016 19.34L68.6216 17.52C69.1816 17.0933 69.8549 16.7667 70.6416 16.54C71.4282 16.3133 72.2616 16.2 73.1416 16.2ZM72.8016 25.32C73.4282 25.32 73.9816 25.18 74.4616 24.9C74.9549 24.6067 75.3016 24.1933 75.5016 23.66V22.42H72.9216C71.4816 22.42 70.7616 22.8933 70.7616 23.84C70.7616 24.2933 70.9416 24.6533 71.3016 24.92C71.6616 25.1867 72.1616 25.32 72.8016 25.32ZM87.95 26.42C87.6567 26.66 87.2967 26.84 86.87 26.96C86.4567 27.08 86.0167 27.14 85.55 27.14C84.3767 27.14 83.47 26.8333 82.83 26.22C82.19 25.6067 81.87 24.7133 81.87 23.54V18.4H80.11V16.4H81.87V13.96H84.37V16.4H87.23V18.4H84.37V23.48C84.37 24 84.4967 24.4 84.75 24.68C85.0033 24.9467 85.37 25.08 85.85 25.08C86.41 25.08 86.8767 24.9333 87.25 24.64L87.95 26.42ZM94.875 27.14C93.7683 27.14 92.775 26.9067 91.895 26.44C91.015 25.9733 90.3283 25.3267 89.835 24.5C89.3417 23.66 89.095 22.7133 89.095 21.66C89.095 20.6067 89.3417 19.6667 89.835 18.84C90.3283 18.0133 91.0083 17.3667 91.875 16.9C92.755 16.4333 93.755 16.2 94.875 16.2C95.9283 16.2 96.8483 16.4133 97.635 16.84C98.435 17.2667 99.035 17.88 99.435 18.68L97.515 19.8C97.2083 19.3067 96.8217 18.94 96.355 18.7C95.9017 18.4467 95.4017 18.32 94.855 18.32C93.9217 18.32 93.1483 18.6267 92.535 19.24C91.9217 19.84 91.615 20.6467 91.615 21.66C91.615 22.6733 91.915 23.4867 92.515 24.1C93.1283 24.7 93.9083 25 94.855 25C95.4017 25 95.9017 24.88 96.355 24.64C96.8217 24.3867 97.2083 24.0133 97.515 23.52L99.435 24.64C99.0217 25.44 98.415 26.06 97.615 26.5C96.8283 26.9267 95.915 27.14 94.875 27.14ZM107.878 16.2C109.225 16.2 110.305 16.5933 111.118 17.38C111.932 18.1667 112.338 19.3333 112.338 20.88V27H109.838V21.2C109.838 20.2667 109.618 19.5667 109.178 19.1C108.738 18.62 108.112 18.38 107.298 18.38C106.378 18.38 105.652 18.66 105.118 19.22C104.585 19.7667 104.318 20.56 104.318 21.6V27H101.818V12.16H104.318V17.56C104.732 17.12 105.238 16.7867 105.838 16.56C106.452 16.32 107.132 16.2 107.878 16.2ZM115.83 16.32H118.33V27H115.83V16.32ZM117.09 14.56C116.637 14.56 116.257 14.42 115.95 14.14C115.643 13.8467 115.49 13.4867 115.49 13.06C115.49 12.6333 115.643 12.28 115.95 12C116.257 11.7067 116.637 11.56 117.09 11.56C117.543 11.56 117.923 11.7 118.23 11.98C118.537 12.2467 118.69 12.5867 118.69 13C118.69 13.44 118.537 13.8133 118.23 14.12C117.937 14.4133 117.557 14.56 117.09 14.56ZM127.991 16.2C129.338 16.2 130.418 16.5933 131.231 17.38C132.044 18.1667 132.451 19.3333 132.451 20.88V27H129.951V21.2C129.951 20.2667 129.731 19.5667 129.291 19.1C128.851 18.62 128.224 18.38 127.411 18.38C126.491 18.38 125.764 18.66 125.231 19.22C124.698 19.7667 124.431 20.56 124.431 21.6V27H121.931V16.32H124.311V17.7C124.724 17.2067 125.244 16.8333 125.871 16.58C126.498 16.3267 127.204 16.2 127.991 16.2ZM146.64 16.32V25.38C146.64 29.14 144.72 31.02 140.88 31.02C139.853 31.02 138.88 30.8867 137.96 30.62C137.04 30.3667 136.28 29.9933 135.68 29.5L136.8 27.62C137.267 28.0067 137.853 28.3133 138.56 28.54C139.28 28.78 140.007 28.9 140.74 28.9C141.913 28.9 142.773 28.6333 143.32 28.1C143.867 27.5667 144.14 26.7533 144.14 25.66V25.1C143.713 25.5667 143.193 25.92 142.58 26.16C141.967 26.4 141.293 26.52 140.56 26.52C139.547 26.52 138.627 26.3067 137.8 25.88C136.987 25.44 136.34 24.8267 135.86 24.04C135.393 23.2533 135.16 22.3533 135.16 21.34C135.16 20.3267 135.393 19.4333 135.86 18.66C136.34 17.8733 136.987 17.2667 137.8 16.84C138.627 16.4133 139.547 16.2 140.56 16.2C141.333 16.2 142.033 16.3267 142.66 16.58C143.3 16.8333 143.833 17.22 144.26 17.74V16.32H146.64ZM140.94 24.4C141.887 24.4 142.66 24.12 143.26 23.56C143.873 22.9867 144.18 22.2467 144.18 21.34C144.18 20.4467 143.873 19.72 143.26 19.16C142.66 18.6 141.887 18.32 140.94 18.32C139.98 18.32 139.193 18.6 138.58 19.16C137.98 19.72 137.68 20.4467 137.68 21.34C137.68 22.2467 137.98 22.9867 138.58 23.56C139.193 24.12 139.98 24.4 140.94 24.4ZM154.587 14.04C153.534 14.04 153.007 14.6133 153.007 15.76V16.4H155.947V18.4H153.087V27H150.587V18.4H148.827V16.4H150.587V15.72C150.587 14.5733 150.92 13.6733 151.587 13.02C152.254 12.3533 153.194 12.02 154.407 12.02C155.367 12.02 156.12 12.2133 156.667 12.6L155.967 14.48C155.54 14.1867 155.08 14.04 154.587 14.04ZM162.593 27.14C161.513 27.14 160.54 26.9067 159.673 26.44C158.807 25.9733 158.127 25.3267 157.633 24.5C157.153 23.66 156.913 22.7133 156.913 21.66C156.913 20.6067 157.153 19.6667 157.633 18.84C158.127 18.0133 158.807 17.3667 159.673 16.9C160.54 16.4333 161.513 16.2 162.593 16.2C163.687 16.2 164.667 16.4333 165.533 16.9C166.4 17.3667 167.073 18.0133 167.553 18.84C168.047 19.6667 168.293 20.6067 168.293 21.66C168.293 22.7133 168.047 23.66 167.553 24.5C167.073 25.3267 166.4 25.9733 165.533 26.44C164.667 26.9067 163.687 27.14 162.593 27.14ZM162.593 25C163.513 25 164.273 24.6933 164.873 24.08C165.473 23.4667 165.773 22.66 165.773 21.66C165.773 20.66 165.473 19.8533 164.873 19.24C164.273 18.6267 163.513 18.32 162.593 18.32C161.673 18.32 160.913 18.6267 160.313 19.24C159.727 19.8533 159.433 20.66 159.433 21.66C159.433 22.66 159.727 23.4667 160.313 24.08C160.913 24.6933 161.673 25 162.593 25ZM173.384 17.88C174.104 16.76 175.371 16.2 177.184 16.2V18.58C176.971 18.54 176.777 18.52 176.604 18.52C175.631 18.52 174.871 18.8067 174.324 19.38C173.777 19.94 173.504 20.7533 173.504 21.82V27H171.004V16.32H173.384V17.88ZM183.646 16.2C185.22 16.2 186.42 16.58 187.246 17.34C188.086 18.0867 188.506 19.22 188.506 20.74V27H186.146V25.7C185.84 26.1667 185.4 26.5267 184.826 26.78C184.266 27.02 183.586 27.14 182.786 27.14C181.986 27.14 181.286 27.0067 180.686 26.74C180.086 26.46 179.62 26.08 179.286 25.6C178.966 25.1067 178.806 24.5533 178.806 23.94C178.806 22.98 179.16 22.2133 179.866 21.64C180.586 21.0533 181.713 20.76 183.246 20.76H186.006V20.6C186.006 19.8533 185.78 19.28 185.326 18.88C184.886 18.48 184.226 18.28 183.346 18.28C182.746 18.28 182.153 18.3733 181.566 18.56C180.993 18.7467 180.506 19.0067 180.106 19.34L179.126 17.52C179.686 17.0933 180.36 16.7667 181.146 16.54C181.933 16.3133 182.766 16.2 183.646 16.2ZM183.306 25.32C183.933 25.32 184.486 25.18 184.966 24.9C185.46 24.6067 185.806 24.1933 186.006 23.66V22.42H183.426C181.986 22.42 181.266 22.8933 181.266 23.84C181.266 24.2933 181.446 24.6533 181.806 24.92C182.166 25.1867 182.666 25.32 183.306 25.32ZM202.592 12.16V27H200.192V25.62C199.779 26.1267 199.266 26.5067 198.652 26.76C198.052 27.0133 197.386 27.14 196.652 27.14C195.626 27.14 194.699 26.9133 193.872 26.46C193.059 26.0067 192.419 25.3667 191.952 24.54C191.486 23.7 191.252 22.74 191.252 21.66C191.252 20.58 191.486 19.6267 191.952 18.8C192.419 17.9733 193.059 17.3333 193.872 16.88C194.699 16.4267 195.626 16.2 196.652 16.2C197.359 16.2 198.006 16.32 198.592 16.56C199.179 16.8 199.679 17.16 200.092 17.64V12.16H202.592ZM196.952 25C197.552 25 198.092 24.8667 198.572 24.6C199.052 24.32 199.432 23.9267 199.712 23.42C199.992 22.9133 200.132 22.3267 200.132 21.66C200.132 20.9933 199.992 20.4067 199.712 19.9C199.432 19.3933 199.052 19.0067 198.572 18.74C198.092 18.46 197.552 18.32 196.952 18.32C196.352 18.32 195.812 18.46 195.332 18.74C194.852 19.0067 194.472 19.3933 194.192 19.9C193.912 20.4067 193.772 20.9933 193.772 21.66C193.772 22.3267 193.912 22.9133 194.192 23.42C194.472 23.9267 194.852 24.32 195.332 24.6C195.812 24.8667 196.352 25 196.952 25ZM216.523 16.32V27H214.143V25.64C213.743 26.12 213.243 26.4933 212.643 26.76C212.043 27.0133 211.396 27.14 210.703 27.14C209.276 27.14 208.149 26.7467 207.323 25.96C206.509 25.16 206.103 23.98 206.103 22.42V16.32H208.603V22.08C208.603 23.04 208.816 23.76 209.243 24.24C209.683 24.7067 210.303 24.94 211.103 24.94C211.996 24.94 212.703 24.6667 213.223 24.12C213.756 23.56 214.023 22.76 214.023 21.72V16.32H216.523ZM220.116 12.16H222.616V27H220.116V12.16ZM233.165 26.42C232.871 26.66 232.511 26.84 232.085 26.96C231.671 27.08 231.231 27.14 230.765 27.14C229.591 27.14 228.685 26.8333 228.045 26.22C227.405 25.6067 227.085 24.7133 227.085 23.54V18.4H225.325V16.4H227.085V13.96H229.585V16.4H232.445V18.4H229.585V23.48C229.585 24 229.711 24.4 229.965 24.68C230.218 24.9467 230.585 25.08 231.065 25.08C231.625 25.08 232.091 24.9333 232.465 24.64L233.165 26.42ZM238.841 27.14C237.975 27.14 237.128 27.0267 236.301 26.8C235.475 26.5733 234.815 26.2867 234.321 25.94L235.281 24.04C235.761 24.36 236.335 24.62 237.001 24.82C237.681 25.0067 238.348 25.1 239.001 25.1C240.495 25.1 241.241 24.7067 241.241 23.92C241.241 23.5467 241.048 23.2867 240.661 23.14C240.288 22.9933 239.681 22.8533 238.841 22.72C237.961 22.5867 237.241 22.4333 236.681 22.26C236.135 22.0867 235.655 21.7867 235.241 21.36C234.841 20.92 234.641 20.3133 234.641 19.54C234.641 18.5267 235.061 17.72 235.901 17.12C236.755 16.5067 237.901 16.2 239.341 16.2C240.075 16.2 240.808 16.2867 241.541 16.46C242.275 16.62 242.875 16.84 243.341 17.12L242.381 19.02C241.475 18.4867 240.455 18.22 239.321 18.22C238.588 18.22 238.028 18.3333 237.641 18.56C237.268 18.7733 237.081 19.06 237.081 19.42C237.081 19.82 237.281 20.1067 237.681 20.28C238.095 20.44 238.728 20.5933 239.581 20.74C240.435 20.8733 241.135 21.0267 241.681 21.2C242.228 21.3733 242.695 21.6667 243.081 22.08C243.481 22.4933 243.681 23.08 243.681 23.84C243.681 24.84 243.248 25.64 242.381 26.24C241.515 26.84 240.335 27.14 238.841 27.14Z" fill="#53494C"/>
</svg>
