<svg width="32" height="33" viewBox="0 0 32 33" fill="none" xmlns="http://www.w3.org/2000/svg">
<path d="M0 7.23789C0 3.70327 2.86538 0.837891 6.4 0.837891H19.2C26.2692 0.837891 32 6.56865 32 13.6379V26.4379C32 29.9725 29.1346 32.8379 25.6 32.8379H0V7.23789Z" fill="#F6E7EC"/>
<path fill-rule="evenodd" clip-rule="evenodd" d="M17.6205 15.2171C18.0475 14.3231 18.2866 13.3222 18.2866 12.2653C18.2866 8.47825 15.2165 5.4082 11.4294 5.4082C7.6423 5.4082 4.57227 8.47825 4.57227 12.2653V16.8368V28.2654H16.0008H20.5723C24.3594 28.2654 27.4294 25.1953 27.4294 21.4082C27.4294 17.6211 24.3594 14.5511 20.5723 14.5511C19.5155 14.5511 18.5145 14.7901 17.6205 15.2171Z" fill="#25262A"/>
</svg>
