<svg width="24" height="24" viewBox="0 0 24 24" fill="none" xmlns="http://www.w3.org/2000/svg">
<path d="M12.7668 14.4999C12.7502 14.4487 12.7248 14.4008 12.6918 14.3583L12.5918 14.2333C12.5144 14.1552 12.4222 14.0932 12.3206 14.0509C12.2191 14.0085 12.1102 13.9868 12.0002 13.9868C11.8902 13.9868 11.7812 14.0085 11.6797 14.0509C11.5781 14.0932 11.486 14.1552 11.4085 14.2333C11.3688 14.2694 11.335 14.3116 11.3085 14.3583C11.2755 14.4008 11.2501 14.4487 11.2335 14.4999C11.2094 14.5501 11.1925 14.6034 11.1835 14.6583C11.1794 14.711 11.1794 14.7639 11.1835 14.8166C11.1806 14.9286 11.2034 15.0398 11.2502 15.1416C11.335 15.3443 11.4964 15.5052 11.6992 15.5895C11.9021 15.6738 12.1301 15.6745 12.3335 15.5916C12.4348 15.5463 12.5277 15.4843 12.6085 15.4083C12.6835 15.3315 12.7429 15.2409 12.7835 15.1416C12.8273 15.0388 12.85 14.9283 12.8502 14.8166C12.8543 14.7639 12.8543 14.711 12.8502 14.6583C12.8307 14.6015 12.8026 14.5481 12.7668 14.4999ZM12.0002 8.13327C11.7792 8.13327 11.5672 8.22106 11.4109 8.37734C11.2546 8.53362 11.1668 8.74558 11.1668 8.9666V11.4666C11.1668 11.6876 11.2546 11.8996 11.4109 12.0559C11.5672 12.2121 11.7792 12.2999 12.0002 12.2999C12.2212 12.2999 12.4331 12.2121 12.5894 12.0559C12.7457 11.8996 12.8335 11.6876 12.8335 11.4666V8.9666C12.8335 8.74558 12.7457 8.53362 12.5894 8.37734C12.4331 8.22106 12.2212 8.13327 12.0002 8.13327ZM18.3585 5.0416C18.2617 4.96328 18.1486 4.90766 18.0274 4.87882C17.9063 4.84997 17.7802 4.84865 17.6585 4.87493C16.768 5.06155 15.8488 5.06393 14.9574 4.88192C14.0659 4.69991 13.2212 4.33736 12.4752 3.8166C12.3357 3.71983 12.1699 3.66797 12.0002 3.66797C11.8304 3.66797 11.6647 3.71983 11.5252 3.8166C10.7791 4.33736 9.9344 4.69991 9.04297 4.88192C8.15155 5.06393 7.2323 5.06155 6.34183 4.87493C6.22012 4.84865 6.09406 4.84997 5.97292 4.87882C5.85178 4.90766 5.73865 4.96328 5.64183 5.0416C5.54515 5.12003 5.46727 5.21913 5.41391 5.33161C5.36055 5.44409 5.33308 5.5671 5.3335 5.6916V11.8999C5.33276 13.0947 5.61748 14.2724 6.16395 15.3349C6.71041 16.3974 7.50282 17.314 8.47517 18.0083L11.5168 20.1749C11.658 20.2754 11.8269 20.3294 12.0002 20.3294C12.1734 20.3294 12.3424 20.2754 12.4835 20.1749L15.5252 18.0083C16.4975 17.314 17.2899 16.3974 17.8364 15.3349C18.3829 14.2724 18.6676 13.0947 18.6668 11.8999V5.6916C18.6673 5.5671 18.6398 5.44409 18.5864 5.33161C18.5331 5.21913 18.4552 5.12003 18.3585 5.0416ZM17.0002 11.8999C17.0008 12.8289 16.7796 13.7446 16.3549 14.5708C15.9302 15.397 15.3143 16.1098 14.5585 16.6499L12.0002 18.4749L9.44183 16.6499C8.68603 16.1098 8.07015 15.397 7.64546 14.5708C7.22076 13.7446 6.99953 12.8289 7.00017 11.8999V6.64993C8.74719 6.79946 10.4969 6.39412 12.0002 5.4916C13.5035 6.39412 15.2531 6.79946 17.0002 6.64993V11.8999Z" fill="#C00B0B" fill-opacity="0.5"/>
</svg>
