<svg width="24" height="24" viewBox="0 0 24 24" fill="none" xmlns="http://www.w3.org/2000/svg">
<mask id="mask0" mask-type="alpha" maskUnits="userSpaceOnUse" x="0" y="0" width="24" height="24">
<rect width="24" height="24" fill="#C4C4C4"/>
</mask>
<g mask="url(#mask0)">
<path d="M20.9938 12.0331C20.9998 10.5308 20.6296 9.05095 19.9169 7.72851C19.2041 6.40607 18.1716 5.28315 16.9135 4.4622C15.6554 3.64126 14.2117 3.14841 12.7142 3.02864C11.2167 2.90887 9.7131 3.16598 8.34049 3.77652C6.96788 4.38706 5.77 5.33158 4.85614 6.52392C3.94228 7.71626 3.34153 9.11846 3.10871 10.6026C2.87588 12.0867 3.0184 13.6055 3.52324 15.0204C4.02808 16.4353 4.87919 17.7013 5.99891 18.7028L6.07088 18.7568C6.2299 18.901 6.39605 19.0371 6.56871 19.1646L6.74265 19.2966C6.91059 19.4165 7.07854 19.5305 7.25248 19.6385L7.45641 19.7644C7.63035 19.8664 7.80429 19.9564 7.97823 20.0463L8.20615 20.1543C8.38209 20.2383 8.56203 20.3162 8.74597 20.3882L8.97389 20.4722C9.15983 20.5382 9.34576 20.6041 9.5377 20.6581L9.76562 20.7121C9.95755 20.7661 10.1555 20.8141 10.3654 20.8501L10.5753 20.88C10.7853 20.916 10.9892 20.946 11.1751 20.964H11.2471C11.493 20.964 11.7389 21 11.9849 21C12.2308 21 12.4827 21 12.7286 20.964H12.7946C13.0045 20.964 13.2144 20.916 13.3944 20.88L13.5923 20.8501C13.7962 20.8141 13.9942 20.7661 14.1921 20.7121L14.402 20.6581C14.6 20.6041 14.7919 20.5382 15.0018 20.4722L15.2178 20.3882C15.4037 20.3162 15.5896 20.2383 15.7696 20.1543L15.9855 20.0523C16.1654 19.9624 16.3394 19.8664 16.5133 19.7644L16.7113 19.6445C16.8912 19.5305 17.0591 19.4165 17.2271 19.2966L17.401 19.1706C17.569 19.0387 17.7369 18.9007 17.8988 18.7568C17.9242 18.7407 17.9483 18.7227 17.9708 18.7028C18.9142 17.8651 19.6708 16.8384 20.1916 15.6894C20.7124 14.5403 20.9857 13.2946 20.9938 12.0331ZM4.19952 12.0331C4.19729 10.7663 4.50373 9.51807 5.09232 8.39636C5.68092 7.27465 6.53394 6.31323 7.5776 5.59527C8.62126 4.87732 9.82413 4.42445 11.0821 4.27585C12.3402 4.12725 13.6154 4.28738 14.7977 4.7424C15.9799 5.19742 17.0334 5.93363 17.8672 6.88733C18.7009 7.84102 19.2898 8.98349 19.5828 10.2159C19.8757 11.4483 19.8641 12.7336 19.5487 13.9604C19.2334 15.1873 18.6238 16.3189 17.7729 17.2573C17.2028 16.2246 16.3662 15.3636 15.3504 14.764C14.3345 14.1645 13.1765 13.8482 11.9969 13.8482C10.8173 13.8482 9.65922 14.1645 8.64335 14.764C7.62748 15.3636 6.79094 16.2246 6.22083 17.2573C4.92321 15.8264 4.20292 13.9647 4.19952 12.0331ZM14.504 19.4105L14.0062 19.5605L13.8382 19.6025L13.3464 19.7044L13.1605 19.7344C12.9925 19.7344 12.8246 19.7824 12.6566 19.7944H12.5487C12.1834 19.8244 11.8163 19.8244 11.451 19.7944H11.3371C11.1691 19.7944 11.0012 19.7584 10.8333 19.7344L10.6473 19.7044L10.1555 19.6025L9.98155 19.5545C9.8196 19.5125 9.65166 19.4645 9.48971 19.4105L9.35776 19.3626L8.84194 19.1586C8.22835 18.8881 7.6535 18.5372 7.13252 18.115C7.57189 17.1958 8.2624 16.4197 9.12425 15.8765C9.98609 15.3332 10.9841 15.0449 12.0029 15.0449C13.0216 15.0449 14.0196 15.3332 14.8815 15.8765C15.7433 16.4197 16.4338 17.1958 16.8732 18.115C16.2036 18.6529 15.4497 19.0764 14.642 19.3686L14.504 19.4105Z" fill="url(#paint0_linear)"/>
<path d="M11.9972 12.6321C12.709 12.6321 13.4048 12.4211 13.9966 12.0256C14.5884 11.6302 15.0497 11.0681 15.322 10.4105C15.5944 9.75294 15.6657 9.02935 15.5268 8.33126C15.388 7.63316 15.0452 6.99193 14.5419 6.48863C14.0386 5.98533 13.3974 5.64258 12.6993 5.50372C12.0012 5.36486 11.2776 5.43613 10.62 5.70851C9.96243 5.98089 9.40038 6.44216 9.00494 7.03397C8.6095 7.62579 8.39844 8.32157 8.39844 9.03334C8.39844 9.9878 8.77759 10.9032 9.45249 11.5781C10.1274 12.253 11.0428 12.6321 11.9972 12.6321ZM11.9972 6.63416C12.4717 6.63416 12.9356 6.77487 13.3301 7.0385C13.7247 7.30212 14.0322 7.67682 14.2138 8.11522C14.3954 8.55361 14.4429 9.03601 14.3503 9.5014C14.2577 9.9668 14.0292 10.3943 13.6937 10.7298C13.3582 11.0654 12.9307 11.2939 12.4653 11.3864C11.9999 11.479 11.5175 11.4315 11.0791 11.2499C10.6407 11.0683 10.266 10.7608 10.0024 10.3663C9.73874 9.97171 9.59803 9.50786 9.59803 9.03334C9.59803 8.39704 9.8508 7.7868 10.3007 7.33687C10.7507 6.88693 11.3609 6.63416 11.9972 6.63416Z" fill="url(#paint1_linear)"/>
</g>
<defs>
<linearGradient id="paint0_linear" x1="28.5339" y1="40.6874" x2="-11.9268" y2="38.6596" gradientUnits="userSpaceOnUse">
<stop stop-color="#E6D197"/>
<stop stop-color="#FAF5BD"/>
<stop offset="0.129569" stop-color="#E8D696"/>
<stop offset="0.28783" stop-color="#CDB575"/>
<stop offset="0.440477" stop-color="#D0B26B"/>
<stop offset="0.607885" stop-color="#D0AB5E"/>
<stop offset="0.963917" stop-color="#C1913D"/>
</linearGradient>
<linearGradient id="paint1_linear" x1="18.612" y1="20.5044" x2="2.42773" y2="19.693" gradientUnits="userSpaceOnUse">
<stop stop-color="#E6D197"/>
<stop stop-color="#FAF5BD"/>
<stop offset="0.129569" stop-color="#E8D696"/>
<stop offset="0.28783" stop-color="#CDB575"/>
<stop offset="0.440477" stop-color="#D0B26B"/>
<stop offset="0.607885" stop-color="#D0AB5E"/>
<stop offset="0.963917" stop-color="#C1913D"/>
</linearGradient>
</defs>
</svg>
