<svg width="24" height="24" viewBox="0 0 24 24" fill="none" xmlns="http://www.w3.org/2000/svg">
<path d="M12.0002 12.8332C11.7791 12.8332 11.5672 12.921 11.4109 13.0772C11.2546 13.2335 11.1668 13.4455 11.1668 13.6665V16.1665C11.1668 16.3875 11.2546 16.5995 11.4109 16.7558C11.5672 16.912 11.7791 16.9998 12.0002 16.9998C12.2212 16.9998 12.4331 16.912 12.5894 16.7558C12.7457 16.5995 12.8335 16.3875 12.8335 16.1665V13.6665C12.8335 13.4455 12.7457 13.2335 12.5894 13.0772C12.4331 12.921 12.2212 12.8332 12.0002 12.8332ZM16.1668 9.49984V7.83317C16.1668 6.7281 15.7278 5.66829 14.9464 4.88689C14.165 4.10549 13.1052 3.6665 12.0002 3.6665C10.8951 3.6665 9.83529 4.10549 9.05388 4.88689C8.27248 5.66829 7.8335 6.7281 7.8335 7.83317V9.49984C7.17045 9.49984 6.53457 9.76323 6.06573 10.2321C5.59689 10.7009 5.3335 11.3368 5.3335 11.9998V17.8332C5.3335 18.4962 5.59689 19.1321 6.06573 19.6009C6.53457 20.0698 7.17045 20.3332 7.8335 20.3332H16.1668C16.8299 20.3332 17.4658 20.0698 17.9346 19.6009C18.4034 19.1321 18.6668 18.4962 18.6668 17.8332V11.9998C18.6668 11.3368 18.4034 10.7009 17.9346 10.2321C17.4658 9.76323 16.8299 9.49984 16.1668 9.49984ZM9.50016 7.83317C9.50016 7.17013 9.76355 6.53424 10.2324 6.0654C10.7012 5.59656 11.3371 5.33317 12.0002 5.33317C12.6632 5.33317 13.2991 5.59656 13.7679 6.0654C14.2368 6.53424 14.5002 7.17013 14.5002 7.83317V9.49984H9.50016V7.83317ZM17.0002 17.8332C17.0002 18.0542 16.9124 18.2661 16.7561 18.4224C16.5998 18.5787 16.3878 18.6665 16.1668 18.6665H7.8335C7.61248 18.6665 7.40052 18.5787 7.24424 18.4224C7.08796 18.2661 7.00016 18.0542 7.00016 17.8332V11.9998C7.00016 11.7788 7.08796 11.5669 7.24424 11.4106C7.40052 11.2543 7.61248 11.1665 7.8335 11.1665H16.1668C16.3878 11.1665 16.5998 11.2543 16.7561 11.4106C16.9124 11.5669 17.0002 11.7788 17.0002 11.9998V17.8332Z" fill="#C00B0B" fill-opacity="0.5"/>
</svg>
