<svg width="24" height="24" viewBox="0 0 24 24" fill="none" xmlns="http://www.w3.org/2000/svg">
<path d="M15.4998 11.3115C15.3451 11.3115 15.1968 11.373 15.0874 11.4824C14.978 11.5918 14.9165 11.7401 14.9165 11.8948V16.0832C14.9165 16.2379 14.855 16.3863 14.7457 16.4957C14.6363 16.605 14.4879 16.6665 14.3332 16.6665H7.9165C7.76179 16.6665 7.61342 16.605 7.50403 16.4957C7.39463 16.3863 7.33317 16.2379 7.33317 16.0832V9.6665C7.33317 9.51179 7.39463 9.36342 7.50403 9.25403C7.61342 9.14463 7.76179 9.08317 7.9165 9.08317H12.1048C12.2595 9.08317 12.4079 9.02171 12.5173 8.91232C12.6267 8.80292 12.6882 8.65455 12.6882 8.49984C12.6882 8.34513 12.6267 8.19675 12.5173 8.08736C12.4079 7.97796 12.2595 7.9165 12.1048 7.9165H7.9165C7.45238 7.9165 7.00726 8.10088 6.67907 8.42907C6.35088 8.75726 6.1665 9.20238 6.1665 9.6665V16.0832C6.1665 16.5473 6.35088 16.9924 6.67907 17.3206C7.00726 17.6488 7.45238 17.8332 7.9165 17.8332H14.3332C14.7973 17.8332 15.2424 17.6488 15.5706 17.3206C15.8988 16.9924 16.0832 16.5473 16.0832 16.0832V11.8948C16.0832 11.7401 16.0217 11.5918 15.9123 11.4824C15.8029 11.373 15.6545 11.3115 15.4998 11.3115ZM17.7865 6.52817C17.7273 6.38563 17.614 6.27236 17.4715 6.21317C17.4014 6.18328 17.3261 6.16743 17.2498 6.1665H13.7498C13.5951 6.1665 13.4468 6.22796 13.3374 6.33736C13.228 6.44675 13.1665 6.59513 13.1665 6.74984C13.1665 6.90455 13.228 7.05292 13.3374 7.16232C13.4468 7.27171 13.5951 7.33317 13.7498 7.33317H15.844L9.83567 13.3357C9.781 13.3899 9.7376 13.4544 9.70798 13.5255C9.67837 13.5966 9.66312 13.6728 9.66312 13.7498C9.66312 13.8268 9.67837 13.9031 9.70798 13.9742C9.7376 14.0453 9.781 14.1098 9.83567 14.164C9.8899 14.2187 9.95442 14.2621 10.0255 14.2917C10.0966 14.3213 10.1728 14.3366 10.2498 14.3366C10.3268 14.3366 10.4031 14.3213 10.4742 14.2917C10.5453 14.2621 10.6098 14.2187 10.664 14.164L16.6665 8.15567V10.2498C16.6665 10.4045 16.728 10.5529 16.8374 10.6623C16.9468 10.7717 17.0951 10.8332 17.2498 10.8332C17.4045 10.8332 17.5529 10.7717 17.6623 10.6623C17.7717 10.5529 17.8332 10.4045 17.8332 10.2498V6.74984C17.8322 6.67361 17.8164 6.5983 17.7865 6.52817Z" fill="#004830"/>
</svg>
