<svg width="18" height="18" viewBox="0 0 18 18" fill="none" xmlns="http://www.w3.org/2000/svg">
<path d="M5.67699 7.99395L12.323 4.67195M12.323 13.3259L5.67699 10.0039M5.91699 8.99894C5.91699 10.2416 4.90963 11.2489 3.66699 11.2489C2.42435 11.2489 1.41699 10.2416 1.41699 8.99894C1.41699 7.7563 2.42435 6.74894 3.66699 6.74894C4.90963 6.74894 5.91699 7.7563 5.91699 8.99894ZM16.583 3.66895C16.583 4.91159 15.5756 5.91894 14.333 5.91894C13.0904 5.91894 12.083 4.91159 12.083 3.66895C12.083 2.4263 13.0904 1.41895 14.333 1.41895C15.5756 1.41895 16.583 2.4263 16.583 3.66895ZM16.583 14.3309C16.583 15.5736 15.5756 16.5809 14.333 16.5809C13.0904 16.5809 12.083 15.5736 12.083 14.3309C12.083 13.0883 13.0904 12.0809 14.333 12.0809C15.5756 12.0809 16.583 13.0883 16.583 14.3309Z" stroke="#FF95A2" stroke-width="1.5" stroke-miterlimit="10" stroke-linecap="round" stroke-linejoin="round"/>
</svg>
