<svg width="104" height="83" viewBox="0 0 104 83" fill="none" xmlns="http://www.w3.org/2000/svg">
<path d="M91.5652 14.4348H80.713L74.7217 5.41304C72.4609 2.02989 68.5043 0 64.4348 0H39.5652C35.4957 0 31.5391 2.02989 29.2783 5.41304L23.287 14.4348H12.4348C5.53913 14.4348 0 19.9606 0 26.8397V70.5951C0 77.4742 5.53913 83 12.4348 83H91.5652C98.4609 83 104 77.4742 104 70.5951V26.8397C104 19.9606 98.4609 14.4348 91.5652 14.4348ZM52 72.8505C36.513 72.8505 23.9652 60.3329 23.9652 44.8832C23.9652 29.4334 36.513 17.0285 52 17.0285C67.487 17.0285 80.0348 29.5462 80.0348 44.9959C80.0348 60.3329 67.487 72.8505 52 72.8505ZM89.9826 31.9144C89.8696 31.9144 89.7565 31.9144 89.5304 31.9144H85.0087C82.9739 31.8016 81.3913 30.1101 81.5043 28.0802C81.6174 26.163 83.087 24.697 85.0087 24.5842H89.5304C91.5652 24.4715 93.2609 26.0503 93.3739 28.0802C93.487 30.1101 92.0174 31.8016 89.9826 31.9144Z" fill="#CFE3F0"/>
<path d="M51.9996 29.0742C43.2431 29.0742 36.0996 36.2177 36.0996 44.9742C36.0996 53.7307 43.2431 60.759 51.9996 60.759C60.7561 60.759 67.8996 53.6155 67.8996 44.859C67.8996 36.1025 60.7561 29.0742 51.9996 29.0742Z" fill="#CFE3F0"/>
</svg>
