<svg width="27" height="35" viewBox="0 0 27 35" fill="none" xmlns="http://www.w3.org/2000/svg">
<path d="M25.2657 14.3432H22.8112V9.15492C22.8112 8.79117 22.7902 8.44121 22.7552 8.0912C22.2028 3.47942 18.2238 0 13.4965 0C8.76922 0 4.79019 3.47942 4.24476 8.09807C4.20281 8.43434 4.18181 8.79117 4.18181 9.15492V14.3432H1.73425C0.776214 14.3432 0 15.1118 0 16.052V33.2981C0 34.2382 0.776214 35 1.73425 35H25.2657C26.2238 35 27 34.2382 27 33.2981V16.052C27 15.1118 26.2238 14.3432 25.2657 14.3432ZM14.5455 26.202V28.5628C14.5455 29.1324 14.0769 29.5922 13.4965 29.5922C12.9161 29.5922 12.4475 29.1324 12.4475 28.5628V26.202C11.2797 25.7833 10.4476 24.6853 10.4476 23.3951C10.4476 21.748 11.8182 20.4098 13.4965 20.4098C15.1748 20.4098 16.5454 21.748 16.5454 23.3951C16.5454 24.6853 15.7133 25.7833 14.5455 26.202ZM20.014 14.3432H6.97901V9.15492C6.97901 8.89413 6.99301 8.64021 7.02097 8.40686C7.40557 5.18141 10.1888 2.7451 13.4965 2.7451C16.8042 2.7451 19.5874 5.18141 19.972 8.40004C20 8.64021 20.014 8.89413 20.014 9.15492V14.3432Z" fill="white"/>
</svg>
