<svg width="32" height="32" viewBox="0 0 32 32" fill="none" xmlns="http://www.w3.org/2000/svg">
<rect opacity="0.7" width="32" height="32" rx="8" fill="#355C7D"/>
<path fill-rule="evenodd" clip-rule="evenodd" d="M13.6 9.45455C13.6 9.00268 13.9582 8.63636 14.4 8.63636H17.6C18.0418 8.63636 18.4 9.00268 18.4 9.45455V10.2727H13.6V9.45455ZM12 10.2727V9.45455C12 8.09894 13.0745 7 14.4 7H17.6C18.9255 7 20 8.09894 20 9.45455V10.2727H21.6H23.2C23.6418 10.2727 24 10.639 24 11.0909C24 11.5428 23.6418 11.9091 23.2 11.9091H22.4V22.5455C22.4 23.9011 21.3255 25 20 25H12C10.6745 25 9.6 23.9011 9.6 22.5455V11.9091H8.8C8.35817 11.9091 8 11.5428 8 11.0909C8 10.639 8.35817 10.2727 8.8 10.2727H10.4H12ZM11.2 11.9091H12.8H19.2H20.8V22.5455C20.8 22.9973 20.4418 23.3636 20 23.3636H12C11.5582 23.3636 11.2 22.9973 11.2 22.5455V11.9091ZM15.2 15.1818C15.2 14.7299 14.8418 14.3636 14.4 14.3636C13.9582 14.3636 13.6 14.7299 13.6 15.1818V20.0909C13.6 20.5428 13.9582 20.9091 14.4 20.9091C14.8418 20.9091 15.2 20.5428 15.2 20.0909V15.1818ZM17.6 14.3636C18.0418 14.3636 18.4 14.7299 18.4 15.1818V20.0909C18.4 20.5428 18.0418 20.9091 17.6 20.9091C17.1582 20.9091 16.8 20.5428 16.8 20.0909V15.1818C16.8 14.7299 17.1582 14.3636 17.6 14.3636Z" fill="white"/>
</svg>
