<svg width="19" height="22" viewBox="0 0 19 22" fill="none" xmlns="http://www.w3.org/2000/svg">
<path d="M15.1026 0.95C13.2431 0.95 11.7192 2.47388 11.7192 4.33333C11.7192 4.6792 11.7716 5.01938 11.8695 5.33513L6.42979 8.35982C5.85219 7.8999 5.12471 7.61667 4.33333 7.61667C2.47389 7.61667 0.95 9.14054 0.95 11C0.95 12.8594 2.47389 14.3833 4.33333 14.3833C5.12438 14.3833 5.85193 14.1081 6.4298 13.6482L11.8774 16.6729C11.7787 16.9878 11.7192 17.3191 11.7192 17.6667C11.7192 19.5261 13.2431 21.05 15.1026 21.05C16.962 21.05 18.4859 19.5261 18.4859 17.6667C18.4859 15.8072 16.962 14.2833 15.1026 14.2833C14.182 14.2833 13.3418 14.6625 12.7302 15.2649L7.44221 12.3245C7.61671 11.9178 7.71667 11.4685 7.71667 11C7.71667 10.529 7.61847 10.0836 7.44229 9.67539L12.7221 6.73515C13.3346 7.34226 14.1782 7.71667 15.1026 7.71667C16.962 7.71667 18.4859 6.19279 18.4859 4.33333C18.4859 2.47388 16.962 0.95 15.1026 0.95ZM15.1026 2.58846C16.0753 2.58846 16.8474 3.36056 16.8474 4.33333C16.8474 5.30611 16.0753 6.07821 15.1026 6.07821C14.1298 6.07821 13.3577 5.30611 13.3577 4.33333C13.3577 3.36056 14.1298 2.58846 15.1026 2.58846ZM4.33333 9.25513C5.3061 9.25513 6.07821 10.0272 6.07821 11C6.07821 11.9728 5.3061 12.7449 4.33333 12.7449C3.36057 12.7449 2.58846 11.9728 2.58846 11C2.58846 10.0272 3.36057 9.25513 4.33333 9.25513ZM15.1026 15.9218C16.0753 15.9218 16.8474 16.6939 16.8474 17.6667C16.8474 18.6394 16.0753 19.4115 15.1026 19.4115C14.1298 19.4115 13.3577 18.6394 13.3577 17.6667C13.3577 16.6939 14.1298 15.9218 15.1026 15.9218Z" fill="#355C7D" stroke="#355C7D" stroke-width="0.1"/>
</svg>
