<svg width="16" height="16" viewBox="0 0 16 16" fill="none" xmlns="http://www.w3.org/2000/svg">
<path d="M6.66667 2.66667C6.66667 2.29848 6.96514 2 7.33333 2H8.66667C9.03486 2 9.33333 2.29848 9.33333 2.66667V3.04586C9.33333 3.33106 9.52474 3.57883 9.78814 3.68819C10.0516 3.79759 10.3584 3.75589 10.5602 3.55415L10.8284 3.28594C11.0888 3.02559 11.5109 3.02559 11.7712 3.28594L12.714 4.22875C12.9744 4.4891 12.9744 4.91121 12.714 5.17156L12.4458 5.43973C12.2441 5.64149 12.2024 5.94831 12.3118 6.21183C12.4212 6.47525 12.669 6.66667 12.9542 6.66667L13.3333 6.66667C13.7015 6.66667 14 6.96514 14 7.33333V8.66667C14 9.03486 13.7015 9.33333 13.3333 9.33333H12.9542C12.669 9.33333 12.4212 9.52475 12.3118 9.78816C12.2024 10.0517 12.2441 10.3585 12.4458 10.5602L12.714 10.8284C12.9744 11.0888 12.9744 11.5109 12.714 11.7712L11.7712 12.714C11.5109 12.9744 11.0888 12.9744 10.8284 12.714L10.5602 12.4458C10.3585 12.2441 10.0517 12.2024 9.78816 12.3118C9.52475 12.4212 9.33333 12.6689 9.33333 12.9542V13.3333C9.33333 13.7015 9.03486 14 8.66667 14H7.33333C6.96514 14 6.66667 13.7015 6.66667 13.3333V12.9542C6.66667 12.669 6.47524 12.4212 6.21183 12.3118C5.94831 12.2024 5.64149 12.2441 5.43973 12.4458L5.17155 12.714C4.9112 12.9744 4.48909 12.9744 4.22874 12.714L3.28593 11.7712C3.02558 11.5109 3.02558 11.0888 3.28593 10.8284L3.55415 10.5602C3.75589 10.3584 3.79759 10.0516 3.68819 9.78814C3.57883 9.52474 3.33106 9.33333 3.04586 9.33333H2.66667C2.29848 9.33333 2 9.03486 2 8.66667V7.33333C2 6.96514 2.29848 6.66667 2.66667 6.66667L3.04584 6.66667C3.33105 6.66667 3.57883 6.47525 3.6882 6.21184C3.7976 5.94834 3.7559 5.64152 3.55415 5.43977L3.28594 5.17156C3.02559 4.91121 3.02559 4.4891 3.28594 4.22875L4.22875 3.28594C4.4891 3.02559 4.91121 3.02559 5.17156 3.28594L5.43977 3.55415C5.64152 3.7559 5.94833 3.7976 6.21184 3.6882C6.47525 3.57883 6.66667 3.33105 6.66667 3.04584V2.66667Z" stroke="#EEEEEE"/>
<path d="M9.33333 8C9.33333 8.73638 8.73638 9.33333 8 9.33333C7.26362 9.33333 6.66667 8.73638 6.66667 8C6.66667 7.26362 7.26362 6.66667 8 6.66667C8.73638 6.66667 9.33333 7.26362 9.33333 8Z" stroke="#EEEEEE"/>
</svg>
