<svg width="218" height="45" viewBox="0 0 218 45" fill="none" xmlns="http://www.w3.org/2000/svg">
<path d="M26.0667 45C25.8925 45 25.7183 44.9607 25.5578 44.8823C25.2566 44.7352 18.1007 41.2115 11.3856 35.2122C2.31848 27.1113 -1.4461 18.3949 0.499009 10.005C0.644592 9.37703 1.26914 8.98655 1.89568 9.13263C2.52156 9.27866 2.91078 9.9059 2.7652 10.5338C-1.15759 27.4541 22.2801 40.5332 26.0667 42.5217C29.8531 40.5332 53.2907 27.4541 49.3681 10.5338C48.3496 6.14047 44.5276 2.9532 39.6316 2.41399C35.393 1.94648 29.8814 3.51009 27.1157 9.29502C26.9222 9.69987 26.5144 9.95729 26.067 9.95729C25.6196 9.95729 25.2118 9.69987 25.018 9.29502C23.2324 5.56055 19.88 3.07458 15.8202 2.47435C11.7539 1.87345 7.65326 3.23332 5.11517 6.02376C4.68173 6.49994 3.94616 6.53361 3.47185 6.0991C2.99721 5.66458 2.96363 4.92629 3.39673 4.45046C6.4497 1.09481 11.3397 -0.546164 16.1593 0.165448C20.2905 0.776352 23.8061 3.0239 26.0686 6.43592C29.0731 1.92814 34.2908 -0.521821 39.8855 0.0937539C45.7774 0.742674 50.3891 4.6332 51.6345 10.0053C53.5798 18.3953 49.8146 27.1117 40.7481 35.2125C34.0333 41.2118 26.8773 44.7356 26.5759 44.8826C26.415 44.9607 26.2408 45 26.0667 45Z" fill="#FEFEFE"/>
<path d="M25.9999 37C25.8997 37 25.7995 36.9781 25.7071 36.9346C25.5338 36.8529 21.416 34.8953 17.5518 31.5623C12.3342 27.0619 10.1678 22.2194 11.2872 17.5583C11.3709 17.2095 11.7303 16.9925 12.0909 17.0737C12.451 17.1548 12.675 17.5033 12.5912 17.8521C10.3339 27.2523 23.821 34.5185 25.9999 35.6232C28.1789 34.5185 41.6659 27.2523 39.4086 17.8521C38.8225 15.4114 36.6232 13.6407 33.8058 13.3411C31.3667 13.0814 28.1951 13.9501 26.6036 17.1639C26.4923 17.3888 26.2576 17.5318 26.0001 17.5318C25.7427 17.5318 25.508 17.3888 25.3965 17.1639C24.369 15.0892 22.4398 13.7081 20.1037 13.3746C17.7637 13.0408 15.404 13.7963 13.9435 15.3465C13.6941 15.6111 13.2708 15.6298 12.9979 15.3884C12.7247 15.147 12.7054 14.7368 12.9546 14.4725C14.7114 12.6082 17.5254 11.6966 20.2988 12.0919C22.6761 12.4313 24.6991 13.6799 26.0011 15.5755C27.73 13.0712 30.7325 11.7101 33.9519 12.0521C37.3424 12.4126 39.9961 14.574 40.7128 17.5585C41.8323 22.2196 39.6656 27.062 34.4483 31.5625C30.5843 34.8955 26.4664 36.8531 26.293 36.9348C26.2004 36.9781 26.1002 37 25.9999 37Z" fill="url(#paint0_linear)"/>
<path d="M58.5225 29V10.826H61.5905V26.088H69.8845V29H58.5225Z" fill="url(#paint1_linear)"/>
<path d="M76.057 25.36C76.889 26.192 77.9377 26.608 79.203 26.608C80.4684 26.608 81.5084 26.192 82.323 25.36C83.155 24.5107 83.571 23.4187 83.571 22.084C83.571 20.7493 83.155 19.666 82.323 18.834C81.5084 17.9847 80.4684 17.56 79.203 17.56C77.9377 17.56 76.889 17.9847 76.057 18.834C75.2424 19.666 74.835 20.7493 74.835 22.084C74.835 23.4187 75.2424 24.5107 76.057 25.36ZM84.403 27.154C83.0164 28.5233 81.283 29.208 79.203 29.208C77.123 29.208 75.3897 28.5233 74.003 27.154C72.6164 25.7673 71.923 24.0773 71.923 22.084C71.923 20.0907 72.6164 18.4093 74.003 17.04C75.3897 15.6533 77.123 14.96 79.203 14.96C81.283 14.96 83.0164 15.6533 84.403 17.04C85.7897 18.4093 86.483 20.0907 86.483 22.084C86.483 24.0773 85.7897 25.7673 84.403 27.154Z" fill="url(#paint2_linear)"/>
<path d="M93.46 29L87.896 15.168H90.912L95.124 25.62L99.336 15.168H102.352L96.788 29H93.46Z" fill="url(#paint3_linear)"/>
<path d="M117.543 23.358H106.701C106.77 24.3633 107.23 25.178 108.079 25.802C108.928 26.4087 109.899 26.712 110.991 26.712C112.724 26.712 114.042 26.166 114.943 25.074L116.607 26.894C115.116 28.4367 113.175 29.208 110.783 29.208C108.842 29.208 107.186 28.5667 105.817 27.284C104.465 25.984 103.789 24.2507 103.789 22.084C103.789 19.9 104.482 18.1667 105.869 16.884C107.256 15.6013 108.885 14.96 110.757 14.96C112.646 14.96 114.25 15.532 115.567 16.676C116.884 17.8027 117.543 19.3627 117.543 21.356V23.358ZM106.701 21.07H114.631C114.631 19.9087 114.267 19.016 113.539 18.392C112.811 17.768 111.91 17.456 110.835 17.456C109.778 17.456 108.824 17.7853 107.975 18.444C107.126 19.0853 106.701 19.9607 106.701 21.07Z" fill="url(#paint4_linear)"/>
<path d="M123.657 29H120.745V15.168H123.657V29ZM120.927 12.412C120.563 12.048 120.381 11.6147 120.381 11.112C120.381 10.6093 120.563 10.176 120.927 9.81199C121.291 9.44799 121.724 9.26599 122.227 9.26599C122.73 9.26599 123.163 9.44799 123.527 9.81199C123.891 10.176 124.073 10.6093 124.073 11.112C124.073 11.6147 123.891 12.048 123.527 12.412C123.163 12.776 122.73 12.958 122.227 12.958C121.724 12.958 121.291 12.776 120.927 12.412Z" fill="url(#paint5_linear)"/>
<path d="M137.734 24.866C137.734 26.1833 137.257 27.2407 136.304 28.038C135.351 28.818 134.129 29.208 132.638 29.208C131.633 29.208 130.584 29.026 129.492 28.662C128.417 28.298 127.464 27.7867 126.632 27.128L128.036 24.866C129.648 26.0793 131.208 26.686 132.716 26.686C133.375 26.686 133.895 26.5387 134.276 26.244C134.657 25.932 134.848 25.542 134.848 25.074C134.848 24.3807 133.929 23.7567 132.092 23.202C131.953 23.15 131.849 23.1153 131.78 23.098C128.903 22.318 127.464 21.018 127.464 19.198C127.464 17.9153 127.958 16.8927 128.946 16.13C129.951 15.35 131.251 14.96 132.846 14.96C134.441 14.96 135.949 15.428 137.37 16.364L136.278 18.522C135.151 17.7767 133.929 17.404 132.612 17.404C131.919 17.404 131.355 17.534 130.922 17.794C130.489 18.0367 130.272 18.4093 130.272 18.912C130.272 19.3627 130.497 19.692 130.948 19.9C131.26 20.056 131.693 20.2033 132.248 20.342C132.82 20.4807 133.323 20.6193 133.756 20.758C134.189 20.8967 134.605 21.0527 135.004 21.226C135.42 21.3993 135.862 21.642 136.33 21.954C137.266 22.578 137.734 23.5487 137.734 24.866Z" fill="url(#paint6_linear)"/>
<path d="M152.238 29H149.586V27.154C148.442 28.5233 146.908 29.208 144.984 29.208C143.546 29.208 142.35 28.8007 141.396 27.986C140.46 27.1713 139.992 26.088 139.992 24.736C139.992 23.3667 140.495 22.344 141.5 21.668C142.506 20.992 143.866 20.654 145.582 20.654H149.352V20.134C149.352 18.2967 148.33 17.378 146.284 17.378C145.002 17.378 143.667 17.846 142.28 18.782L140.98 16.962C142.662 15.6273 144.568 14.96 146.7 14.96C148.33 14.96 149.656 15.376 150.678 16.208C151.718 17.0227 152.238 18.314 152.238 20.082V29ZM149.326 23.852V22.682H146.05C143.953 22.682 142.904 23.3407 142.904 24.658C142.904 25.334 143.164 25.854 143.684 26.218C144.204 26.5647 144.924 26.738 145.842 26.738C146.778 26.738 147.593 26.478 148.286 25.958C148.98 25.438 149.326 24.736 149.326 23.852Z" fill="url(#paint7_linear)"/>
<path d="M159.204 21.512V29H156.292V9.73399H159.204V17.69C159.62 16.8407 160.244 16.1733 161.076 15.688C161.925 15.2027 162.835 14.96 163.806 14.96C165.366 14.96 166.623 15.4367 167.576 16.39C168.547 17.3433 169.032 18.7213 169.032 20.524V29H166.12V21.408C166.12 18.86 165.063 17.586 162.948 17.586C161.943 17.586 161.067 17.924 160.322 18.6C159.577 19.2587 159.204 20.2293 159.204 21.512Z" fill="url(#paint8_linear)"/>
<path d="M185.971 23.358H175.129C175.198 24.3633 175.657 25.178 176.507 25.802C177.356 26.4087 178.327 26.712 179.419 26.712C181.152 26.712 182.469 26.166 183.371 25.074L185.035 26.894C183.544 28.4367 181.603 29.208 179.211 29.208C177.269 29.208 175.614 28.5667 174.245 27.284C172.893 25.984 172.217 24.2507 172.217 22.084C172.217 19.9 172.91 18.1667 174.297 16.884C175.683 15.6013 177.313 14.96 179.185 14.96C181.074 14.96 182.677 15.532 183.995 16.676C185.312 17.8027 185.971 19.3627 185.971 21.356V23.358ZM175.129 21.07H183.059C183.059 19.9087 182.695 19.016 181.967 18.392C181.239 17.768 180.337 17.456 179.263 17.456C178.205 17.456 177.252 17.7853 176.403 18.444C175.553 19.0853 175.129 19.9607 175.129 21.07Z" fill="url(#paint9_linear)"/>
<path d="M200.379 29H197.727V27.154C196.583 28.5233 195.049 29.208 193.125 29.208C191.686 29.208 190.49 28.8007 189.537 27.986C188.601 27.1713 188.133 26.088 188.133 24.736C188.133 23.3667 188.636 22.344 189.641 21.668C190.646 20.992 192.007 20.654 193.723 20.654H197.493V20.134C197.493 18.2967 196.47 17.378 194.425 17.378C193.142 17.378 191.808 17.846 190.421 18.782L189.121 16.962C190.802 15.6273 192.709 14.96 194.841 14.96C196.47 14.96 197.796 15.376 198.819 16.208C199.859 17.0227 200.379 18.314 200.379 20.082V29ZM197.467 23.852V22.682H194.191C192.094 22.682 191.045 23.3407 191.045 24.658C191.045 25.334 191.305 25.854 191.825 26.218C192.345 26.5647 193.064 26.738 193.983 26.738C194.919 26.738 195.734 26.478 196.427 25.958C197.12 25.438 197.467 24.736 197.467 23.852Z" fill="url(#paint10_linear)"/>
<path d="M210.075 29.208C208.324 29.208 206.799 28.5493 205.499 27.232C204.199 25.9147 203.549 24.1813 203.549 22.032C203.549 19.8827 204.216 18.1667 205.551 16.884C206.885 15.6013 208.471 14.96 210.309 14.96C212.163 14.96 213.654 15.74 214.781 17.3V9.70799H217.693V29H214.781V26.92C213.706 28.4453 212.137 29.208 210.075 29.208ZM206.461 22.162C206.461 23.4793 206.885 24.554 207.735 25.386C208.584 26.218 209.581 26.634 210.725 26.634C211.869 26.634 212.839 26.218 213.637 25.386C214.434 24.5367 214.833 23.4533 214.833 22.136C214.833 20.8187 214.434 19.718 213.637 18.834C212.839 17.95 211.86 17.508 210.699 17.508C209.537 17.508 208.541 17.95 207.709 18.834C206.877 19.718 206.461 20.8273 206.461 22.162Z" fill="url(#paint11_linear)"/>
<defs>
<linearGradient id="paint0_linear" x1="41.2983" y1="12" x2="11.5114" y2="12" gradientUnits="userSpaceOnUse">
<stop stop-color="#FBF8D1"/>
<stop stop-color="#E6D197"/>
<stop offset="1" stop-color="#C1913D"/>
</linearGradient>
<linearGradient id="paint1_linear" x1="221.631" y1="5" x2="58.7954" y2="5.00002" gradientUnits="userSpaceOnUse">
<stop stop-color="#FBF8D1"/>
<stop stop-color="#E6D197"/>
<stop offset="1" stop-color="#C1913D"/>
</linearGradient>
<linearGradient id="paint2_linear" x1="221.631" y1="5" x2="58.7954" y2="5.00002" gradientUnits="userSpaceOnUse">
<stop stop-color="#FBF8D1"/>
<stop stop-color="#E6D197"/>
<stop offset="1" stop-color="#C1913D"/>
</linearGradient>
<linearGradient id="paint3_linear" x1="221.631" y1="5" x2="58.7954" y2="5.00002" gradientUnits="userSpaceOnUse">
<stop stop-color="#FBF8D1"/>
<stop stop-color="#E6D197"/>
<stop offset="1" stop-color="#C1913D"/>
</linearGradient>
<linearGradient id="paint4_linear" x1="221.631" y1="5" x2="58.7954" y2="5.00002" gradientUnits="userSpaceOnUse">
<stop stop-color="#FBF8D1"/>
<stop stop-color="#E6D197"/>
<stop offset="1" stop-color="#C1913D"/>
</linearGradient>
<linearGradient id="paint5_linear" x1="221.631" y1="5" x2="58.7954" y2="5.00002" gradientUnits="userSpaceOnUse">
<stop stop-color="#FBF8D1"/>
<stop stop-color="#E6D197"/>
<stop offset="1" stop-color="#C1913D"/>
</linearGradient>
<linearGradient id="paint6_linear" x1="221.631" y1="5" x2="58.7954" y2="5.00002" gradientUnits="userSpaceOnUse">
<stop stop-color="#FBF8D1"/>
<stop stop-color="#E6D197"/>
<stop offset="1" stop-color="#C1913D"/>
</linearGradient>
<linearGradient id="paint7_linear" x1="221.631" y1="5" x2="58.7954" y2="5.00002" gradientUnits="userSpaceOnUse">
<stop stop-color="#FBF8D1"/>
<stop stop-color="#E6D197"/>
<stop offset="1" stop-color="#C1913D"/>
</linearGradient>
<linearGradient id="paint8_linear" x1="221.631" y1="5" x2="58.7954" y2="5.00002" gradientUnits="userSpaceOnUse">
<stop stop-color="#FBF8D1"/>
<stop stop-color="#E6D197"/>
<stop offset="1" stop-color="#C1913D"/>
</linearGradient>
<linearGradient id="paint9_linear" x1="221.631" y1="5" x2="58.7954" y2="5.00002" gradientUnits="userSpaceOnUse">
<stop stop-color="#FBF8D1"/>
<stop stop-color="#E6D197"/>
<stop offset="1" stop-color="#C1913D"/>
</linearGradient>
<linearGradient id="paint10_linear" x1="221.631" y1="5" x2="58.7954" y2="5.00002" gradientUnits="userSpaceOnUse">
<stop stop-color="#FBF8D1"/>
<stop stop-color="#E6D197"/>
<stop offset="1" stop-color="#C1913D"/>
</linearGradient>
<linearGradient id="paint11_linear" x1="221.631" y1="5" x2="58.7954" y2="5.00002" gradientUnits="userSpaceOnUse">
<stop stop-color="#FBF8D1"/>
<stop stop-color="#E6D197"/>
<stop offset="1" stop-color="#C1913D"/>
</linearGradient>
</defs>
</svg>
