<svg width="140" height="140" viewBox="0 0 140 140" fill="none" xmlns="http://www.w3.org/2000/svg">
<circle cx="70" cy="70" r="70" fill="#FAF8FF"/>
<path d="M82.8953 64.5L65.0781 74.575C65.0915 74.5595 65.104 74.5434 65.1156 74.5266L71.1938 58.5859C71.0742 58.994 71.1157 59.4323 71.3095 59.8108C71.5034 60.1892 71.8349 60.4789 72.2359 60.6203L82.8953 64.5Z" fill="#9790AB"/>
<path d="M107.377 34.0508L71.7189 57.8148C71.5185 57.9799 71.3595 58.1897 71.2549 58.4273L71.1955 58.582L71.1939 58.5867C71.0744 58.9948 71.1159 59.4331 71.3097 59.8115C71.5036 60.19 71.8351 60.4797 72.2361 60.6211L87.0752 66.0227C88.6439 66.6117 90.2143 66.2039 91.0564 64.7711L107.461 34.707C107.498 34.5984 107.509 34.4829 107.495 34.3692C107.48 34.2555 107.44 34.1466 107.377 34.0508Z" fill="#B5A8D7"/>
<path d="M107.376 34.0514L60.3827 52.8952C60.1117 53.003 59.8174 53.0391 59.5284 53C59.2393 52.9608 58.9653 52.8478 58.7327 52.6717L51.8671 47.4498C51.4695 47.1475 51.1695 46.7351 51.004 46.2638C50.8385 45.7926 50.815 45.2831 50.9362 44.7986C51.0575 44.3141 51.3182 43.8757 51.6862 43.538C52.0541 43.2002 52.513 42.9778 53.0061 42.8983L106.605 33.7123C106.752 33.6868 106.904 33.7053 107.042 33.7656C107.179 33.8259 107.295 33.9253 107.376 34.0514Z" fill="#B5A8D7"/>
<path d="M59.4326 52.9836C59.7512 53.0463 60.0812 53.0154 60.3826 52.8945L107.376 34.0508L71.7186 57.8148C71.5181 57.9799 71.3591 58.1897 71.2545 58.4273C71.232 58.4778 71.2122 58.5295 71.1951 58.582L71.1936 58.5867L65.1154 74.5273C65.1038 74.5441 65.0913 74.5603 65.0779 74.5758C64.976 74.7012 64.8404 74.795 64.6871 74.8461C64.5338 74.8972 64.369 74.9035 64.2122 74.8643C64.0554 74.8251 63.9131 74.742 63.8018 74.6248C63.6906 74.5075 63.6151 74.361 63.5842 74.2023L59.4326 52.9836Z" fill="#E8E2F9"/>
<path d="M57.5374 46.492L90.3947 40.8608L107.376 34.0514C107.295 33.9253 107.179 33.8259 107.042 33.7656C106.904 33.7053 106.752 33.6868 106.605 33.7123L53.0061 42.8983C52.513 42.9778 52.0541 43.2002 51.6862 43.538C51.3182 43.8757 51.0575 44.3141 50.9362 44.7986C50.815 45.2831 50.8385 45.7926 51.004 46.2638C51.1695 46.7351 51.4695 47.1475 51.8671 47.4498L55.8465 50.4764C55.5997 50.1215 55.4469 49.7097 55.4024 49.2797C55.3579 48.8497 55.4231 48.4154 55.592 48.0174C55.7609 47.6195 56.0279 47.2708 56.3682 47.0041C56.7084 46.7373 57.1106 46.5611 57.5374 46.492Z" fill="#B5A8D7"/>
<path d="M63.7389 79.8754C63.4918 79.8754 63.2547 79.7778 63.0791 79.604C62.9036 79.4301 62.8037 79.194 62.8014 78.9469C62.7976 78.551 62.7857 78.1424 62.766 77.7327C62.7593 77.6092 62.7771 77.4857 62.8183 77.3691C62.8595 77.2525 62.9234 77.1453 63.0062 77.0535C63.089 76.9617 63.1892 76.8872 63.301 76.8343C63.4127 76.7814 63.5338 76.7511 63.6573 76.7452C63.7808 76.7393 63.9042 76.7579 64.0205 76.7999C64.1368 76.8418 64.2437 76.9064 64.3349 76.9899C64.4261 77.0733 64.4999 77.174 64.5521 77.2861C64.6043 77.3982 64.6338 77.5195 64.6389 77.643C64.6596 78.0766 64.6723 78.5093 64.6762 78.9289C64.6786 79.1776 64.5821 79.4169 64.408 79.5944C64.2339 79.7719 63.9964 79.873 63.7478 79.8754H63.7389Z" fill="#B0B5CA"/>
<path d="M36.0614 105.631C35.8719 105.631 35.6867 105.573 35.5305 105.466C35.3742 105.359 35.2541 105.207 35.1861 105.03C35.118 104.853 35.1052 104.659 35.1493 104.475C35.1934 104.291 35.2924 104.124 35.4331 103.997C35.9908 103.485 36.4783 102.901 36.8831 102.261C36.9498 102.158 37.0362 102.068 37.1375 101.998C37.2387 101.928 37.3527 101.879 37.4731 101.853C37.5934 101.827 37.7177 101.825 37.8389 101.847C37.96 101.869 38.0756 101.914 38.1791 101.981C38.2826 102.048 38.372 102.134 38.4421 102.235C38.5122 102.337 38.5617 102.451 38.5877 102.571C38.6138 102.691 38.6159 102.816 38.5939 102.937C38.5719 103.058 38.5262 103.173 38.4595 103.277C37.9651 104.056 37.3698 104.767 36.6891 105.39C36.517 105.545 36.2932 105.631 36.0614 105.631ZM38.8055 101.464C38.6531 101.464 38.503 101.427 38.3683 101.356C38.2336 101.285 38.1182 101.182 38.0322 101.056C37.9462 100.93 37.8921 100.785 37.8746 100.634C37.8571 100.482 37.8768 100.329 37.9319 100.187C37.9703 100.088 38.0074 99.9893 38.0433 99.8901C37.921 99.8901 37.7996 99.8895 37.6792 99.8882C37.4306 99.887 37.1926 99.787 37.0177 99.6103C36.8427 99.4336 36.7452 99.1947 36.7464 98.946C36.7476 98.6974 36.8476 98.4594 37.0243 98.2845C37.201 98.1096 37.44 98.012 37.6886 98.0132H37.6983C37.8188 98.0145 37.942 98.0146 38.0631 98.0151C38.2291 98.0151 38.3946 98.014 38.5598 98.0117C38.5644 97.9875 38.5691 97.9632 38.5736 97.939C38.614 97.7202 38.7309 97.5229 38.9035 97.3824C39.076 97.2419 39.2928 97.1674 39.5153 97.1721C39.7377 97.1768 39.9512 97.2604 40.1177 97.4081C40.2841 97.5557 40.3926 97.7578 40.4237 97.9781C40.6426 98.0303 40.8353 98.1594 40.9668 98.3419C41.0983 98.5245 41.1598 98.7482 41.1401 98.9723C41.1203 99.1964 41.0207 99.4059 40.8593 99.5626C40.6979 99.7193 40.4855 99.8128 40.2609 99.8259C40.1861 99.8303 40.111 99.8345 40.0356 99.8385C39.93 100.185 39.8113 100.528 39.6795 100.867C39.611 101.043 39.4909 101.194 39.335 101.301C39.179 101.408 38.9944 101.465 38.8055 101.464ZM42.7094 99.5801C42.4721 99.5799 42.2437 99.4897 42.0704 99.3277C41.897 99.1657 41.7915 98.944 41.7751 98.7073C41.7587 98.4706 41.8327 98.2365 41.9821 98.0522C42.1316 97.8679 42.3453 97.7471 42.5803 97.7142C43.4058 97.5984 44.208 97.4475 44.9647 97.2657C45.0849 97.2355 45.21 97.2293 45.3326 97.2477C45.4552 97.2661 45.573 97.3086 45.679 97.3729C45.7851 97.4371 45.8774 97.5217 45.9505 97.6218C46.0237 97.7219 46.0763 97.8355 46.1052 97.9561C46.1341 98.0767 46.1388 98.2018 46.1191 98.3242C46.0993 98.4466 46.0555 98.5639 45.9901 98.6692C45.9248 98.7746 45.8391 98.8659 45.7382 98.9379C45.6373 99.01 45.5231 99.0613 45.4022 99.0889C44.587 99.2846 43.7252 99.4468 42.8397 99.5709C42.7965 99.577 42.753 99.5801 42.7094 99.5801ZM35.2169 99.5371C35.0938 99.5371 34.9719 99.5128 34.8583 99.4654C33.9126 99.072 33.1003 98.4145 32.5186 97.5715C32.4484 97.4704 32.3989 97.3564 32.3727 97.236C32.3466 97.1157 32.3444 96.9915 32.3664 96.8703C32.3883 96.7492 32.4338 96.6335 32.5004 96.53C32.567 96.4264 32.6534 96.337 32.7545 96.2668C32.8557 96.1966 32.9697 96.1471 33.09 96.121C33.2103 96.0948 33.3346 96.0927 33.4557 96.1146C33.5769 96.1365 33.6925 96.182 33.7961 96.2487C33.8996 96.3153 33.989 96.4016 34.0592 96.5028C34.4362 97.0501 34.9628 97.4773 35.5761 97.7332C35.7767 97.8161 35.9423 97.9661 36.0447 98.1575C36.147 98.3489 36.1798 98.5699 36.1374 98.7828C36.095 98.9957 35.98 99.1873 35.8121 99.3248C35.6442 99.4624 35.4338 99.5374 35.2167 99.5371H35.2169ZM47.5927 98.3882C47.3725 98.3884 47.1593 98.3112 46.9904 98.17C46.8216 98.0288 46.7077 97.8327 46.6689 97.616C46.6301 97.3993 46.6688 97.1759 46.7782 96.9849C46.8876 96.7939 47.0607 96.6474 47.2672 96.5712C48.0116 96.2975 48.735 95.9697 49.4316 95.5904C49.6496 95.4708 49.9062 95.4428 50.1449 95.5124C50.3836 95.582 50.5849 95.7436 50.7045 95.9616C50.824 96.1796 50.8521 96.4362 50.7825 96.6749C50.7129 96.9136 50.5513 97.1149 50.3333 97.2345C49.5561 97.658 48.7489 98.024 47.9181 98.3295C47.814 98.3682 47.7038 98.3881 47.5927 98.3882ZM39.69 96.5429C39.4479 96.5427 39.2153 96.4489 39.0408 96.2811C38.8663 96.1133 38.7635 95.8845 38.7539 95.6426C38.7397 94.9148 38.595 94.1954 38.3267 93.5187C38.2767 93.405 38.2499 93.2825 38.2476 93.1584C38.2454 93.0342 38.2678 92.9108 38.3137 92.7954C38.3595 92.68 38.4278 92.5748 38.5146 92.486C38.6014 92.3972 38.705 92.3266 38.8194 92.2781C38.9337 92.2297 39.0566 92.2045 39.1808 92.2039C39.3049 92.2034 39.428 92.2275 39.5428 92.2749C39.6576 92.3223 39.7618 92.392 39.8494 92.48C39.937 92.5681 40.0063 92.6726 40.0531 92.7876C40.4103 93.6726 40.6049 94.6148 40.6275 95.5689C40.6374 95.8173 40.5481 96.0595 40.3794 96.2421C40.2107 96.4247 39.9764 96.5329 39.728 96.5428C39.7153 96.5426 39.7031 96.5429 39.69 96.5429ZM51.9727 95.9559C51.7788 95.956 51.5896 95.896 51.4313 95.7842C51.2729 95.6723 51.1531 95.5141 51.0884 95.3314C51.0236 95.1486 51.0172 94.9503 51.0698 94.7637C51.1225 94.5771 51.2318 94.4114 51.3825 94.2895C51.6872 94.0431 51.9774 93.7837 52.2531 93.5112C52.1695 93.3646 52.127 93.1981 52.1302 93.0294C52.1333 92.8606 52.182 92.6958 52.271 92.5524C52.36 92.409 52.486 92.2923 52.6358 92.2146C52.7857 92.1369 52.9537 92.101 53.1222 92.1109C53.6945 92.1448 54.2688 92.1239 54.8372 92.0484C54.7923 92.0331 54.7488 92.0144 54.7069 91.9923C54.5977 91.9352 54.5009 91.8572 54.4219 91.7627C54.3429 91.6682 54.2833 91.5591 54.2465 91.4416C54.2097 91.324 54.1964 91.2004 54.2074 91.0777C54.2184 90.9551 54.2535 90.8358 54.3106 90.7267C54.6526 90.0691 54.9346 89.3821 55.1534 88.674C55.1644 88.639 55.1748 88.6046 55.1847 88.5703C55.219 88.4515 55.2764 88.3407 55.3536 88.2442C55.4309 88.1477 55.5265 88.0674 55.6349 88.008C55.7433 87.9486 55.8624 87.9112 55.9853 87.898C56.1082 87.8848 56.2325 87.896 56.3511 87.931C56.4696 87.9661 56.5801 88.0242 56.6761 88.1021C56.7721 88.1799 56.8518 88.2761 56.9105 88.3848C56.9692 88.4936 57.0058 88.613 57.0182 88.7359C57.0306 88.8589 57.0186 88.9832 56.9828 89.1015C56.9702 89.1446 56.9569 89.1882 56.9433 89.2317C56.6909 90.0473 56.3658 90.8386 55.9717 91.596C55.8989 91.7357 55.7919 91.8547 55.6608 91.942C55.8845 91.9635 56.0931 92.0647 56.2484 92.2272C56.4038 92.3896 56.4956 92.6024 56.5072 92.8269C56.5188 93.0514 56.4493 93.2725 56.3115 93.4501C56.1736 93.6276 55.9766 93.7497 55.7562 93.7942C55.2999 93.8861 54.8378 93.9475 54.3733 93.9779C53.8262 94.6235 53.2194 95.216 52.5608 95.7473C52.3945 95.8823 52.1868 95.9559 51.9727 95.9559ZM32.5016 95.621C32.2581 95.6209 32.0242 95.526 31.8495 95.3565C31.6747 95.187 31.5727 94.9561 31.5652 94.7128C31.5635 94.659 31.5626 94.6054 31.5625 94.5518C31.5645 93.5725 31.8475 92.6144 32.378 91.7912C32.4444 91.6875 32.5305 91.5979 32.6315 91.5275C32.7326 91.4571 32.8464 91.4073 32.9667 91.3809C33.087 91.3546 33.2113 91.3521 33.3325 91.3738C33.4537 91.3954 33.5694 91.4407 33.6731 91.5071C33.7768 91.5735 33.8664 91.6597 33.9368 91.7607C34.0072 91.8617 34.057 91.9756 34.0834 92.0959C34.1098 92.2162 34.1122 92.3404 34.0905 92.4616C34.0689 92.5828 34.0236 92.6986 33.9572 92.8023C33.6177 93.3226 33.4371 93.9306 33.4375 94.5518C33.4375 94.5859 33.4381 94.62 33.4392 94.6542C33.4431 94.7772 33.4227 94.8999 33.3791 95.015C33.3356 95.1302 33.2698 95.2357 33.1855 95.3254C33.1012 95.4151 33 95.4874 32.8878 95.5381C32.7756 95.5887 32.6545 95.6167 32.5314 95.6206L32.5016 95.621ZM50.597 93.541C50.5046 93.541 50.4127 93.5273 50.3244 93.5003C50.1724 93.454 50.0214 93.405 49.8713 93.3531C49.1067 93.091 48.3964 92.6916 47.7753 92.1745C47.5849 92.0146 47.4657 91.7856 47.4441 91.5379C47.4225 91.2902 47.5002 91.0441 47.6601 90.8536C47.82 90.6632 48.0489 90.5441 48.2966 90.5224C48.5444 90.5008 48.7905 90.5785 48.9809 90.7384C49.4277 91.1089 49.9383 91.3949 50.4877 91.5821C50.6127 91.6257 50.7403 91.6673 50.8686 91.7062C51.0839 91.7713 51.2686 91.9117 51.389 92.1017C51.5094 92.2917 51.5575 92.5186 51.5245 92.7411C51.4915 92.9636 51.3796 93.1668 51.2092 93.3137C51.0388 93.4605 50.8213 93.5412 50.5964 93.541H50.597ZM57.9364 92.9793C57.7265 92.9795 57.5227 92.9093 57.3575 92.7799C57.1922 92.6505 57.0752 92.4694 57.0251 92.2656C56.975 92.0618 56.9948 91.8471 57.0812 91.6558C57.1676 91.4646 57.3157 91.3078 57.5017 91.2107C58.1667 90.8623 58.7786 90.421 59.3192 89.9001C59.4987 89.7289 59.7388 89.6358 59.9868 89.6412C60.2349 89.6466 60.4706 89.7501 60.6425 89.9291C60.8143 90.108 60.9083 90.3478 60.9037 90.5958C60.8991 90.8439 60.7963 91.08 60.618 91.2524C59.9491 91.8964 59.192 92.442 58.3695 92.8728C58.2359 92.9428 58.0873 92.9794 57.9364 92.9793ZM37.583 92.2182C37.4256 92.2182 37.2708 92.1784 37.133 92.1026C36.9755 92.0168 36.809 91.9487 36.6366 91.8995C36.2112 91.7613 35.7597 91.7232 35.3172 91.7881C35.1961 91.8105 35.0718 91.8088 34.9514 91.7832C34.831 91.7576 34.7168 91.7085 34.6153 91.6387C34.5139 91.569 34.4272 91.4799 34.3602 91.3766C34.2931 91.2734 34.2471 91.1579 34.2247 91.0368C34.2023 90.9158 34.2039 90.7915 34.2296 90.671C34.2552 90.5506 34.3043 90.4364 34.374 90.335C34.4438 90.2335 34.5329 90.1468 34.6361 90.0798C34.7394 90.0128 34.8549 89.9667 34.9759 89.9443C35.7049 89.825 36.4517 89.8776 37.1567 90.0979C37.4617 90.1856 37.7561 90.3066 38.0347 90.4587C38.2173 90.5588 38.3613 90.7169 38.4441 90.9079C38.5269 91.099 38.5438 91.3122 38.492 91.5139C38.4402 91.7155 38.3228 91.8942 38.1582 92.0218C37.9936 92.1493 37.7912 92.2184 37.583 92.2182ZM46.8984 90.3892C46.7145 90.3892 46.5346 90.3352 46.3812 90.2338C46.2277 90.1324 46.1075 89.9881 46.0355 89.8189C45.6857 88.9896 45.5055 88.0987 45.5055 87.1987C45.5055 87.1202 45.5068 87.0417 45.5095 86.9634C45.5126 86.8395 45.5402 86.7174 45.5907 86.6043C45.6412 86.4911 45.7137 86.3891 45.8039 86.3041C45.8941 86.2191 46.0003 86.1528 46.1162 86.1092C46.2322 86.0655 46.3557 86.0452 46.4796 86.0495C46.6034 86.0539 46.7252 86.0827 46.8378 86.1344C46.9505 86.1861 47.0517 86.2596 47.1358 86.3507C47.2198 86.4418 47.285 86.5487 47.3274 86.6651C47.3699 86.7815 47.3889 86.9052 47.3833 87.029C47.3814 87.0857 47.3805 87.1421 47.3805 87.1987C47.3801 87.8462 47.5093 88.4872 47.7605 89.084C47.8212 89.2266 47.8457 89.3819 47.8317 89.5363C47.8178 89.6906 47.7657 89.839 47.6803 89.9683C47.5949 90.0976 47.4788 90.2038 47.3424 90.2772C47.2059 90.3506 47.0534 90.3891 46.8984 90.3892ZM61.5369 89.5579C61.3699 89.5579 61.2059 89.5132 61.0619 89.4286C60.918 89.344 60.7992 89.2224 60.718 89.0765C60.6367 88.9306 60.5959 88.7656 60.5998 88.5987C60.6037 88.4317 60.6521 88.2688 60.74 88.1268C61.1452 87.4649 61.4831 86.7641 61.7486 86.0348C61.8353 85.8023 62.0106 85.6137 62.236 85.5103C62.4615 85.4068 62.7188 85.3969 62.9515 85.4828C63.1843 85.5687 63.3735 85.7433 63.4777 85.9684C63.582 86.1936 63.5927 86.4508 63.5077 86.6839C63.1986 87.5309 62.8055 88.345 62.3342 89.1137C62.2502 89.2495 62.1328 89.3617 61.9933 89.4394C61.8537 89.5171 61.6966 89.5579 61.5369 89.5579ZM56.3725 87.2893C56.1384 87.2891 55.9129 87.2013 55.7403 87.0432C55.5677 86.8852 55.4605 86.6682 55.4397 86.4351C55.3888 85.7647 55.1529 85.1216 54.7583 84.5773C54.6112 84.3768 54.5497 84.1261 54.5874 83.8803C54.6252 83.6346 54.759 83.4139 54.9595 83.2667C55.1599 83.1196 55.4106 83.0582 55.6564 83.0959C55.9022 83.1336 56.1229 83.2674 56.27 83.4679C56.8682 84.2876 57.2273 85.2571 57.3073 86.2687C57.3183 86.3913 57.3049 86.5149 57.2681 86.6324C57.2313 86.7499 57.1717 86.8589 57.0927 86.9534C57.0137 87.0478 56.9169 87.1258 56.8078 87.1828C56.6986 87.2398 56.5794 87.2748 56.4567 87.2857C56.4284 87.2881 56.4003 87.2893 56.3725 87.2893ZM47.0756 85.5195C46.9141 85.5194 46.7553 85.4777 46.6147 85.3982C46.4741 85.3188 46.3564 85.2043 46.273 85.066C46.1896 84.9277 46.1434 84.7701 46.1388 84.6087C46.1342 84.4472 46.1713 84.2873 46.2467 84.1445C46.7122 83.2536 47.4005 82.4984 48.2445 81.9526C48.3482 81.8856 48.4641 81.8398 48.5855 81.8177C48.7069 81.7956 48.8315 81.7977 48.9521 81.8239C49.0728 81.8501 49.187 81.8999 49.2884 81.9703C49.3897 82.0408 49.4761 82.1305 49.5427 82.2345C49.6093 82.3384 49.6546 82.4544 49.6763 82.576C49.6979 82.6975 49.6953 82.8221 49.6686 82.9426C49.642 83.0631 49.5918 83.1771 49.5209 83.2782C49.4501 83.3793 49.36 83.4653 49.2558 83.5315C48.6832 83.9002 48.2175 84.413 47.9055 85.0184C47.8259 85.1697 47.7065 85.2963 47.5601 85.3846C47.4138 85.473 47.2461 85.5196 47.0752 85.5195H47.0756ZM63.3077 84.8789C63.1687 84.879 63.0314 84.8482 62.9057 84.7888C62.7801 84.7294 62.6692 84.6427 62.5812 84.5352C62.4931 84.4276 62.4301 84.3018 62.3967 84.1669C62.3632 84.032 62.3602 83.8913 62.3878 83.7551C62.5445 82.9687 62.655 82.1738 62.7188 81.3745C62.7391 81.1267 62.8571 80.8971 63.0467 80.7362C63.2363 80.5754 63.482 80.4965 63.7298 80.5168C63.9777 80.5372 64.2072 80.6551 64.3681 80.8447C64.5289 81.0344 64.6078 81.2801 64.5875 81.5279C64.5176 82.4005 64.3968 83.2682 64.2256 84.1267C64.1827 84.3386 64.0678 84.5292 63.9004 84.6662C63.733 84.8031 63.5235 84.878 63.3072 84.8781L63.3077 84.8789ZM53.5666 83.4128C53.4337 83.4126 53.3023 83.3843 53.1812 83.3295C52.5464 83.0415 51.8538 82.9036 51.157 82.9265C50.9086 82.9363 50.6664 82.847 50.4838 82.6783C50.3012 82.5095 50.1931 82.2751 50.1833 82.0267C50.1735 81.7782 50.2628 81.536 50.4315 81.3534C50.6003 81.1708 50.8347 81.0627 51.0831 81.0529C52.0705 81.02 53.0523 81.2141 53.9528 81.6204C54.1485 81.7085 54.308 81.861 54.4047 82.0526C54.5015 82.2441 54.5296 82.463 54.4844 82.6728C54.4392 82.8825 54.3234 83.0704 54.1564 83.2051C53.9893 83.3398 53.7811 83.4131 53.5666 83.4128Z" fill="#B0B5CA"/>
<path d="M32.6774 107.237C32.4373 107.237 32.2062 107.145 32.0319 106.98C31.8575 106.815 31.7531 106.59 31.7401 106.35C31.7272 106.11 31.8068 105.875 31.9624 105.692C32.118 105.509 32.3379 105.393 32.5766 105.367C32.9191 105.33 33.2561 105.252 33.5807 105.136C33.6967 105.095 33.8197 105.077 33.9426 105.083C34.0656 105.09 34.1861 105.12 34.2973 105.173C34.4085 105.226 34.5082 105.3 34.5907 105.391C34.6732 105.483 34.7369 105.589 34.7781 105.705C34.8193 105.822 34.8373 105.944 34.831 106.067C34.8248 106.19 34.7943 106.311 34.7414 106.422C34.6886 106.533 34.6143 106.633 34.5229 106.715C34.4316 106.798 34.3248 106.862 34.2088 106.903C33.747 107.067 33.2676 107.177 32.7804 107.231C32.7462 107.235 32.7118 107.237 32.6774 107.237Z" fill="#B0B5CA"/>
<path d="M86.402 53.0424C86.2062 53.0426 86.0152 52.9814 85.8559 52.8674C85.6966 52.7534 85.577 52.5924 85.5139 52.407C85.4508 52.2216 85.4473 52.021 85.504 51.8335C85.5607 51.646 85.6747 51.481 85.83 51.3616L91.2572 47.1898C91.3546 47.1129 91.4664 47.0561 91.5859 47.0228C91.7054 46.9894 91.8304 46.9801 91.9536 46.9954C92.0767 47.0108 92.1956 47.0504 92.3034 47.112C92.4111 47.1736 92.5055 47.256 92.5812 47.3544C92.6568 47.4528 92.7121 47.5652 92.744 47.6852C92.7758 47.8051 92.7836 47.9302 92.7667 48.0532C92.7498 48.1761 92.7087 48.2945 92.6457 48.4015C92.5828 48.5084 92.4992 48.6018 92.3999 48.6762L86.9727 52.8481C86.8092 52.9742 86.6085 53.0426 86.402 53.0424Z" fill="#F4F8FC"/>
<path d="M82.8952 55.7368C82.6993 55.737 82.5083 55.6757 82.349 55.5618C82.1897 55.4478 82.0701 55.2868 82.007 55.1014C81.9439 54.9159 81.9405 54.7154 81.9972 54.5279C82.0539 54.3404 82.1679 54.1754 82.3232 54.056L83.5732 53.0951C83.6707 53.019 83.7823 52.9629 83.9016 52.9301C84.0209 52.8972 84.1455 52.8884 84.2682 52.9039C84.3909 52.9195 84.5093 52.9592 84.6167 53.0208C84.724 53.0823 84.818 53.1645 84.8934 53.2626C84.9688 53.3606 85.0241 53.4727 85.056 53.5922C85.0879 53.7117 85.0958 53.8364 85.0793 53.959C85.0629 54.0816 85.0223 54.1997 84.9599 54.3066C84.8975 54.4134 84.8146 54.5068 84.716 54.5815L83.466 55.5426C83.3025 55.6687 83.1017 55.737 82.8952 55.7368Z" fill="#F4F8FC"/>
</svg>
