<svg width="20" height="20" viewBox="0 0 20 20" fill="none" xmlns="http://www.w3.org/2000/svg">
<path d="M19.4023 18.9311L19.4023 18.9311C19.5329 19.0617 19.5329 19.2718 19.4023 19.4023C19.3372 19.4675 19.2526 19.5 19.1667 19.5C19.0809 19.5 18.9963 19.4675 18.9311 19.4023L13.2436 13.7148L12.9253 13.3965L12.5754 13.6797C11.2996 14.7126 9.68037 15.3334 7.9167 15.3334C3.82783 15.3334 0.5 12.0055 0.5 7.91666C0.5 3.82779 3.82779 0.5 7.91666 0.5C12.0055 0.5 15.3334 3.82783 15.3334 7.9167C15.3334 9.68037 14.7126 11.2996 13.6797 12.5754L13.3965 12.9253L13.7148 13.2436L19.4023 18.9311ZM1.16668 7.91666C1.16668 11.6395 4.19387 14.6667 7.9167 14.6667C11.6395 14.6667 14.6667 11.6395 14.6667 7.91666C14.6667 4.19383 11.6395 1.16664 7.9167 1.16664C4.19387 1.16664 1.16668 4.19383 1.16668 7.91666Z" fill="#9F9DB2" stroke="#6B6F77"/>
</svg>
