<svg width="24" height="24" viewBox="0 0 24 24" fill="none" xmlns="http://www.w3.org/2000/svg">
<path d="M19.1813 10.3205L18.0582 10.13C17.9412 9.7523 17.7908 9.38798 17.607 9.04037L18.2688 8.11452C18.5496 7.72011 18.5061 7.18198 18.1618 6.84106L17.1658 5.84501C16.9786 5.65784 16.7313 5.55422 16.4672 5.55422C16.26 5.55422 16.0628 5.61773 15.8957 5.73806L14.9665 6.39986C14.6055 6.20934 14.2278 6.05224 13.8367 5.93526L13.6496 4.82558C13.5693 4.34761 13.1582 4 12.6736 4H11.2664C10.7818 4 10.3707 4.34761 10.2904 4.82558L10.0966 5.962C9.72222 6.07898 9.3579 6.23274 9.01029 6.41991L8.09112 5.75811C7.924 5.63779 7.72345 5.57428 7.51622 5.57428C7.25217 5.57428 7.00149 5.67789 6.81766 5.86507L5.81828 6.86111C5.47735 7.20204 5.43056 7.74017 5.71132 8.13457L6.3798 9.07379C6.19597 9.42474 6.0489 9.78907 5.93526 10.1668L4.82558 10.3539C4.34761 10.4342 4 10.8453 4 11.3299V12.7371C4 13.2217 4.34761 13.6328 4.82558 13.7131L5.962 13.9069C6.07898 14.2813 6.23274 14.6456 6.41991 14.9932L5.76145 15.909C5.48069 16.3034 5.52414 16.8416 5.86841 17.1825L6.86445 18.1785C7.05163 18.3657 7.29897 18.4693 7.56302 18.4693C7.77025 18.4693 7.96745 18.4058 8.13457 18.2855L9.07379 17.617C9.41138 17.7942 9.76567 17.9379 10.13 18.0515L10.3172 19.1746C10.3974 19.6525 10.8085 20.0002 11.2932 20.0002H12.7037C13.1883 20.0002 13.5994 19.6525 13.6796 19.1746L13.8702 18.0515C14.2479 17.9345 14.6122 17.7841 14.9598 17.6003L15.8856 18.2621C16.0528 18.3824 16.2533 18.4459 16.4605 18.4459C16.7246 18.4459 16.9719 18.3423 17.1591 18.1551L18.1551 17.1591C18.4961 16.8182 18.5429 16.28 18.2621 15.8856L17.6003 14.9564C17.7841 14.6055 17.9379 14.2412 18.0515 13.8668L19.1746 13.6796C19.6525 13.5994 20.0002 13.1883 20.0002 12.7037V11.2965C20.0068 10.8118 19.6592 10.4007 19.1813 10.3205ZM19.1044 12.7037C19.1044 12.7471 19.0743 12.7839 19.0309 12.7906L17.627 13.0245C17.4499 13.0546 17.3095 13.185 17.2661 13.3554C17.139 13.8468 16.9452 14.318 16.6845 14.7559C16.5942 14.9097 16.6009 15.1002 16.7045 15.2472L17.5301 16.4104C17.5535 16.4438 17.5502 16.494 17.5201 16.524L16.524 17.5201C16.5006 17.5435 16.4773 17.5468 16.4605 17.5468C16.4405 17.5468 16.4238 17.5401 16.4104 17.5301L15.2506 16.7045C15.1069 16.6009 14.913 16.5942 14.7592 16.6845C14.3214 16.9452 13.8501 17.139 13.3588 17.2661C13.185 17.3095 13.0546 17.4532 13.0279 17.627L12.7906 19.0309C12.7839 19.0743 12.7471 19.1044 12.7037 19.1044H11.2965C11.253 19.1044 11.2163 19.0743 11.2096 19.0309L10.9756 17.627C10.9455 17.4499 10.8152 17.3095 10.6447 17.2661C10.1668 17.1424 9.70551 16.9519 9.27434 16.7045C9.20415 16.6644 9.12393 16.6444 9.04705 16.6444C8.95681 16.6444 8.86322 16.6711 8.78634 16.7279L7.6165 17.5602C7.59979 17.5702 7.58307 17.5769 7.56636 17.5769C7.55299 17.5769 7.52625 17.5736 7.50286 17.5502L6.50681 16.5541C6.47673 16.524 6.47339 16.4772 6.49679 16.4405L7.31902 15.2873C7.42264 15.1403 7.42932 14.9464 7.33908 14.7927C7.07837 14.3582 6.87782 13.8869 6.75081 13.3955C6.70402 13.2251 6.56364 13.0947 6.38983 13.0646L4.97599 12.824C4.93253 12.8173 4.90245 12.7805 4.90245 12.7371V11.3299C4.90245 11.2865 4.93253 11.2497 4.97599 11.243L6.36978 11.0091C6.54692 10.979 6.69065 10.8486 6.7341 10.6748C6.85777 10.1835 7.04829 9.70885 7.30565 9.27099C7.3959 9.11724 7.38587 8.92672 7.28226 8.783L6.44999 7.61315C6.4266 7.57973 6.42994 7.52959 6.46002 7.49951L7.45606 6.50347C7.47946 6.48007 7.50286 6.47673 7.51957 6.47673C7.53962 6.47673 7.55633 6.48342 7.5697 6.49344L8.72284 7.31568C8.8699 7.41929 9.06377 7.42598 9.21752 7.33573C9.65203 7.07503 10.1233 6.87448 10.6146 6.74747C10.7851 6.70067 10.9155 6.56029 10.9455 6.38649L11.1862 4.97264C11.1929 4.92919 11.2297 4.89911 11.2731 4.89911H12.6803C12.7237 4.89911 12.7605 4.92919 12.7672 4.97264L13.0011 6.36643C13.0312 6.54358 13.1616 6.6873 13.3354 6.73076C13.8401 6.85777 14.3214 7.05497 14.7693 7.31902C14.923 7.40927 15.1135 7.40258 15.2606 7.29897L16.4137 6.47005C16.4305 6.46002 16.4472 6.45334 16.4639 6.45334C16.4773 6.45334 16.504 6.45668 16.5274 6.48007L17.5234 7.47612C17.5535 7.5062 17.5569 7.55299 17.5335 7.58976L16.7079 8.74958C16.6043 8.8933 16.5976 9.08716 16.6878 9.24091C16.9485 9.67877 17.1424 10.15 17.2694 10.6414C17.3129 10.8152 17.4566 10.9455 17.6304 10.9723L19.0342 11.2096C19.0777 11.2163 19.1077 11.253 19.1077 11.2965V12.7037H19.1044Z" fill="#3E2841"/>
<path d="M12.0015 8.54492C10.0964 8.54492 8.54883 10.0925 8.54883 11.9976C8.54883 13.9028 10.0964 15.4504 12.0015 15.4504C13.9067 15.4504 15.4543 13.9028 15.4543 11.9976C15.4543 10.0925 13.9067 8.54492 12.0015 8.54492ZM12.0015 14.5479C10.5944 14.5479 9.45128 13.4048 9.45128 11.9976C9.45128 10.5905 10.5944 9.44737 12.0015 9.44737C13.4087 9.44737 14.5518 10.5905 14.5518 11.9976C14.5518 13.4048 13.4087 14.5479 12.0015 14.5479Z" fill="#3E2841"/>
</svg>
