<svg width="24" height="24" viewBox="0 0 24 24" fill="none" xmlns="http://www.w3.org/2000/svg">
<path fill-rule="evenodd" clip-rule="evenodd" d="M10.1542 11.5189C10.1542 10.5032 11.0581 9.67983 12.1732 9.67983C13.2882 9.67983 14.1921 10.5032 14.1921 11.5189C14.1921 12.5346 13.2882 13.358 12.1732 13.358C11.0581 13.358 10.1542 12.5346 10.1542 11.5189ZM11.0951 11.5189C11.0951 10.9765 11.5778 10.5369 12.1732 10.5369C12.7686 10.5369 13.2512 10.9765 13.2512 11.5189C13.2512 12.0612 12.7686 12.5009 12.1732 12.5009C11.5778 12.5009 11.0951 12.0612 11.0951 11.5189Z" fill="#3E2841"/>
<path fill-rule="evenodd" clip-rule="evenodd" d="M7.03418 4.01025C5.91445 3.90341 4.91163 4.64364 4.79434 5.6636L4.5994 7.35868H4.03855C2.91269 7.35868 2 8.19005 2 9.2156V16.3576V18.1431C2 19.1686 2.91269 20 4.03855 20H17.2499C18.3758 20 19.2885 19.1686 19.2885 18.1431V17.8199C20.1648 17.6819 20.8704 17.0287 20.9677 16.1832L21.9887 7.30432C22.106 6.28435 21.2934 5.37089 20.1737 5.26404L7.03418 4.01025ZM19.2885 16.9382C19.6837 16.8176 19.9856 16.4961 20.0319 16.0939L21.053 7.21503C21.1162 6.66581 20.6786 6.17395 20.0756 6.11642L6.93616 4.86263C6.33322 4.8051 5.79325 5.20368 5.73009 5.75289L5.54542 7.35868H17.2499C18.3758 7.35868 19.2885 8.19005 19.2885 9.2156V13.1258V16.9382ZM4.50084 8.21572H4.03855C3.43232 8.21572 2.94087 8.66338 2.94087 9.2156V15.5578L6.24877 13.553C6.94091 13.1335 7.84334 13.1389 8.52938 13.5666L11.6538 15.5145C11.9915 15.7251 12.4298 15.747 12.7908 15.5714L18.3476 12.8689V9.2156C18.3476 8.66338 17.8562 8.21572 17.2499 8.21572H5.44686H4.50084ZM18.3476 13.8404V16.9386V17.8003V18.1431C18.3476 18.6953 17.8562 19.143 17.2499 19.143H4.03855C3.43232 19.143 2.94087 18.6953 2.94087 18.1431V16.5872L6.76995 14.2665C7.14264 14.0407 7.62857 14.0436 7.99797 14.2739L11.1224 16.2218C11.7496 16.6128 12.5635 16.6535 13.2339 16.3275L18.3476 13.8404Z" fill="#3E2841"/>
</svg>
