<svg width="24" height="24" viewBox="0 0 24 24" fill="none" xmlns="http://www.w3.org/2000/svg">
<path d="M17.6859 6.24892C16.1711 4.79997 14.1592 4 12.0163 4C9.87335 4 7.86145 4.79997 6.34664 6.24892C3.4245 9.04401 3.21289 13.5097 5.81595 16.5361C5.45656 17.2397 5.03335 17.7088 4.55305 17.9337C4.26083 18.0718 4.09625 18.3738 4.14328 18.6822C4.19366 18.9939 4.44221 19.2348 4.76801 19.283C4.94602 19.3087 5.13748 19.3248 5.33564 19.3248C6.31977 19.3248 7.35427 19.0003 8.21748 18.4317C9.37961 19.0292 10.6862 19.3441 12.0163 19.3441C14.1592 19.3441 16.1711 18.5473 17.6859 17.0984C19.2007 15.6494 20.0337 13.7218 20.0337 11.6752C20.0337 9.62873 19.2007 7.69787 17.6859 6.24892ZM17.0443 16.4815C15.7008 17.7666 13.914 18.4734 12.0163 18.4734C10.7466 18.4734 9.50053 18.1489 8.41564 17.5385C8.34511 17.5 8.2645 17.4775 8.18725 17.4775C8.08984 17.4775 7.98908 17.5096 7.90847 17.5674C6.88068 18.3288 5.84618 18.4413 5.39274 18.4509C5.93351 18.0654 6.38694 17.4678 6.76648 16.6357C6.83702 16.4815 6.80679 16.3016 6.68923 16.1731C4.20373 13.4872 4.33473 9.3942 6.98816 6.85613C8.33167 5.57103 10.1185 4.86423 12.0163 4.86423C13.914 4.86423 15.7008 5.57103 17.0443 6.85613C19.8187 9.51307 19.8187 13.831 17.0443 16.4815Z" fill="#3E2841"/>
<path d="M15.3746 9.14062H8.65705C8.40514 9.14062 8.20361 9.33339 8.20361 9.57435C8.20361 9.8153 8.40514 10.0081 8.65705 10.0081H15.3746C15.6265 10.0081 15.828 9.8153 15.828 9.57435C15.828 9.33339 15.6232 9.14062 15.3746 9.14062Z" fill="#3E2841"/>
<path d="M15.3746 11.2383H8.65705C8.40514 11.2383 8.20361 11.431 8.20361 11.672C8.20361 11.913 8.40514 12.1057 8.65705 12.1057H15.3746C15.6265 12.1057 15.828 11.913 15.828 11.672C15.828 11.431 15.6232 11.2383 15.3746 11.2383Z" fill="#3E2841"/>
<path d="M15.3746 13.3359H8.65705C8.40514 13.3359 8.20361 13.5287 8.20361 13.7697C8.20361 14.0106 8.40514 14.2034 8.65705 14.2034H15.3746C15.6265 14.2034 15.828 14.0106 15.828 13.7697C15.828 13.5287 15.6232 13.3359 15.3746 13.3359Z" fill="#3E2841"/>
</svg>
