<svg width="19" height="23" viewBox="0 0 19 23" fill="none" xmlns="http://www.w3.org/2000/svg">
<path fill-rule="evenodd" clip-rule="evenodd" d="M5.95911 0.800781C5.06782 0.800781 4.34245 1.51778 4.34245 2.40574V2.65367C4.34245 2.99391 4.62011 3.2669 4.95911 3.2669C5.29812 3.2669 5.57578 2.99391 5.57578 2.65367V2.40574C5.57578 2.19825 5.74584 2.02723 5.95911 2.02723H16.5841C16.7974 2.02723 16.9674 2.19825 16.9674 2.40574V17.0752C16.9674 17.2826 16.7974 17.4537 16.5841 17.4537H16.2924C15.9534 17.4537 15.6758 17.7267 15.6758 18.0669C15.6758 18.4071 15.9534 18.6801 16.2924 18.6801H16.5841C17.4754 18.6801 18.2008 17.9631 18.2008 17.0752V2.40574C18.2008 1.51778 17.4754 0.800781 16.5841 0.800781H5.95911ZM2.41745 4.32144C1.52616 4.32144 0.800781 5.03844 0.800781 5.9264V20.5958C0.800781 21.4838 1.52616 22.2008 2.41745 22.2008H13.0424C13.9337 22.2008 14.6591 21.4838 14.6591 20.5958V5.9264C14.6591 5.03845 13.9337 4.32144 13.0424 4.32144H2.41745ZM2.03411 5.9264C2.03411 5.71892 2.20417 5.54789 2.41745 5.54789H13.0424C13.2557 5.54789 13.4258 5.71892 13.4258 5.9264V20.5958C13.4258 20.8033 13.2557 20.9743 13.0424 20.9743H2.41745C2.20417 20.9743 2.03411 20.8033 2.03411 20.5958V5.9264ZM11.0902 8.47073C10.8176 8.20307 10.3791 8.20307 10.1065 8.47073L7.23563 11.2893L6.3951 10.4641C6.12248 10.1964 5.68402 10.1964 5.41139 10.4641C5.13392 10.7365 5.13392 11.1818 5.41139 11.4542L6.90498 12.9206C7.08832 13.1006 7.38295 13.1006 7.56629 12.9206L11.0902 9.46089C11.3677 9.18847 11.3677 8.74315 11.0902 8.47073ZM6.12578 17.09C5.41858 17.09 4.84245 17.659 4.84245 18.3644V18.7363C4.84245 19.4417 5.41858 20.0107 6.12578 20.0107H9.33412C10.0413 20.0107 10.6174 19.4417 10.6174 18.7363V18.3644C10.6174 17.659 10.0413 17.09 9.33412 17.09H6.12578ZM6.07578 18.3644C6.07578 18.3395 6.0966 18.3165 6.12578 18.3165H9.33412C9.3633 18.3165 9.38412 18.3395 9.38412 18.3644V18.7363C9.38412 18.7612 9.3633 18.7843 9.33412 18.7843H6.12578C6.0966 18.7843 6.07578 18.7612 6.07578 18.7363V18.3644Z" fill="#3E2841"/>
</svg>
