<svg width="24" height="24" viewBox="0 0 24 24" fill="none" xmlns="http://www.w3.org/2000/svg">
<path d="M18.0932 5.84146C16.8881 4.71951 14.9282 4.71951 13.7231 5.84146L5.71086 13.2795C5.64822 13.3377 5.60944 13.4125 5.59751 13.4928L5.0039 17.5762C4.986 17.6925 5.03075 17.8089 5.11725 17.8892C5.19183 17.9584 5.29623 18 5.40063 18C5.41853 18 5.43643 18 5.45433 17.9972L8.10321 17.6648C8.32395 17.6371 8.47906 17.4487 8.44923 17.2437C8.4194 17.0387 8.21656 16.8947 7.99582 16.9224L5.87194 17.1883L6.28658 14.3405L9.51415 17.3379C9.58873 17.4072 9.69313 17.4487 9.79753 17.4487C9.90194 17.4487 10.0063 17.4099 10.0809 17.3379L18.0932 9.89985C18.6778 9.35688 19 8.63662 19 7.86927C19 7.10191 18.6778 6.38165 18.0932 5.84146ZM13.8782 6.75563L15.2236 8.00501L7.9123 14.7948L6.56698 13.5455L13.8782 6.75563ZM9.80052 16.5456L8.48503 15.324L15.7963 8.53412L17.1118 9.75579L9.80052 16.5456ZM17.6726 9.22114L14.454 6.23206C14.8626 5.91902 15.3727 5.74727 15.9096 5.74727C16.5212 5.74727 17.0939 5.96889 17.5264 6.3678C17.9589 6.76671 18.1946 7.30137 18.1946 7.86927C18.1946 8.37068 18.0097 8.84162 17.6726 9.22114Z" fill="#787173"/>
</svg>
