<svg width="24" height="24" viewBox="0 0 24 24" fill="none" xmlns="http://www.w3.org/2000/svg">
<path d="M17.7467 14.564C16.7114 14.564 15.7882 15.0573 15.1977 15.8198L10.2529 13.0577C10.3688 12.7251 10.4323 12.3663 10.4323 11.9963C10.4323 11.6225 10.3688 11.2674 10.2492 10.9311L15.1902 8.17276C15.777 8.93895 16.7039 9.43605 17.7429 9.43605C19.5145 9.43605 20.961 7.99336 20.961 6.21802C20.961 4.44269 19.5183 3 17.7429 3C15.9676 3 14.5249 4.44269 14.5249 6.21802C14.5249 6.59178 14.5885 6.95058 14.7081 7.28322L9.77076 10.0415C9.18397 9.27159 8.25706 8.77824 7.21802 8.77824C5.44643 8.77824 4 10.2209 4 11.9963C4 13.7716 5.44643 15.2143 7.22176 15.2143C8.2608 15.2143 9.18771 14.7172 9.77824 13.9473L14.7193 16.7093C14.5997 17.0457 14.5324 17.4082 14.5324 17.782C14.5324 19.5536 15.9751 21 17.7504 21C19.5258 21 20.9684 19.5573 20.9684 17.782C20.9684 16.0066 19.522 14.564 17.7467 14.564ZM17.7467 4.01287C18.9651 4.01287 19.9556 5.00332 19.9556 6.22176C19.9556 7.4402 18.9651 8.43065 17.7467 8.43065C16.5282 8.43065 15.5378 7.4402 15.5378 6.22176C15.5378 5.00332 16.532 4.01287 17.7467 4.01287ZM7.22176 14.2051C6.00332 14.2051 5.01287 13.2147 5.01287 11.9963C5.01287 10.7778 6.00332 9.78738 7.22176 9.78738C8.4402 9.78738 9.43065 10.7778 9.43065 11.9963C9.43065 13.2147 8.43646 14.2051 7.22176 14.2051ZM17.7467 19.9871C16.5282 19.9871 15.5378 18.9967 15.5378 17.7782C15.5378 16.5598 16.5282 15.5694 17.7467 15.5694C18.9651 15.5694 19.9556 16.5598 19.9556 17.7782C19.9556 18.9967 18.9651 19.9871 17.7467 19.9871Z" fill="#3E2841"/>
</svg>
