<svg width="24" height="24" viewBox="0 0 24 24" fill="none" xmlns="http://www.w3.org/2000/svg">
<path fill-rule="evenodd" clip-rule="evenodd" d="M11.5004 4.15039C9.20291 4.15039 7.3331 6.06859 7.3331 8.44399C7.3331 9.90995 8.04588 11.203 9.13234 11.9775V11.9775C9.23106 12.0479 9.20984 12.2002 9.09565 12.2409V12.2409C8.05519 12.6119 7.09864 13.2226 6.30467 14.0398C4.92578 15.4591 4.15039 17.3848 4.15039 19.3938V19.3938C4.15039 19.6459 4.35483 19.8504 4.60703 19.8504H18.3938C18.6459 19.8504 18.8504 19.6459 18.8504 19.3938V19.3938C18.8504 17.3848 18.075 15.4591 16.6961 14.0398C15.9021 13.2226 14.9456 12.6119 13.9051 12.2409V12.2409C13.7909 12.2002 13.7697 12.0479 13.8684 11.9775V11.9775C14.9549 11.203 15.6677 9.90995 15.6677 8.44399C15.6677 6.06859 13.7979 4.15039 11.5004 4.15039ZM11.5004 5.06366C9.68015 5.06366 8.21188 6.58119 8.21188 8.44399C8.21188 10.3068 9.68015 11.8243 11.5004 11.8243C13.3206 11.8243 14.7889 10.3068 14.7889 8.44399C14.7889 6.58119 13.3206 5.06366 11.5004 5.06366ZM6.92303 14.6887C8.13627 13.4399 9.7827 12.7376 11.5004 12.7376C13.2181 12.7376 14.8645 13.4399 16.0778 14.6887C17.1479 15.7901 17.8037 17.237 17.9435 18.7735V18.7735C17.9515 18.8614 17.8823 18.9371 17.7941 18.9371L5.20669 18.9371C5.11848 18.9371 5.04932 18.8614 5.05731 18.7735V18.7735C5.19706 17.237 5.85291 15.7901 6.92303 14.6887Z" fill="#3E2841"/>
</svg>
