<svg width="28" height="24" viewBox="0 0 28 24" fill="none" xmlns="http://www.w3.org/2000/svg">
<path d="M18.795 7.19943C18.5216 6.93352 18.0784 6.93352 17.805 7.19943L9.41859 15.3564L6.19499 12.2211C5.92163 11.9552 5.47845 11.9552 5.20504 12.2211C4.93165 12.4869 4.93165 12.918 5.20504 13.1839L8.92362 16.8007C9.19689 17.0665 9.64041 17.0664 9.91357 16.8007L18.795 8.16229C19.0684 7.89641 19.0683 7.46533 18.795 7.19943Z" fill="#058C02"/>
<path d="M22.795 7.19943C22.5216 6.93352 22.0784 6.93352 21.805 7.19943L13.4186 15.3564L10.195 12.2211C9.92163 11.9552 9.47845 11.9552 9.20504 12.2211C8.93165 12.4869 8.93165 12.918 9.20504 13.1839L12.9236 16.8007C13.1969 17.0665 13.6404 17.0664 13.9136 16.8007L22.795 8.16229C23.0684 7.89641 23.0683 7.46533 22.795 7.19943Z" fill="#058C02"/>
</svg>
