<svg width="100" height="100" viewBox="0 0 100 100" fill="none" xmlns="http://www.w3.org/2000/svg">
<circle cx="50" cy="50" r="50" fill="white"/>
<path d="M70.856 36.4124H65.4212L62.4207 31.8834C61.2885 30.185 59.3071 29.166 57.269 29.166H44.8143C42.7763 29.166 40.7948 30.185 39.6626 31.8834L36.6621 36.4124H31.2274C27.774 36.4124 25 39.1864 25 42.6397V64.6053C25 68.0587 27.774 70.8327 31.2274 70.8327H70.856C74.3093 70.8327 77.0833 68.0587 77.0833 64.6053V42.6397C77.0833 39.1864 74.3093 36.4124 70.856 36.4124ZM51.0417 65.7376C43.2858 65.7376 37.0018 59.4536 37.0018 51.6977C37.0018 43.9418 43.2858 37.7145 51.0417 37.7145C58.7976 37.7145 65.0815 43.9984 65.0815 51.7543C65.0815 59.4536 58.7976 65.7376 51.0417 65.7376ZM70.0634 45.1873C70.0068 45.1873 69.9502 45.1873 69.837 45.1873H67.5725C66.5534 45.1307 65.7609 44.2815 65.8175 43.2625C65.8741 42.3001 66.61 41.5641 67.5725 41.5075H69.837C70.856 41.4509 71.7052 42.2435 71.7618 43.2625C71.8184 44.2815 71.0824 45.1307 70.0634 45.1873Z" fill="#D8D6EE"/>
<path d="M51.0414 43.9414C46.7389 43.9414 43.2289 47.4514 43.2289 51.7539C43.2289 56.0564 46.7389 59.5098 51.0414 59.5098C55.3439 59.5098 58.8539 55.9998 58.8539 51.6973C58.8539 47.3948 55.3439 43.9414 51.0414 43.9414Z" fill="#D8D6EE"/>
</svg>
