<svg width="24" height="24" viewBox="0 0 24 24" fill="none" xmlns="http://www.w3.org/2000/svg">
<path d="M13.625 6.135C13.418 6.135 13.25 5.967 13.25 5.76V4.5C13.25 4.08675 12.9132 3.75 12.5 3.75C12.0867 3.75 11.75 4.08675 11.75 4.5V5.76C11.75 5.967 11.582 6.135 11.375 6.135C11.168 6.135 11 5.96775 11 5.76V4.5C11 3.67275 11.6727 3 12.5 3C13.3272 3 14 3.67275 14 4.5V5.76C14 5.96775 13.832 6.135 13.625 6.135Z" fill="#3E2841"/>
<path d="M12.5 21C11.0525 21 9.875 19.8225 9.875 18.375C9.875 18.168 10.043 18 10.25 18C10.457 18 10.625 18.168 10.625 18.375C10.625 19.4085 11.4665 20.25 12.5 20.25C13.5335 20.25 14.375 19.4085 14.375 18.375C14.375 18.168 14.543 18 14.75 18C14.957 18 15.125 18.168 15.125 18.375C15.125 19.8225 13.9475 21 12.5 21Z" fill="#3E2841"/>
<path d="M18.875 18.75H6.125C5.50475 18.75 5 18.2452 5 17.625C5 17.2957 5.14325 16.9845 5.39375 16.77C6.57575 15.771 7.25 14.3175 7.25 12.7785V10.5C7.25 7.605 9.60499 5.25 12.5 5.25C15.395 5.25 17.75 7.605 17.75 10.5V12.7785C17.75 14.3182 18.4242 15.771 19.6002 16.7647C19.8567 16.9845 20 17.2957 20 17.625C20 18.2452 19.496 18.75 18.875 18.75ZM12.5 6C10.0182 6 8 8.01825 8 10.5V12.7785C8 14.5395 7.229 16.2007 5.88425 17.3377C5.798 17.4112 5.75 17.5155 5.75 17.625C5.75 17.832 5.918 18 6.125 18H18.875C19.082 18 19.25 17.832 19.25 17.625C19.25 17.5155 19.202 17.4112 19.1187 17.34C17.7717 16.2007 17 14.5387 17 12.7785V10.5C17 8.01825 14.9817 6 12.5 6Z" fill="#3E2841"/>
</svg>
