<svg width="24" height="24" viewBox="0 0 24 24" fill="none" xmlns="http://www.w3.org/2000/svg">
<mask id="mask0" mask-type="alpha" maskUnits="userSpaceOnUse" x="0" y="0" width="24" height="24">
<rect width="24" height="24" fill="#C4C4C4"/>
</mask>
<g mask="url(#mask0)">
<path d="M11.3158 9.33333C11.3158 6.38596 8.92982 4 5.98245 4C3.03508 4 0.64912 6.21053 0.64912 10.3158C0.64912 16 4.89474 19.9298 9.49123 20C10.2632 20 10.6842 19.5439 10.6842 18.7719V18.7368C10.6842 17.9649 10.4737 17.614 10.0877 17.5088C8.85965 17.2982 6.36842 16.6316 5.5614 14.6667C9.35088 14.6667 11.3158 12.2456 11.3158 9.33333ZM17.2456 14.6667C18.0526 16.6316 20.5439 17.2982 21.7719 17.5088C22.1579 17.614 22.3684 17.9649 22.3684 18.7368V18.7719C22.3684 19.5439 21.9474 20 21.1754 20C16.5789 19.9298 12.3333 16 12.3333 10.3158C12.3333 6.21053 14.7193 4 17.6667 4C20.614 4 23 6.38596 23 9.33333C23 12.2807 21.0702 14.6667 17.2456 14.6667Z" fill="url(#paint0_linear)"/>
</g>
<defs>
<linearGradient id="paint0_linear" x1="-7.41497" y1="25.5273" x2="23.3183" y2="24.4778" gradientUnits="userSpaceOnUse">
<stop offset="0.169544" stop-color="#FBF8D1"/>
<stop offset="1" stop-color="#FFD895"/>
</linearGradient>
</defs>
</svg>
