<svg width="190" height="54" viewBox="0 0 190 54" fill="none" xmlns="http://www.w3.org/2000/svg">
<path d="M27 54C41.9117 54 54 41.9117 54 27C54 12.0883 41.9117 0 27 0C12.0883 0 0 12.0883 0 27C0 41.9117 12.0883 54 27 54Z" fill="#355C7D"/>
<path d="M10.625 33L6.75 22.875H6.6875C6.76042 23.6771 6.79688 24.6302 6.79688 25.7344V33H5.57031V21.5781H7.57031L11.1875 31H11.25L14.8984 21.5781H16.8828V33H15.5547V25.6406C15.5547 24.7969 15.5911 23.8802 15.6641 22.8906H15.6016L11.6953 33H10.625Z" fill="#FDECDC"/>
<path d="M25.0938 33L24.8359 31.7812H24.7734C24.3464 32.3177 23.9193 32.6823 23.4922 32.875C23.0703 33.0625 22.5417 33.1562 21.9062 33.1562C21.0573 33.1562 20.3906 32.9375 19.9062 32.5C19.4271 32.0625 19.1875 31.4401 19.1875 30.6328C19.1875 28.9036 20.5703 27.9974 23.3359 27.9141L24.7891 27.8672V27.3359C24.7891 26.6641 24.6432 26.1693 24.3516 25.8516C24.0651 25.5286 23.6042 25.3672 22.9688 25.3672C22.2552 25.3672 21.4479 25.5859 20.5469 26.0234L20.1484 25.0312C20.5703 24.8021 21.0312 24.6224 21.5312 24.4922C22.0365 24.362 22.5417 24.2969 23.0469 24.2969C24.0677 24.2969 24.8229 24.5234 25.3125 24.9766C25.8073 25.4297 26.0547 26.1562 26.0547 27.1562V33H25.0938ZM22.1641 32.0859C22.9714 32.0859 23.6042 31.8646 24.0625 31.4219C24.526 30.9792 24.7578 30.3594 24.7578 29.5625V28.7891L23.4609 28.8438C22.4297 28.8802 21.6849 29.0417 21.2266 29.3281C20.7734 29.6094 20.5469 30.0495 20.5469 30.6484C20.5469 31.1172 20.6875 31.474 20.9688 31.7188C21.2552 31.9635 21.6536 32.0859 22.1641 32.0859Z" fill="#FDECDC"/>
<path d="M31.5 32.0859C31.7292 32.0859 31.9505 32.0703 32.1641 32.0391C32.3776 32.0026 32.5469 31.9661 32.6719 31.9297V32.9219C32.5312 32.9896 32.3229 33.0443 32.0469 33.0859C31.776 33.1328 31.5312 33.1562 31.3125 33.1562C29.6562 33.1562 28.8281 32.2839 28.8281 30.5391V25.4453H27.6016V24.8203L28.8281 24.2812L29.375 22.4531H30.125V24.4375H32.6094V25.4453H30.125V30.4844C30.125 31 30.2474 31.3958 30.4922 31.6719C30.737 31.9479 31.0729 32.0859 31.5 32.0859Z" fill="#FDECDC"/>
<path d="M37.8125 33.1562C36.5729 33.1562 35.612 32.776 34.9297 32.0156C34.2526 31.25 33.9141 30.1693 33.9141 28.7734C33.9141 27.3411 34.2578 26.2344 34.9453 25.4531C35.638 24.6719 36.6224 24.2812 37.8984 24.2812C38.3099 24.2812 38.7214 24.3255 39.1328 24.4141C39.5443 24.5026 39.8672 24.6068 40.1016 24.7266L39.7031 25.8281C39.4167 25.7135 39.1042 25.6198 38.7656 25.5469C38.4271 25.4688 38.1276 25.4297 37.8672 25.4297C36.1276 25.4297 35.2578 26.5391 35.2578 28.7578C35.2578 29.8099 35.4688 30.6172 35.8906 31.1797C36.3177 31.7422 36.9479 32.0234 37.7812 32.0234C38.4948 32.0234 39.2266 31.8698 39.9766 31.5625V32.7109C39.4036 33.0078 38.6823 33.1562 37.8125 33.1562Z" fill="#FDECDC"/>
<path d="M47.875 33V27.4609C47.875 26.763 47.7161 26.2422 47.3984 25.8984C47.0807 25.5547 46.5833 25.3828 45.9062 25.3828C45.0052 25.3828 44.3464 25.6276 43.9297 26.1172C43.5182 26.6068 43.3125 27.4089 43.3125 28.5234V33H42.0156V20.8438H43.3125V24.5234C43.3125 24.9661 43.2917 25.3333 43.25 25.625H43.3281C43.5833 25.2135 43.9453 24.8906 44.4141 24.6562C44.888 24.4167 45.4271 24.2969 46.0312 24.2969C47.0781 24.2969 47.862 24.5469 48.3828 25.0469C48.9089 25.5417 49.1719 26.3307 49.1719 27.4141V33H47.875Z" fill="#FDECDC"/>
<path d="M58.0176 23.3672H59.582L61.6914 28.8604C62.1543 30.1143 62.4414 31.0195 62.5527 31.5762H62.623C62.6992 31.2773 62.8574 30.7676 63.0977 30.0469C63.3438 29.3203 64.1406 27.0938 65.4883 23.3672H67.0527L62.9131 34.3359C62.5029 35.4199 62.0225 36.1875 61.4717 36.6387C60.9268 37.0957 60.2559 37.3242 59.459 37.3242C59.0137 37.3242 58.5742 37.2744 58.1406 37.1748V36.0059C58.4629 36.0762 58.8232 36.1113 59.2217 36.1113C60.2236 36.1113 60.9385 35.5488 61.3662 34.4238L61.9023 33.0527L58.0176 23.3672Z" fill="#355C7D"/>
<path d="M76.9316 28.1748C76.9316 29.7451 76.5361 30.9727 75.7451 31.8574C74.9541 32.7363 73.8613 33.1758 72.4668 33.1758C71.6055 33.1758 70.8408 32.9736 70.1729 32.5693C69.5049 32.165 68.9893 31.585 68.626 30.8291C68.2627 30.0732 68.0811 29.1885 68.0811 28.1748C68.0811 26.6045 68.4736 25.3828 69.2588 24.5098C70.0439 23.6309 71.1338 23.1914 72.5283 23.1914C73.876 23.1914 74.9453 23.6396 75.7363 24.5361C76.5332 25.4326 76.9316 26.6455 76.9316 28.1748ZM69.5928 28.1748C69.5928 29.4053 69.8389 30.3428 70.3311 30.9873C70.8232 31.6318 71.5469 31.9541 72.502 31.9541C73.457 31.9541 74.1807 31.6348 74.6729 30.9961C75.1709 30.3516 75.4199 29.4111 75.4199 28.1748C75.4199 26.9502 75.1709 26.0215 74.6729 25.3887C74.1807 24.75 73.4512 24.4307 72.4844 24.4307C71.5293 24.4307 70.8086 24.7441 70.3223 25.3711C69.8359 25.998 69.5928 26.9326 69.5928 28.1748Z" fill="#355C7D"/>
<path d="M80.8691 23.3672V29.6162C80.8691 30.4014 81.0479 30.9873 81.4053 31.374C81.7627 31.7607 82.3223 31.9541 83.084 31.9541C84.0918 31.9541 84.8271 31.6787 85.29 31.1279C85.7588 30.5771 85.9932 29.6777 85.9932 28.4297V23.3672H87.4521V33H86.248L86.0371 31.708H85.958C85.6592 32.1826 85.2432 32.5459 84.71 32.7979C84.1826 33.0498 83.5791 33.1758 82.8994 33.1758C81.7275 33.1758 80.8486 32.8975 80.2627 32.3408C79.6826 31.7842 79.3926 30.8936 79.3926 29.6689V23.3672H80.8691Z" fill="#355C7D"/>
<path d="M94.9492 23.1914C95.377 23.1914 95.7607 23.2266 96.1006 23.2969L95.8984 24.6504C95.5 24.5625 95.1484 24.5186 94.8438 24.5186C94.0645 24.5186 93.3965 24.835 92.8398 25.4678C92.2891 26.1006 92.0137 26.8887 92.0137 27.832V33H90.5547V23.3672H91.7588L91.9258 25.1514H91.9961C92.3535 24.5244 92.7842 24.041 93.2881 23.7012C93.792 23.3613 94.3457 23.1914 94.9492 23.1914Z" fill="#355C7D"/>
<path d="M104.116 30.3721C104.116 31.2686 103.782 31.96 103.114 32.4463C102.446 32.9326 101.509 33.1758 100.302 33.1758C99.0244 33.1758 98.0283 32.9736 97.3135 32.5693V31.2158C97.7764 31.4502 98.2715 31.6348 98.7988 31.7695C99.332 31.9043 99.8447 31.9717 100.337 31.9717C101.099 31.9717 101.685 31.8516 102.095 31.6113C102.505 31.3652 102.71 30.9932 102.71 30.4951C102.71 30.1201 102.546 29.8008 102.218 29.5371C101.896 29.2676 101.263 28.9512 100.319 28.5879C99.4229 28.2539 98.7842 27.9639 98.4033 27.7178C98.0283 27.4658 97.7471 27.1816 97.5596 26.8652C97.3779 26.5488 97.2871 26.1709 97.2871 25.7314C97.2871 24.9463 97.6064 24.3281 98.2451 23.877C98.8838 23.4199 99.7598 23.1914 100.873 23.1914C101.91 23.1914 102.924 23.4023 103.914 23.8242L103.396 25.0107C102.429 24.6123 101.553 24.4131 100.768 24.4131C100.076 24.4131 99.5547 24.5215 99.2031 24.7383C98.8516 24.9551 98.6758 25.2539 98.6758 25.6348C98.6758 25.8926 98.7402 26.1123 98.8691 26.2939C99.0039 26.4756 99.2178 26.6484 99.5107 26.8125C99.8037 26.9766 100.366 27.2139 101.198 27.5244C102.341 27.9404 103.111 28.3594 103.51 28.7812C103.914 29.2031 104.116 29.7334 104.116 30.3721Z" fill="#355C7D"/>
<path d="M110.567 33.1758C109.144 33.1758 108.019 32.7422 107.192 31.875C106.372 31.0078 105.962 29.8037 105.962 28.2627C105.962 26.71 106.343 25.4766 107.104 24.5625C107.872 23.6484 108.9 23.1914 110.189 23.1914C111.396 23.1914 112.352 23.5898 113.055 24.3867C113.758 25.1777 114.109 26.2236 114.109 27.5244V28.4473H107.474C107.503 29.5781 107.787 30.4365 108.326 31.0225C108.871 31.6084 109.636 31.9014 110.62 31.9014C111.657 31.9014 112.683 31.6846 113.696 31.251V32.5518C113.181 32.7744 112.691 32.9326 112.229 33.0264C111.771 33.126 111.218 33.1758 110.567 33.1758ZM110.172 24.4131C109.398 24.4131 108.78 24.665 108.317 25.1689C107.86 25.6729 107.591 26.3701 107.509 27.2607H112.545C112.545 26.3408 112.34 25.6377 111.93 25.1514C111.52 24.6592 110.934 24.4131 110.172 24.4131Z" fill="#355C7D"/>
<path d="M120.455 33.1758C119.061 33.1758 117.979 32.748 117.212 31.8926C116.45 31.0312 116.069 29.8154 116.069 28.2451C116.069 26.6338 116.456 25.3887 117.229 24.5098C118.009 23.6309 119.116 23.1914 120.552 23.1914C121.015 23.1914 121.478 23.2412 121.94 23.3408C122.403 23.4404 122.767 23.5576 123.03 23.6924L122.582 24.9316C122.26 24.8027 121.908 24.6973 121.527 24.6152C121.146 24.5273 120.81 24.4834 120.517 24.4834C118.56 24.4834 117.581 25.7314 117.581 28.2275C117.581 29.4111 117.818 30.3193 118.293 30.9521C118.773 31.585 119.482 31.9014 120.42 31.9014C121.223 31.9014 122.046 31.7285 122.89 31.3828V32.6748C122.245 33.0088 121.434 33.1758 120.455 33.1758Z" fill="#355C7D"/>
<path d="M133.498 28.1748C133.498 29.7451 133.103 30.9727 132.312 31.8574C131.521 32.7363 130.428 33.1758 129.033 33.1758C128.172 33.1758 127.407 32.9736 126.739 32.5693C126.071 32.165 125.556 31.585 125.192 30.8291C124.829 30.0732 124.647 29.1885 124.647 28.1748C124.647 26.6045 125.04 25.3828 125.825 24.5098C126.61 23.6309 127.7 23.1914 129.095 23.1914C130.442 23.1914 131.512 23.6396 132.303 24.5361C133.1 25.4326 133.498 26.6455 133.498 28.1748ZM126.159 28.1748C126.159 29.4053 126.405 30.3428 126.897 30.9873C127.39 31.6318 128.113 31.9541 129.068 31.9541C130.023 31.9541 130.747 31.6348 131.239 30.9961C131.737 30.3516 131.986 29.4111 131.986 28.1748C131.986 26.9502 131.737 26.0215 131.239 25.3887C130.747 24.75 130.018 24.4307 129.051 24.4307C128.096 24.4307 127.375 24.7441 126.889 25.3711C126.402 25.998 126.159 26.9326 126.159 28.1748Z" fill="#355C7D"/>
<path d="M142.656 33V26.7686C142.656 25.9834 142.478 25.3975 142.12 25.0107C141.763 24.624 141.203 24.4307 140.441 24.4307C139.434 24.4307 138.695 24.7031 138.227 25.248C137.758 25.793 137.523 26.6924 137.523 27.9463V33H136.064V23.3672H137.251L137.488 24.6855H137.559C137.857 24.2109 138.276 23.8447 138.815 23.5869C139.354 23.3232 139.955 23.1914 140.617 23.1914C141.777 23.1914 142.65 23.4727 143.236 24.0352C143.822 24.5918 144.115 25.4854 144.115 26.7158V33H142.656Z" fill="#355C7D"/>
<path d="M153.678 31.708H153.599C152.925 32.6865 151.917 33.1758 150.575 33.1758C149.315 33.1758 148.334 32.7451 147.631 31.8838C146.934 31.0225 146.585 29.7979 146.585 28.21C146.585 26.6221 146.937 25.3887 147.64 24.5098C148.343 23.6309 149.321 23.1914 150.575 23.1914C151.882 23.1914 152.884 23.666 153.581 24.6152H153.695L153.634 23.9209L153.599 23.2441V19.3242H155.058V33H153.871L153.678 31.708ZM150.76 31.9541C151.756 31.9541 152.477 31.6846 152.922 31.1455C153.373 30.6006 153.599 29.7246 153.599 28.5176V28.21C153.599 26.8447 153.37 25.8721 152.913 25.292C152.462 24.7061 151.738 24.4131 150.742 24.4131C149.887 24.4131 149.23 24.7471 148.773 25.415C148.322 26.0771 148.097 27.0146 148.097 28.2275C148.097 29.458 148.322 30.3867 148.773 31.0137C149.225 31.6406 149.887 31.9541 150.76 31.9541Z" fill="#355C7D"/>
<path d="M164.752 33V26.7686C164.752 25.9834 164.573 25.3975 164.216 25.0107C163.858 24.624 163.299 24.4307 162.537 24.4307C161.523 24.4307 160.782 24.7061 160.313 25.2568C159.851 25.8076 159.619 26.71 159.619 27.9639V33H158.16V19.3242H159.619V23.4639C159.619 23.9619 159.596 24.375 159.549 24.7031H159.637C159.924 24.2402 160.331 23.877 160.858 23.6133C161.392 23.3438 161.998 23.209 162.678 23.209C163.855 23.209 164.737 23.4902 165.323 24.0527C165.915 24.6094 166.211 25.4971 166.211 26.7158V33H164.752Z" fill="#355C7D"/>
<path d="M175.141 33L174.851 31.6289H174.78C174.3 32.2324 173.819 32.6426 173.339 32.8594C172.864 33.0703 172.27 33.1758 171.555 33.1758C170.6 33.1758 169.85 32.9297 169.305 32.4375C168.766 31.9453 168.496 31.2451 168.496 30.3369C168.496 28.3916 170.052 27.3721 173.163 27.2783L174.798 27.2256V26.6279C174.798 25.8721 174.634 25.3154 174.306 24.958C173.983 24.5947 173.465 24.4131 172.75 24.4131C171.947 24.4131 171.039 24.6592 170.025 25.1514L169.577 24.0352C170.052 23.7773 170.57 23.5752 171.133 23.4287C171.701 23.2822 172.27 23.209 172.838 23.209C173.986 23.209 174.836 23.4639 175.387 23.9736C175.943 24.4834 176.222 25.3008 176.222 26.4258V33H175.141ZM171.845 31.9717C172.753 31.9717 173.465 31.7227 173.98 31.2246C174.502 30.7266 174.763 30.0293 174.763 29.1328V28.2627L173.304 28.3242C172.144 28.3652 171.306 28.5469 170.79 28.8691C170.28 29.1855 170.025 29.6807 170.025 30.3545C170.025 30.8818 170.184 31.2832 170.5 31.5586C170.822 31.834 171.271 31.9717 171.845 31.9717Z" fill="#355C7D"/>
<path d="M180.695 33H179.236V19.3242H180.695V33Z" fill="#355C7D"/>
<path d="M188.131 24.501H185.679V33H184.22V24.501H182.497V23.8418L184.22 23.3145V22.7783C184.22 20.4111 185.254 19.2275 187.322 19.2275C187.832 19.2275 188.43 19.3301 189.115 19.5352L188.737 20.7041C188.175 20.5225 187.694 20.4316 187.296 20.4316C186.745 20.4316 186.338 20.6162 186.074 20.9854C185.811 21.3486 185.679 21.9346 185.679 22.7432V23.3672H188.131V24.501Z" fill="#355C7D"/>
</svg>
