<svg width="24" height="24" viewBox="0 0 24 24" fill="none" xmlns="http://www.w3.org/2000/svg">
<path d="M16.8412 7.71454H7.1582L11.9997 11.8644L16.8412 7.71454Z" fill="#355C7D"/>
<path d="M12.0001 12.8573C11.8978 12.8573 11.7988 12.8207 11.7212 12.7539L6.42871 8.21753V16.2859H17.5716V8.21753L12.2791 12.7539C12.2015 12.8207 12.1025 12.8573 12.0001 12.8573Z" fill="#355C7D"/>
<path d="M12 0C5.37263 0 0 5.37263 0 12C0 18.6274 5.37263 24 12 24C18.6274 24 24 18.6274 24 12C23.9925 5.37577 18.6242 0.00753348 12 0ZM18.4286 16.7143C18.4286 16.951 18.2367 17.1429 18 17.1429H6C5.76332 17.1429 5.57143 16.951 5.57143 16.7143V7.28571C5.57143 7.04904 5.76332 6.85714 6 6.85714H18C18.2367 6.85714 18.4286 7.04904 18.4286 7.28571V16.7143Z" fill="#355C7D"/>
</svg>
