<svg width="24" height="24" viewBox="0 0 24 24" fill="none" xmlns="http://www.w3.org/2000/svg">
<path d="M14.1572 13.8242L13.2396 15.5814C13.1392 15.7739 12.9109 15.8609 12.7077 15.7841C10.6357 14.9998 9.00035 13.364 8.21666 11.2919C8.13986 11.0887 8.22691 10.8604 8.41943 10.7599L10.1766 9.84273L9.62249 6.70315C8.95891 6.32961 8.14697 6.33652 7.48968 6.72094C6.83238 7.10535 6.4285 7.80973 6.42871 8.57124C6.43436 13.5394 10.4606 17.5656 15.4287 17.5712C16.1898 17.5712 16.894 17.1676 17.2784 16.5105C17.6628 15.8536 17.6699 15.0419 17.2968 14.3783L14.1572 13.8242Z" fill="#355C7D"/>
<path d="M12 0C5.37263 0 0 5.37263 0 12C0 18.6274 5.37263 24 12 24C18.6274 24 24 18.6274 24 12C23.9925 5.37577 18.6242 0.00753348 12 0ZM15.4286 18.4286C9.9871 18.4225 5.5775 14.0129 5.57143 8.57143C5.57164 7.46191 6.18415 6.44301 7.16392 5.92236C8.1439 5.40193 9.33105 5.4647 10.2506 6.0858C10.3468 6.15067 10.4125 6.25195 10.4326 6.36642L11.0755 10.0036C11.1079 10.1878 11.0175 10.3715 10.8518 10.4579L9.16323 11.34C9.8538 12.9011 11.101 14.1489 12.6617 14.8401L13.5429 13.1495C13.6293 12.9837 13.8131 12.8933 13.9972 12.9258L17.6348 13.5686C17.7491 13.5887 17.8502 13.6542 17.915 13.7503C18.5357 14.6698 18.5983 15.8569 18.0776 16.8365C17.5568 17.8163 16.5381 18.4286 15.4286 18.4286Z" fill="#355C7D"/>
</svg>
