<svg width="32" height="32" viewBox="0 0 32 32" fill="none" xmlns="http://www.w3.org/2000/svg">
<circle cx="16" cy="16" r="16" fill="black" fill-opacity="0.04"/>
<path d="M24.7801 23.7196L19.6614 18.6009C20.6529 17.3762 21.2498 15.8199 21.2498 14.1249C21.2498 10.1965 18.0534 7 14.1249 7C10.1964 7 7 10.1964 7 14.1249C7 18.0534 10.1965 21.2498 14.1249 21.2498C15.8199 21.2498 17.3762 20.6529 18.6009 19.6614L23.7196 24.7801C23.8658 24.9263 24.0578 24.9998 24.2498 24.9998C24.4419 24.9998 24.6339 24.9263 24.7801 24.7801C25.0733 24.4868 25.0733 24.0128 24.7801 23.7196ZM14.1249 19.7498C11.023 19.7498 8.5 17.2269 8.5 14.1249C8.5 11.0229 11.023 8.49996 14.1249 8.49996C17.2269 8.49996 19.7499 11.0229 19.7499 14.1249C19.7499 17.2269 17.2269 19.7498 14.1249 19.7498Z" fill="#4B5064"/>
</svg>
