<svg width="24" height="24" viewBox="0 0 24 24" fill="none" xmlns="http://www.w3.org/2000/svg">
<path fill-rule="evenodd" clip-rule="evenodd" d="M12 0C5.37258 0 0 5.37258 0 12C0 18.6274 5.37258 24 12 24C18.6274 24 24 18.6274 24 12C24 5.37258 18.6274 0 12 0ZM9.36154 5.63857C10.0442 5.6075 10.2624 5.5999 12.0005 5.5999H11.9985C13.7372 5.5999 13.9545 5.6075 14.6372 5.63857C15.3185 5.66977 15.7839 5.77764 16.1919 5.93591C16.6132 6.09924 16.9692 6.31791 17.3252 6.67391C17.6812 7.02965 17.8999 7.38672 18.0639 7.80766C18.2212 8.2146 18.3292 8.67967 18.3612 9.36101C18.3919 10.0437 18.3999 10.2618 18.3999 12C18.3999 13.7381 18.3919 13.9557 18.3612 14.6384C18.3292 15.3195 18.2212 15.7847 18.0639 16.1917C17.8999 16.6126 17.6812 16.9696 17.3252 17.3254C16.9696 17.6814 16.6131 17.9006 16.1923 18.064C15.7851 18.2223 15.3195 18.3302 14.6381 18.3614C13.9555 18.3924 13.738 18.4 11.9997 18.4C10.2617 18.4 10.0437 18.3924 9.36101 18.3614C8.6798 18.3302 8.2146 18.2223 7.80739 18.064C7.38672 17.9006 7.02965 17.6814 6.67405 17.3254C6.31818 16.9696 6.09951 16.6126 5.93591 16.1916C5.77777 15.7847 5.6699 15.3196 5.63857 14.6383C5.60764 13.9556 5.5999 13.7381 5.5999 12C5.5999 10.2618 5.6079 10.0435 5.63844 9.36087C5.6691 8.6798 5.7771 8.2146 5.93577 7.80753C6.09977 7.38672 6.31844 7.02965 6.67445 6.67391C7.03018 6.31804 7.38725 6.09937 7.80819 5.93591C8.21513 5.77764 8.6802 5.66977 9.36154 5.63857Z" fill="url(#paint0_linear)"/>
<path fill-rule="evenodd" clip-rule="evenodd" d="M11.4265 6.75319C11.538 6.75301 11.6579 6.75307 11.7873 6.75312L12.0006 6.75319C13.7094 6.75319 13.912 6.75932 14.5868 6.78999C15.2108 6.81852 15.5495 6.92279 15.7751 7.01039C16.0737 7.12639 16.2867 7.26506 16.5105 7.48906C16.7345 7.71306 16.8732 7.9264 16.9895 8.22507C17.0771 8.4504 17.1815 8.78907 17.2099 9.41308C17.2405 10.0878 17.2472 10.2904 17.2472 11.9984C17.2472 13.7065 17.2405 13.9091 17.2099 14.5838C17.1813 15.2078 17.0771 15.5465 16.9895 15.7718C16.8735 16.0705 16.7345 16.2832 16.5105 16.507C16.2865 16.731 16.0739 16.8697 15.7751 16.9857C15.5497 17.0737 15.2108 17.1777 14.5868 17.2062C13.9121 17.2369 13.7094 17.2436 12.0006 17.2436C10.2917 17.2436 10.0891 17.2369 9.41447 17.2062C8.79046 17.1774 8.45179 17.0732 8.22605 16.9856C7.92739 16.8696 7.71405 16.7309 7.49005 16.5069C7.26604 16.2829 7.12738 16.0701 7.01111 15.7713C6.92351 15.5459 6.81911 15.2073 6.79071 14.5833C6.76004 13.9086 6.75391 13.7059 6.75391 11.9968C6.75391 10.2878 6.76004 10.0862 6.79071 9.41148C6.81924 8.78747 6.92351 8.4488 7.01111 8.2232C7.12711 7.92453 7.26604 7.7112 7.49005 7.48719C7.71405 7.26319 7.92739 7.12452 8.22605 7.00826C8.45166 6.92026 8.79046 6.81625 9.41447 6.78759C10.0049 6.76092 10.2337 6.75292 11.4265 6.75159V6.75319ZM15.4169 7.81591C14.9929 7.81591 14.6489 8.15951 14.6489 8.58365C14.6489 9.00766 14.9929 9.35166 15.4169 9.35166C15.8409 9.35166 16.1849 9.00766 16.1849 8.58365C16.1849 8.15965 15.8409 7.81564 15.4169 7.81564V7.81591ZM8.71399 12.0001C8.71399 10.1851 10.1855 8.71347 12.0006 8.7134C13.8156 8.7134 15.2869 10.185 15.2869 12.0001C15.2869 13.8152 13.8158 15.2861 12.0007 15.2861C10.1856 15.2861 8.71399 13.8152 8.71399 12.0001Z" fill="url(#paint1_linear)"/>
<path d="M12.0005 9.8667C13.1787 9.8667 14.1339 10.8218 14.1339 12.0001C14.1339 13.1782 13.1787 14.1334 12.0005 14.1334C10.8223 14.1334 9.86719 13.1782 9.86719 12.0001C9.86719 10.8218 10.8223 9.8667 12.0005 9.8667Z" fill="url(#paint2_linear)"/>
<defs>
<linearGradient id="paint0_linear" x1="34.0568" y1="50.2499" x2="-19.9092" y2="47.5442" gradientUnits="userSpaceOnUse">
<stop stop-color="#E6D197"/>
<stop stop-color="#FAF5BD"/>
<stop offset="0.129569" stop-color="#E8D696"/>
<stop offset="0.28783" stop-color="#CDB575"/>
<stop offset="0.440477" stop-color="#D0B26B"/>
<stop offset="0.607885" stop-color="#D0AB5E"/>
<stop offset="0.963917" stop-color="#C1913D"/>
</linearGradient>
<linearGradient id="paint1_linear" x1="21.6443" y1="28.7191" x2="-1.95078" y2="27.536" gradientUnits="userSpaceOnUse">
<stop stop-color="#E6D197"/>
<stop stop-color="#FAF5BD"/>
<stop offset="0.129569" stop-color="#E8D696"/>
<stop offset="0.28783" stop-color="#CDB575"/>
<stop offset="0.440477" stop-color="#D0B26B"/>
<stop offset="0.607885" stop-color="#D0AB5E"/>
<stop offset="0.963917" stop-color="#C1913D"/>
</linearGradient>
<linearGradient id="paint2_linear" x1="15.9218" y1="18.8001" x2="6.32774" y2="18.3191" gradientUnits="userSpaceOnUse">
<stop stop-color="#E6D197"/>
<stop stop-color="#FAF5BD"/>
<stop offset="0.129569" stop-color="#E8D696"/>
<stop offset="0.28783" stop-color="#CDB575"/>
<stop offset="0.440477" stop-color="#D0B26B"/>
<stop offset="0.607885" stop-color="#D0AB5E"/>
<stop offset="0.963917" stop-color="#C1913D"/>
</linearGradient>
</defs>
</svg>
