<svg width="212" height="17" viewBox="0 0 212 17" fill="none" xmlns="http://www.w3.org/2000/svg">
<path d="M15.3936 15.957L15.2861 16.0645C15.236 16.0645 15.0999 16.0609 14.8779 16.0537C13.8968 16.0179 13.2845 16 13.041 16C12.6758 16 12.0957 16.0215 11.3008 16.0645C11.2721 15.8926 11.1361 15.6061 10.8926 15.2051L8.22852 10.7578L7.03613 8.94238C6.88574 8.72038 6.67448 8.50195 6.40234 8.28711L6.52051 7.92188C6.68522 7.92904 6.80697 7.93262 6.88574 7.93262C7.58757 7.93262 8.139 7.82161 8.54004 7.59961C8.90527 7.39909 9.24186 7.04818 9.5498 6.54688C9.85775 6.04557 10.0117 5.44759 10.0117 4.75293C10.0117 3.54264 9.56055 2.72624 8.6582 2.30371C8.22852 2.10319 7.60189 2.00293 6.77832 2.00293C6.42025 2.00293 6.0765 2.03158 5.74707 2.08887C5.67546 2.79069 5.63965 3.98665 5.63965 5.67676V11.2949C5.63965 12.9993 5.6862 14.1094 5.7793 14.625C5.8151 14.8327 5.93685 14.9652 6.14453 15.0225C6.25195 15.0511 6.6709 15.0869 7.40137 15.1299L7.50879 15.2373V15.957L7.41211 16.0645C6.69596 16.0215 5.5931 16 4.10352 16C2.5638 16 1.46094 16.0215 0.794922 16.0645L0.6875 15.9678V15.2373L0.794922 15.1299C1.52539 15.0869 1.94434 15.0511 2.05176 15.0225C2.25944 14.9652 2.38118 14.8327 2.41699 14.625C2.51009 14.1094 2.55664 12.9993 2.55664 11.2949V5.6123C2.55664 3.90788 2.51009 2.79785 2.41699 2.28223C2.38118 2.07454 2.25944 1.94206 2.05176 1.88477C1.94434 1.85612 1.52539 1.82031 0.794922 1.77734L0.6875 1.66992V0.939453L0.794922 0.842773C1.49674 0.885742 2.59961 0.907227 4.10352 0.907227C4.97721 0.907227 5.6862 0.896484 6.23047 0.875C7.31185 0.832031 8.12109 0.810547 8.6582 0.810547C9.89714 0.810547 10.8066 0.921549 11.3867 1.14355C12.1673 1.44434 12.6901 1.9528 12.9551 2.66895C13.084 3.01986 13.1484 3.43522 13.1484 3.91504C13.1484 5.86296 12.0527 7.24512 9.86133 8.06152C10.2194 8.66309 10.599 9.27181 11 9.8877L12.6543 12.4336C13.6283 13.9375 14.2764 14.7933 14.5986 15.001C14.7633 15.1084 14.9925 15.1621 15.2861 15.1621L15.3936 15.2695V15.957ZM27.9785 12.4121C27.821 13.4577 27.7422 14.6393 27.7422 15.957L27.6348 16.0645L19.8252 16C18.5218 16 17.6016 16.0215 17.0645 16.0645L16.9571 15.957V15.6562L17.0108 15.5273C17.5407 15.1908 17.8272 14.9795 17.8702 14.8936C17.9346 14.7575 17.974 14.2812 17.9883 13.4648L18.0205 11.0586V5.6123C18.0205 3.90788 17.974 2.79785 17.8809 2.28223C17.8451 2.07454 17.7233 1.94206 17.5157 1.88477C17.4082 1.85612 16.9893 1.82031 16.2588 1.77734L16.1514 1.66992V0.939453L16.2588 0.842773C16.9821 0.885742 18.0993 0.907227 19.6104 0.907227C20.9567 0.907227 23.517 0.885742 27.291 0.842773L27.4092 0.928711L27.2696 2.12109C27.2266 2.50065 27.1944 2.82292 27.1729 3.08789L27.0977 4.08691L26.9903 4.20508H26.3672L26.2598 4.09766C26.2526 3.1237 26.1953 2.56868 26.0879 2.43262C26.0091 2.33236 25.6224 2.25358 24.9278 2.19629C24.2403 2.139 23.6351 2.11035 23.1123 2.11035C22.4893 2.11035 21.8591 2.13542 21.2217 2.18555C21.1429 2.9375 21.1035 3.97949 21.1035 5.31152V7.53516C21.6693 7.57096 22.1276 7.58887 22.4785 7.58887L23.8858 7.57812C24.5446 7.57096 24.917 7.51725 25.003 7.41699C25.1175 7.28809 25.1927 6.80469 25.2285 5.9668L25.336 5.85938H26.002L26.1094 5.9668C26.0808 6.76888 26.0664 7.50293 26.0664 8.16895C26.0664 8.89225 26.0808 9.68359 26.1094 10.543L26.002 10.6396H25.2823L25.1748 10.5322C25.1748 9.70866 25.1175 9.22168 25.003 9.07129C24.8884 8.91374 24.541 8.8099 23.961 8.75977C23.5241 8.72396 23.0586 8.70605 22.5645 8.70605C22.0417 8.70605 21.5547 8.72396 21.1035 8.75977V12.0361C21.1035 12.9743 21.1215 13.8838 21.1573 14.7646H22.6182C24.7093 14.7646 25.9912 14.6823 26.4639 14.5176C26.5427 14.4889 26.6 14.4495 26.6358 14.3994C26.7074 14.2992 26.7754 14.0843 26.8399 13.7549L27.0977 12.4229L27.2051 12.3047H27.8604L27.9785 12.4121ZM45.1505 15.957L45.0538 16.0645C43.4639 16.0215 42.5043 16 42.1749 16C40.8572 16 39.6326 16.0215 38.501 16.0645L38.4044 15.957V15.2803L38.5118 15.1621L39.4464 15.1084C39.8402 15.0869 40.0372 14.9473 40.0372 14.6895C40.0372 14.5391 39.9369 14.2025 39.7364 13.6797L38.8663 11.4131C37.878 11.3988 36.8682 11.3916 35.837 11.3916C35.2784 11.3916 34.4477 11.3988 33.3448 11.4131L32.8721 12.7236C32.5141 13.7191 32.335 14.3421 32.335 14.5928C32.335 14.8649 32.5033 15.026 32.8399 15.0762C33.0261 15.1048 33.3913 15.1335 33.9356 15.1621L34.043 15.2695V15.957L33.9356 16.0645C32.6107 16.0215 31.7585 16 31.379 16C31.0854 16 30.3585 16.0215 29.1983 16.0645L29.0909 15.9678V15.2695L29.2091 15.1621C29.9467 15.1191 30.3979 14.9723 30.5626 14.7217C30.7344 14.471 31.3682 12.9779 32.4639 10.2422L35.2676 3.22754C35.4753 2.68327 35.7904 1.86328 36.213 0.767578H37.7383L43.4317 14.1631C43.6537 14.6715 43.8542 14.958 44.0333 15.0225C44.2696 15.1084 44.6098 15.1514 45.0538 15.1514L45.1505 15.2695V15.957ZM38.3399 10.1777L36.0411 4.54883L33.8389 10.1777C34.4262 10.1992 35.1889 10.21 36.127 10.21C37.0365 10.21 37.7742 10.1992 38.3399 10.1777ZM57.961 12.4121C57.8035 13.4577 57.7247 14.6393 57.7247 15.957L57.6173 16.0645L49.8077 16C48.5043 16 47.5841 16.0215 47.047 16.0645L46.9396 15.957V15.6562L46.9933 15.5273C47.5232 15.1908 47.8097 14.9795 47.8526 14.8936C47.9171 14.7646 47.9565 14.2884 47.9708 13.4648L48.003 11.0586V5.6123C48.003 3.90788 47.9565 2.79785 47.8634 2.28223C47.8276 2.07454 47.7058 1.94206 47.4981 1.88477C47.3907 1.85612 46.9718 1.82031 46.2413 1.77734L46.1339 1.66992V0.939453L46.2413 0.842773C46.9789 0.885742 48.0603 0.907227 49.4855 0.907227C50.9607 0.907227 52.0815 0.885742 52.8478 0.842773L52.9552 0.939453V1.68066L52.8478 1.77734C52.1173 1.82031 51.6983 1.85612 51.5909 1.88477C51.3832 1.94206 51.2615 2.07454 51.2257 2.28223C51.1326 2.79785 51.086 3.90788 51.086 5.6123V12.0361C51.086 12.9743 51.1039 13.8838 51.1398 14.7646H52.6007C54.6918 14.7646 55.9737 14.6823 56.4464 14.5176C56.5252 14.4889 56.5825 14.4495 56.6183 14.3994C56.6899 14.2992 56.7579 14.0843 56.8224 13.7549L57.0802 12.4229L57.1876 12.3047H57.8429L57.961 12.4121ZM71.0617 12.4121C70.9041 13.4577 70.8253 14.6393 70.8253 15.957L70.7179 16.0645L62.9083 16C61.605 16 60.6847 16.0215 60.1476 16.0645L60.0402 15.957V15.6562L60.0939 15.5273C60.6238 15.1908 60.9103 14.9795 60.9533 14.8936C61.0177 14.7646 61.0571 14.2884 61.0714 13.4648L61.1037 11.0586V5.6123C61.1037 3.90788 61.0571 2.79785 60.964 2.28223C60.9282 2.07454 60.8065 1.94206 60.5988 1.88477C60.4913 1.85612 60.0724 1.82031 59.3419 1.77734L59.2345 1.66992V0.939453L59.3419 0.842773C60.0796 0.885742 61.1609 0.907227 62.5861 0.907227C64.0613 0.907227 65.1821 0.885742 65.9484 0.842773L66.0558 0.939453V1.68066L65.9484 1.77734C65.2179 1.82031 64.799 1.85612 64.6915 1.88477C64.4839 1.94206 64.3621 2.07454 64.3263 2.28223C64.2332 2.79785 64.1867 3.90788 64.1867 5.6123V12.0361C64.1867 12.9743 64.2046 13.8838 64.2404 14.7646H65.7013C67.7925 14.7646 69.0744 14.6823 69.547 14.5176C69.6258 14.4889 69.6831 14.4495 69.7189 14.3994C69.7905 14.2992 69.8585 14.0843 69.923 13.7549L70.1808 12.4229L70.2882 12.3047H70.9435L71.0617 12.4121ZM88.964 8.06152C88.964 10.7041 88.1942 12.7773 86.6545 14.2812C85.1577 15.7422 83.1131 16.4727 80.5207 16.4727C78.0715 16.4727 76.1486 15.7852 74.7521 14.4102C73.3556 13.028 72.6574 11.1087 72.6574 8.65234C72.6574 5.20768 73.9715 2.82292 76.5998 1.49805C77.7957 0.896484 79.2674 0.595703 81.0148 0.595703C83.5142 0.595703 85.4585 1.25098 86.8478 2.56152C88.2586 3.89355 88.964 5.72689 88.964 8.06152ZM85.6554 8.62012C85.6554 6.54329 85.2365 4.89616 84.3986 3.67871C83.5679 2.4541 82.3469 1.8418 80.7355 1.8418C78.6086 1.8418 77.1978 2.79785 76.5031 4.70996C76.145 5.69108 75.966 6.79036 75.966 8.00781C75.966 10.2207 76.3742 11.9681 77.1906 13.25C78.0357 14.5749 79.2997 15.2373 80.9826 15.2373C83.0236 15.2373 84.395 14.2311 85.0969 12.2188C85.4693 11.1517 85.6554 9.95215 85.6554 8.62012ZM106.49 1.68066L106.383 1.78809C105.882 1.83822 105.559 1.89909 105.416 1.9707C105.28 2.03516 105.133 2.19629 104.976 2.4541C104.804 2.7334 104.496 3.40658 104.052 4.47363L103.289 6.28906L101.85 9.79102C100.611 12.7988 99.7766 14.915 99.3469 16.1396H97.7141L92.7834 4.18359C92.2606 2.9375 91.8954 2.22135 91.6877 2.03516C91.5302 1.88477 91.0933 1.80241 90.3772 1.78809L90.2697 1.66992V0.960938L90.3879 0.842773C91.1399 0.885742 92.0887 0.907227 93.2346 0.907227C94.6669 0.907227 95.9703 0.885742 97.1447 0.842773L97.2522 0.960938V1.68066L97.1555 1.78809C96.4322 1.79525 95.9559 1.8597 95.7268 1.98145C95.605 2.05306 95.5442 2.1748 95.5442 2.34668C95.5442 2.53288 95.7769 3.21322 96.2424 4.3877L96.7473 5.66602L99.465 12.3799L101.85 6.39648C101.943 6.16732 102.158 5.59082 102.494 4.66699C102.981 3.33496 103.225 2.55794 103.225 2.33594C103.225 2.09961 103.146 1.95638 102.988 1.90625C102.831 1.85612 102.351 1.81673 101.549 1.78809L101.442 1.68066V0.950195L101.56 0.842773C102.369 0.885742 103.21 0.907227 104.084 0.907227C104.707 0.907227 105.47 0.885742 106.372 0.842773L106.49 0.960938V1.68066ZM119.129 12.4121C118.972 13.4577 118.893 14.6393 118.893 15.957L118.785 16.0645L110.976 16C109.672 16 108.752 16.0215 108.215 16.0645L108.108 15.957V15.6562L108.161 15.5273C108.691 15.1908 108.978 14.9795 109.021 14.8936C109.085 14.7575 109.125 14.2812 109.139 13.4648L109.171 11.0586V5.6123C109.171 3.90788 109.125 2.79785 109.031 2.28223C108.996 2.07454 108.874 1.94206 108.666 1.88477C108.559 1.85612 108.14 1.82031 107.409 1.77734L107.302 1.66992V0.939453L107.409 0.842773C108.133 0.885742 109.25 0.907227 110.761 0.907227C112.107 0.907227 114.668 0.885742 118.442 0.842773L118.56 0.928711L118.42 2.12109C118.377 2.50065 118.345 2.82292 118.323 3.08789L118.248 4.08691L118.141 4.20508H117.518L117.41 4.09766C117.403 3.1237 117.346 2.56868 117.239 2.43262C117.16 2.33236 116.773 2.25358 116.078 2.19629C115.391 2.139 114.786 2.11035 114.263 2.11035C113.64 2.11035 113.01 2.13542 112.372 2.18555C112.294 2.9375 112.254 3.97949 112.254 5.31152V7.53516C112.82 7.57096 113.278 7.58887 113.629 7.58887L115.036 7.57812C115.695 7.57096 116.068 7.51725 116.154 7.41699C116.268 7.28809 116.343 6.80469 116.379 5.9668L116.487 5.85938H117.153L117.26 5.9668C117.231 6.76888 117.217 7.50293 117.217 8.16895C117.217 8.89225 117.231 9.68359 117.26 10.543L117.153 10.6396H116.433L116.325 10.5322C116.325 9.70866 116.268 9.22168 116.154 9.07129C116.039 8.91374 115.692 8.8099 115.112 8.75977C114.675 8.72396 114.209 8.70605 113.715 8.70605C113.192 8.70605 112.705 8.72396 112.254 8.75977V12.0361C112.254 12.9743 112.272 13.8838 112.308 14.7646H113.769C115.86 14.7646 117.142 14.6823 117.615 14.5176C117.693 14.4889 117.751 14.4495 117.786 14.3994C117.858 14.2992 117.926 14.0843 117.99 13.7549L118.248 12.4229L118.356 12.3047H119.011L119.129 12.4121ZM132.004 11.0371C132.004 12.2188 131.668 13.2607 130.994 14.1631C130.407 14.958 129.637 15.5488 128.685 15.9355C127.811 16.2936 126.769 16.4727 125.559 16.4727C124.055 16.4727 122.58 16.1289 121.133 15.4414L121.004 15.2051C121.205 14.3815 121.305 13.2106 121.305 11.6924L121.412 11.585H122.1L122.197 11.6924V11.9395C122.197 12.3405 122.24 12.8704 122.325 13.5293C122.583 13.9876 123.045 14.3815 123.711 14.7109C124.406 15.0547 125.129 15.2266 125.881 15.2266C127.299 15.2266 128.28 14.7324 128.824 13.7441C129.104 13.2357 129.243 12.7093 129.243 12.165C129.243 11.2484 128.86 10.5931 128.094 10.1992C127.714 10.0059 127.102 9.84473 126.257 9.71582C124.345 9.4222 123.088 9.05339 122.487 8.60938C121.577 7.9362 121.122 6.89421 121.122 5.4834C121.122 4.0153 121.616 2.8444 122.605 1.9707C123.65 1.05404 125.104 0.595703 126.966 0.595703C128.642 0.595703 129.995 0.864258 131.027 1.40137L131.102 1.65918C130.93 2.51139 130.826 3.53548 130.79 4.73145L130.672 4.83887H129.995L129.888 4.73145C129.866 3.87207 129.831 3.31348 129.781 3.05566C129.559 2.71908 129.172 2.43262 128.62 2.19629C128.033 1.9528 127.421 1.83105 126.783 1.83105C125.824 1.83105 125.065 2.08529 124.506 2.59375C123.983 3.07357 123.722 3.69303 123.722 4.45215C123.722 5.27572 124.019 5.88086 124.614 6.26758C125 6.51823 125.913 6.75814 127.353 6.9873C127.503 7.00879 127.922 7.0804 128.61 7.20215C129.032 7.27376 129.422 7.3776 129.781 7.51367C130.504 7.78581 131.048 8.20117 131.413 8.75977C131.807 9.36849 132.004 10.1276 132.004 11.0371ZM145.438 12.4121C145.28 13.4577 145.201 14.6393 145.201 15.957L145.094 16.0645L137.284 16C135.981 16 135.061 16.0215 134.524 16.0645L134.416 15.957V15.6562L134.47 15.5273C135 15.1908 135.286 14.9795 135.329 14.8936C135.394 14.7575 135.433 14.2812 135.448 13.4648L135.48 11.0586V5.6123C135.48 3.90788 135.433 2.79785 135.34 2.28223C135.304 2.07454 135.183 1.94206 134.975 1.88477C134.867 1.85612 134.449 1.82031 133.718 1.77734L133.611 1.66992V0.939453L133.718 0.842773C134.441 0.885742 135.559 0.907227 137.07 0.907227C138.416 0.907227 140.976 0.885742 144.75 0.842773L144.868 0.928711L144.729 2.12109C144.686 2.50065 144.654 2.82292 144.632 3.08789L144.557 4.08691L144.45 4.20508H143.826L143.719 4.09766C143.712 3.1237 143.655 2.56868 143.547 2.43262C143.468 2.33236 143.082 2.25358 142.387 2.19629C141.7 2.139 141.094 2.11035 140.572 2.11035C139.949 2.11035 139.318 2.13542 138.681 2.18555C138.602 2.9375 138.563 3.97949 138.563 5.31152V7.53516C139.129 7.57096 139.587 7.58887 139.938 7.58887L141.345 7.57812C142.004 7.57096 142.376 7.51725 142.462 7.41699C142.577 7.28809 142.652 6.80469 142.688 5.9668L142.795 5.85938H143.461L143.569 5.9668C143.54 6.76888 143.526 7.50293 143.526 8.16895C143.526 8.89225 143.54 9.68359 143.569 10.543L143.461 10.6396H142.742L142.634 10.5322C142.634 9.70866 142.577 9.22168 142.462 9.07129C142.348 8.91374 142 8.8099 141.42 8.75977C140.983 8.72396 140.518 8.70605 140.024 8.70605C139.501 8.70605 139.014 8.72396 138.563 8.75977V12.0361C138.563 12.9743 138.581 13.8838 138.617 14.7646H140.077C142.169 14.7646 143.451 14.6823 143.923 14.5176C144.002 14.4889 144.059 14.4495 144.095 14.3994C144.167 14.2992 144.235 14.0843 144.299 13.7549L144.557 12.4229L144.664 12.3047H145.32L145.438 12.4121ZM162.61 15.957L162.513 16.0645C160.923 16.0215 159.964 16 159.634 16C158.316 16 157.092 16.0215 155.96 16.0645L155.864 15.957V15.2803L155.971 15.1621L156.906 15.1084C157.3 15.0869 157.496 14.9473 157.496 14.6895C157.496 14.5391 157.396 14.2025 157.196 13.6797L156.326 11.4131C155.337 11.3988 154.327 11.3916 153.296 11.3916C152.738 11.3916 151.907 11.3988 150.804 11.4131L150.331 12.7236C149.973 13.7191 149.794 14.3421 149.794 14.5928C149.794 14.8649 149.963 15.026 150.299 15.0762C150.485 15.1048 150.851 15.1335 151.395 15.1621L151.502 15.2695V15.957L151.395 16.0645C150.07 16.0215 149.218 16 148.838 16C148.545 16 147.818 16.0215 146.658 16.0645L146.55 15.9678V15.2695L146.668 15.1621C147.406 15.1191 147.857 14.9723 148.022 14.7217C148.194 14.471 148.827 12.9779 149.923 10.2422L152.727 3.22754C152.935 2.68327 153.25 1.86328 153.672 0.767578H155.198L160.891 14.1631C161.113 14.6715 161.314 14.958 161.493 15.0225C161.729 15.1084 162.069 15.1514 162.513 15.1514L162.61 15.2695V15.957ZM155.799 10.1777L153.5 4.54883L151.298 10.1777C151.885 10.1992 152.648 10.21 153.586 10.21C154.496 10.21 155.233 10.1992 155.799 10.1777ZM178.299 15.957L178.192 16.0645C178.142 16.0645 178.006 16.0609 177.784 16.0537C176.802 16.0179 176.19 16 175.947 16C175.581 16 175.001 16.0215 174.206 16.0645C174.178 15.8926 174.042 15.6061 173.798 15.2051L171.134 10.7578L169.942 8.94238C169.791 8.72038 169.58 8.50195 169.308 8.28711L169.426 7.92188C169.591 7.92904 169.713 7.93262 169.791 7.93262C170.493 7.93262 171.045 7.82161 171.446 7.59961C171.811 7.39909 172.148 7.04818 172.455 6.54688C172.763 6.04557 172.917 5.44759 172.917 4.75293C172.917 3.54264 172.466 2.72624 171.564 2.30371C171.134 2.10319 170.508 2.00293 169.684 2.00293C169.326 2.00293 168.982 2.03158 168.653 2.08887C168.581 2.79069 168.545 3.98665 168.545 5.67676V11.2949C168.545 12.9993 168.592 14.1094 168.685 14.625C168.721 14.8327 168.843 14.9652 169.05 15.0225C169.158 15.0511 169.577 15.0869 170.307 15.1299L170.414 15.2373V15.957L170.318 16.0645C169.602 16.0215 168.499 16 167.009 16C165.469 16 164.367 16.0215 163.701 16.0645L163.593 15.9678V15.2373L163.701 15.1299C164.431 15.0869 164.85 15.0511 164.957 15.0225C165.165 14.9652 165.287 14.8327 165.323 14.625C165.416 14.1094 165.462 12.9993 165.462 11.2949V5.6123C165.462 3.90788 165.416 2.79785 165.323 2.28223C165.287 2.07454 165.165 1.94206 164.957 1.88477C164.85 1.85612 164.431 1.82031 163.701 1.77734L163.593 1.66992V0.939453L163.701 0.842773C164.402 0.885742 165.505 0.907227 167.009 0.907227C167.883 0.907227 168.592 0.896484 169.136 0.875C170.218 0.832031 171.027 0.810547 171.564 0.810547C172.803 0.810547 173.712 0.921549 174.292 1.14355C175.073 1.44434 175.596 1.9528 175.861 2.66895C175.99 3.01986 176.054 3.43522 176.054 3.91504C176.054 5.86296 174.958 7.24512 172.767 8.06152C173.125 8.66309 173.505 9.27181 173.906 9.8877L175.56 12.4336C176.534 13.9375 177.182 14.7933 177.504 15.001C177.669 15.1084 177.898 15.1621 178.192 15.1621L178.299 15.2695V15.957ZM193.57 14.1201L193.076 15.2158C191.565 16.0465 189.874 16.4619 188.005 16.4619C184.267 16.4619 181.71 15.1156 180.335 12.4229C179.698 11.1768 179.379 9.82682 179.379 8.37305C179.379 6.02409 180.16 4.15137 181.721 2.75488C183.318 1.31543 185.499 0.595703 188.263 0.595703C190.018 0.595703 191.733 0.914388 193.409 1.55176L193.548 1.71289C193.305 2.70117 193.154 3.85775 193.097 5.18262L193 5.29004H192.367L192.259 5.17188C192.238 4.30534 192.198 3.70378 192.141 3.36719C191.246 2.35742 189.953 1.85254 188.263 1.85254C186.523 1.85254 185.159 2.40397 184.17 3.50684C183.182 4.6097 182.688 6.10645 182.688 7.99707C182.688 10.5537 183.569 12.516 185.33 13.8838C186.269 14.6143 187.525 14.9795 189.101 14.9795C190.533 14.9795 191.933 14.6107 193.301 13.873L193.57 14.1201ZM211.665 15.957L211.558 16.0645C210.849 16.0215 209.746 16 208.249 16C206.717 16 205.614 16.0215 204.941 16.0645L204.833 15.9678V15.2373L204.952 15.1299C205.682 15.0869 206.101 15.0511 206.208 15.0225C206.416 14.9652 206.538 14.8327 206.574 14.625C206.667 14.1094 206.713 12.9993 206.713 11.2949V8.70605C206.348 8.67025 205.188 8.65234 203.233 8.65234C201.428 8.65234 200.239 8.67025 199.666 8.70605V11.2949C199.666 12.9993 199.713 14.1094 199.806 14.625C199.842 14.8327 199.964 14.9652 200.171 15.0225C200.279 15.0511 200.698 15.0869 201.428 15.1299L201.536 15.2373V15.957L201.439 16.0645C200.723 16.0215 199.62 16 198.13 16C196.591 16 195.488 16.0215 194.822 16.0645L194.714 15.9678V15.2373L194.822 15.1299C195.552 15.0869 195.971 15.0511 196.079 15.0225C196.286 14.9652 196.408 14.8327 196.444 14.625C196.537 14.1094 196.583 12.9993 196.583 11.2949V5.6123C196.583 3.90788 196.537 2.79785 196.444 2.28223C196.408 2.07454 196.286 1.94206 196.079 1.88477C195.971 1.85612 195.552 1.82031 194.822 1.77734L194.714 1.66992V0.939453L194.822 0.842773C195.509 0.885742 196.612 0.907227 198.13 0.907227C199.684 0.907227 200.787 0.885742 201.439 0.842773L201.536 0.939453V1.68066L201.428 1.77734C200.698 1.82031 200.279 1.85612 200.171 1.88477C199.964 1.94206 199.842 2.07454 199.806 2.28223C199.713 2.79785 199.666 3.90788 199.666 5.6123V7.38477C200.426 7.42057 201.471 7.43848 202.803 7.43848C204.894 7.43848 206.198 7.42057 206.713 7.38477V5.6123C206.713 3.90788 206.667 2.79785 206.574 2.28223C206.538 2.07454 206.416 1.94206 206.208 1.88477C206.101 1.85612 205.682 1.82031 204.952 1.77734L204.833 1.66992V0.939453L204.941 0.842773C205.636 0.885742 206.738 0.907227 208.249 0.907227C209.811 0.907227 210.914 0.885742 211.558 0.842773L211.665 0.939453V1.68066L211.569 1.77734C210.824 1.82031 210.401 1.85612 210.301 1.88477C210.094 1.94206 209.972 2.07454 209.936 2.28223C209.843 2.79785 209.796 3.90788 209.796 5.6123V11.2949C209.796 12.9993 209.843 14.1094 209.936 14.625C209.972 14.8327 210.094 14.9652 210.301 15.0225C210.409 15.0511 210.828 15.0869 211.558 15.1299L211.665 15.2373V15.957Z" fill="white"/>
</svg>
