<svg width="211" height="17" viewBox="0 0 211 17" fill="none" xmlns="http://www.w3.org/2000/svg">
<path d="M15.3936 15.957L15.2861 16.0645C15.236 16.0645 15.0999 16.0609 14.8779 16.0537C13.8968 16.0179 13.2845 16 13.041 16C12.6758 16 12.0957 16.0215 11.3008 16.0645C11.2721 15.8926 11.1361 15.6061 10.8926 15.2051L8.22852 10.7578L7.03613 8.94238C6.88574 8.72038 6.67448 8.50195 6.40234 8.28711L6.52051 7.92188C6.68522 7.92904 6.80697 7.93262 6.88574 7.93262C7.58757 7.93262 8.139 7.82161 8.54004 7.59961C8.90527 7.39909 9.24186 7.04818 9.5498 6.54688C9.85775 6.04557 10.0117 5.44759 10.0117 4.75293C10.0117 3.54264 9.56055 2.72624 8.6582 2.30371C8.22852 2.10319 7.60189 2.00293 6.77832 2.00293C6.42025 2.00293 6.0765 2.03158 5.74707 2.08887C5.67546 2.79069 5.63965 3.98665 5.63965 5.67676V11.2949C5.63965 12.9993 5.6862 14.1094 5.7793 14.625C5.8151 14.8327 5.93685 14.9652 6.14453 15.0225C6.25195 15.0511 6.6709 15.0869 7.40137 15.1299L7.50879 15.2373V15.957L7.41211 16.0645C6.69596 16.0215 5.5931 16 4.10352 16C2.5638 16 1.46094 16.0215 0.794922 16.0645L0.6875 15.9678V15.2373L0.794922 15.1299C1.52539 15.0869 1.94434 15.0511 2.05176 15.0225C2.25944 14.9652 2.38118 14.8327 2.41699 14.625C2.51009 14.1094 2.55664 12.9993 2.55664 11.2949V5.6123C2.55664 3.90788 2.51009 2.79785 2.41699 2.28223C2.38118 2.07454 2.25944 1.94206 2.05176 1.88477C1.94434 1.85612 1.52539 1.82031 0.794922 1.77734L0.6875 1.66992V0.939453L0.794922 0.842773C1.49674 0.885742 2.59961 0.907227 4.10352 0.907227C4.97721 0.907227 5.6862 0.896484 6.23047 0.875C7.31185 0.832031 8.12109 0.810547 8.6582 0.810547C9.89714 0.810547 10.8066 0.921549 11.3867 1.14355C12.1673 1.44434 12.6901 1.9528 12.9551 2.66895C13.084 3.01986 13.1484 3.43522 13.1484 3.91504C13.1484 5.86296 12.0527 7.24512 9.86133 8.06152C10.2194 8.66309 10.599 9.27181 11 9.8877L12.6543 12.4336C13.6283 13.9375 14.2764 14.7933 14.5986 15.001C14.7633 15.1084 14.9925 15.1621 15.2861 15.1621L15.3936 15.2695V15.957ZM27.9785 12.4121C27.821 13.4577 27.7422 14.6393 27.7422 15.957L27.6348 16.0645L19.8252 16C18.5218 16 17.6016 16.0215 17.0645 16.0645L16.9571 15.957V15.6562L17.0108 15.5273C17.5407 15.1908 17.8272 14.9795 17.8702 14.8936C17.9346 14.7575 17.974 14.2812 17.9883 13.4648L18.0205 11.0586V5.6123C18.0205 3.90788 17.974 2.79785 17.8809 2.28223C17.8451 2.07454 17.7233 1.94206 17.5157 1.88477C17.4082 1.85612 16.9893 1.82031 16.2588 1.77734L16.1514 1.66992V0.939453L16.2588 0.842773C16.9821 0.885742 18.0993 0.907227 19.6104 0.907227C20.9567 0.907227 23.517 0.885742 27.291 0.842773L27.4092 0.928711L27.2696 2.12109C27.2266 2.50065 27.1944 2.82292 27.1729 3.08789L27.0977 4.08691L26.9903 4.20508H26.3672L26.2598 4.09766C26.2526 3.1237 26.1953 2.56868 26.0879 2.43262C26.0091 2.33236 25.6224 2.25358 24.9278 2.19629C24.2403 2.139 23.6351 2.11035 23.1123 2.11035C22.4893 2.11035 21.8591 2.13542 21.2217 2.18555C21.1429 2.9375 21.1035 3.97949 21.1035 5.31152V7.53516C21.6693 7.57096 22.1276 7.58887 22.4785 7.58887L23.8858 7.57812C24.5446 7.57096 24.917 7.51725 25.003 7.41699C25.1175 7.28809 25.1927 6.80469 25.2285 5.9668L25.336 5.85938H26.002L26.1094 5.9668C26.0808 6.76888 26.0664 7.50293 26.0664 8.16895C26.0664 8.89225 26.0808 9.68359 26.1094 10.543L26.002 10.6396H25.2823L25.1748 10.5322C25.1748 9.70866 25.1175 9.22168 25.003 9.07129C24.8884 8.91374 24.541 8.8099 23.961 8.75977C23.5241 8.72396 23.0586 8.70605 22.5645 8.70605C22.0417 8.70605 21.5547 8.72396 21.1035 8.75977V12.0361C21.1035 12.9743 21.1215 13.8838 21.1573 14.7646H22.6182C24.7093 14.7646 25.9912 14.6823 26.4639 14.5176C26.5427 14.4889 26.6 14.4495 26.6358 14.3994C26.7074 14.2992 26.7754 14.0843 26.8399 13.7549L27.0977 12.4229L27.2051 12.3047H27.8604L27.9785 12.4121ZM45.1505 15.957L45.0538 16.0645C43.4639 16.0215 42.5043 16 42.1749 16C40.8572 16 39.6326 16.0215 38.501 16.0645L38.4044 15.957V15.2803L38.5118 15.1621L39.4464 15.1084C39.8402 15.0869 40.0372 14.9473 40.0372 14.6895C40.0372 14.5391 39.9369 14.2025 39.7364 13.6797L38.8663 11.4131C37.878 11.3988 36.8682 11.3916 35.837 11.3916C35.2784 11.3916 34.4477 11.3988 33.3448 11.4131L32.8721 12.7236C32.5141 13.7191 32.335 14.3421 32.335 14.5928C32.335 14.8649 32.5033 15.026 32.8399 15.0762C33.0261 15.1048 33.3913 15.1335 33.9356 15.1621L34.043 15.2695V15.957L33.9356 16.0645C32.6107 16.0215 31.7585 16 31.379 16C31.0854 16 30.3585 16.0215 29.1983 16.0645L29.0909 15.9678V15.2695L29.2091 15.1621C29.9467 15.1191 30.3979 14.9723 30.5626 14.7217C30.7344 14.471 31.3682 12.9779 32.4639 10.2422L35.2676 3.22754C35.4753 2.68327 35.7904 1.86328 36.213 0.767578H37.7383L43.4317 14.1631C43.6537 14.6715 43.8542 14.958 44.0333 15.0225C44.2696 15.1084 44.6098 15.1514 45.0538 15.1514L45.1505 15.2695V15.957ZM38.3399 10.1777L36.0411 4.54883L33.8389 10.1777C34.4262 10.1992 35.1889 10.21 36.127 10.21C37.0365 10.21 37.7742 10.1992 38.3399 10.1777ZM57.961 12.4121C57.8035 13.4577 57.7247 14.6393 57.7247 15.957L57.6173 16.0645L49.8077 16C48.5043 16 47.5841 16.0215 47.047 16.0645L46.9396 15.957V15.6562L46.9933 15.5273C47.5232 15.1908 47.8097 14.9795 47.8526 14.8936C47.9171 14.7646 47.9565 14.2884 47.9708 13.4648L48.003 11.0586V5.6123C48.003 3.90788 47.9565 2.79785 47.8634 2.28223C47.8276 2.07454 47.7058 1.94206 47.4981 1.88477C47.3907 1.85612 46.9718 1.82031 46.2413 1.77734L46.1339 1.66992V0.939453L46.2413 0.842773C46.9789 0.885742 48.0603 0.907227 49.4855 0.907227C50.9607 0.907227 52.0815 0.885742 52.8478 0.842773L52.9552 0.939453V1.68066L52.8478 1.77734C52.1173 1.82031 51.6983 1.85612 51.5909 1.88477C51.3832 1.94206 51.2615 2.07454 51.2257 2.28223C51.1326 2.79785 51.086 3.90788 51.086 5.6123V12.0361C51.086 12.9743 51.1039 13.8838 51.1398 14.7646H52.6007C54.6918 14.7646 55.9737 14.6823 56.4464 14.5176C56.5252 14.4889 56.5825 14.4495 56.6183 14.3994C56.6899 14.2992 56.7579 14.0843 56.8224 13.7549L57.0802 12.4229L57.1876 12.3047H57.8429L57.961 12.4121ZM71.0617 12.4121C70.9041 13.4577 70.8253 14.6393 70.8253 15.957L70.7179 16.0645L62.9083 16C61.605 16 60.6847 16.0215 60.1476 16.0645L60.0402 15.957V15.6562L60.0939 15.5273C60.6238 15.1908 60.9103 14.9795 60.9533 14.8936C61.0177 14.7646 61.0571 14.2884 61.0714 13.4648L61.1037 11.0586V5.6123C61.1037 3.90788 61.0571 2.79785 60.964 2.28223C60.9282 2.07454 60.8065 1.94206 60.5988 1.88477C60.4913 1.85612 60.0724 1.82031 59.3419 1.77734L59.2345 1.66992V0.939453L59.3419 0.842773C60.0796 0.885742 61.1609 0.907227 62.5861 0.907227C64.0613 0.907227 65.1821 0.885742 65.9484 0.842773L66.0558 0.939453V1.68066L65.9484 1.77734C65.2179 1.82031 64.799 1.85612 64.6915 1.88477C64.4839 1.94206 64.3621 2.07454 64.3263 2.28223C64.2332 2.79785 64.1867 3.90788 64.1867 5.6123V12.0361C64.1867 12.9743 64.2046 13.8838 64.2404 14.7646H65.7013C67.7925 14.7646 69.0744 14.6823 69.547 14.5176C69.6258 14.4889 69.6831 14.4495 69.7189 14.3994C69.7905 14.2992 69.8585 14.0843 69.923 13.7549L70.1808 12.4229L70.2882 12.3047H70.9435L71.0617 12.4121ZM88.964 8.06152C88.964 10.7041 88.1942 12.7773 86.6545 14.2812C85.1577 15.7422 83.1131 16.4727 80.5207 16.4727C78.0715 16.4727 76.1486 15.7852 74.7521 14.4102C73.3556 13.028 72.6574 11.1087 72.6574 8.65234C72.6574 5.20768 73.9715 2.82292 76.5998 1.49805C77.7957 0.896484 79.2674 0.595703 81.0148 0.595703C83.5142 0.595703 85.4585 1.25098 86.8478 2.56152C88.2586 3.89355 88.964 5.72689 88.964 8.06152ZM85.6554 8.62012C85.6554 6.54329 85.2365 4.89616 84.3986 3.67871C83.5679 2.4541 82.3469 1.8418 80.7355 1.8418C78.6086 1.8418 77.1978 2.79785 76.5031 4.70996C76.145 5.69108 75.966 6.79036 75.966 8.00781C75.966 10.2207 76.3742 11.9681 77.1906 13.25C78.0357 14.5749 79.2997 15.2373 80.9826 15.2373C83.0236 15.2373 84.395 14.2311 85.0969 12.2188C85.4693 11.1517 85.6554 9.95215 85.6554 8.62012ZM105.266 1.68066L105.158 1.78809C104.657 1.83822 104.335 1.89909 104.192 1.9707C104.056 2.03516 103.909 2.19629 103.751 2.4541C103.579 2.7334 103.271 3.40658 102.827 4.47363L102.065 6.28906L100.625 9.79102C99.3863 12.7988 98.552 14.915 98.1223 16.1396H96.4895L91.5588 4.18359C91.036 2.9375 90.6708 2.22135 90.4631 2.03516C90.3055 1.88477 89.8687 1.80241 89.1525 1.78809L89.0451 1.66992V0.960938L89.1633 0.842773C89.9152 0.885742 90.8641 0.907227 92.01 0.907227C93.4423 0.907227 94.7456 0.885742 95.9201 0.842773L96.0275 0.960938V1.68066L95.9309 1.78809C95.2076 1.79525 94.7313 1.8597 94.5022 1.98145C94.3804 2.05306 94.3195 2.1748 94.3195 2.34668C94.3195 2.53288 94.5523 3.21322 95.0178 4.3877L95.5227 5.66602L98.2404 12.3799L100.625 6.39648C100.718 6.16732 100.933 5.59082 101.27 4.66699C101.757 3.33496 102 2.55794 102 2.33594C102 2.09961 101.921 1.95638 101.764 1.90625C101.606 1.85612 101.127 1.81673 100.324 1.78809L100.217 1.68066V0.950195L100.335 0.842773C101.144 0.885742 101.986 0.907227 102.86 0.907227C103.483 0.907227 104.245 0.885742 105.148 0.842773L105.266 0.960938V1.68066ZM117.905 12.4121C117.747 13.4577 117.668 14.6393 117.668 15.957L117.561 16.0645L109.751 16C108.448 16 107.528 16.0215 106.99 16.0645L106.883 15.957V15.6562L106.937 15.5273C107.467 15.1908 107.753 14.9795 107.796 14.8936C107.861 14.7575 107.9 14.2812 107.914 13.4648L107.947 11.0586V5.6123C107.947 3.90788 107.9 2.79785 107.807 2.28223C107.771 2.07454 107.649 1.94206 107.442 1.88477C107.334 1.85612 106.915 1.82031 106.185 1.77734L106.077 1.66992V0.939453L106.185 0.842773C106.908 0.885742 108.025 0.907227 109.536 0.907227C110.883 0.907227 113.443 0.885742 117.217 0.842773L117.335 0.928711L117.196 2.12109C117.153 2.50065 117.12 2.82292 117.099 3.08789L117.024 4.08691L116.916 4.20508H116.293L116.186 4.09766C116.179 3.1237 116.121 2.56868 116.014 2.43262C115.935 2.33236 115.548 2.25358 114.854 2.19629C114.166 2.139 113.561 2.11035 113.038 2.11035C112.415 2.11035 111.785 2.13542 111.148 2.18555C111.069 2.9375 111.03 3.97949 111.03 5.31152V7.53516C111.595 7.57096 112.054 7.58887 112.405 7.58887L113.812 7.57812C114.471 7.57096 114.843 7.51725 114.929 7.41699C115.044 7.28809 115.119 6.80469 115.155 5.9668L115.262 5.85938H115.928L116.035 5.9668C116.007 6.76888 115.992 7.50293 115.992 8.16895C115.992 8.89225 116.007 9.68359 116.035 10.543L115.928 10.6396H115.208L115.101 10.5322C115.101 9.70866 115.044 9.22168 114.929 9.07129C114.814 8.91374 114.467 8.8099 113.887 8.75977C113.45 8.72396 112.985 8.70605 112.49 8.70605C111.968 8.70605 111.481 8.72396 111.03 8.75977V12.0361C111.03 12.9743 111.047 13.8838 111.083 14.7646H112.544C114.635 14.7646 115.917 14.6823 116.39 14.5176C116.469 14.4889 116.526 14.4495 116.562 14.3994C116.633 14.2992 116.701 14.0843 116.766 13.7549L117.024 12.4229L117.131 12.3047H117.786L117.905 12.4121Z" fill="#031539"/>
<path d="M130.78 11.0371C130.78 12.2188 130.443 13.2607 129.77 14.1631C129.183 14.958 128.413 15.5488 127.46 15.9355C126.587 16.2936 125.545 16.4727 124.334 16.4727C122.83 16.4727 121.355 16.1289 119.908 15.4414L119.78 15.2051C119.98 14.3815 120.08 13.2106 120.08 11.6924L120.188 11.585H120.875L120.972 11.6924V11.9395C120.972 12.3405 121.015 12.8704 121.101 13.5293C121.359 13.9876 121.821 14.3815 122.487 14.7109C123.181 15.0547 123.905 15.2266 124.657 15.2266C126.074 15.2266 127.056 14.7324 127.6 13.7441C127.879 13.2357 128.019 12.7093 128.019 12.165C128.019 11.2484 127.636 10.5931 126.869 10.1992C126.49 10.0059 125.878 9.84473 125.033 9.71582C123.12 9.4222 121.864 9.05339 121.262 8.60938C120.352 7.9362 119.898 6.89421 119.898 5.4834C119.898 4.0153 120.392 2.8444 121.38 1.9707C122.426 1.05404 123.88 0.595703 125.741 0.595703C127.417 0.595703 128.771 0.864258 129.802 1.40137L129.877 1.65918C129.705 2.51139 129.602 3.53548 129.566 4.73145L129.448 4.83887H128.771L128.663 4.73145C128.642 3.87207 128.606 3.31348 128.556 3.05566C128.334 2.71908 127.947 2.43262 127.396 2.19629C126.809 1.9528 126.196 1.83105 125.559 1.83105C124.599 1.83105 123.84 2.08529 123.282 2.59375C122.759 3.07357 122.497 3.69303 122.497 4.45215C122.497 5.27572 122.795 5.88086 123.389 6.26758C123.776 6.51823 124.689 6.75814 126.128 6.9873C126.279 7.00879 126.698 7.0804 127.385 7.20215C127.808 7.27376 128.198 7.3776 128.556 7.51367C129.279 7.78581 129.824 8.20117 130.189 8.75977C130.583 9.36849 130.78 10.1276 130.78 11.0371ZM144.213 12.4121C144.056 13.4577 143.977 14.6393 143.977 15.957L143.869 16.0645L136.06 16C134.756 16 133.836 16.0215 133.299 16.0645L133.192 15.957V15.6562L133.245 15.5273C133.775 15.1908 134.062 14.9795 134.105 14.8936C134.169 14.7575 134.209 14.2812 134.223 13.4648L134.255 11.0586V5.6123C134.255 3.90788 134.209 2.79785 134.116 2.28223C134.08 2.07454 133.958 1.94206 133.75 1.88477C133.643 1.85612 133.224 1.82031 132.493 1.77734L132.386 1.66992V0.939453L132.493 0.842773C133.217 0.885742 134.334 0.907227 135.845 0.907227C137.191 0.907227 139.752 0.885742 143.526 0.842773L143.644 0.928711L143.504 2.12109C143.461 2.50065 143.429 2.82292 143.408 3.08789L143.332 4.08691L143.225 4.20508H142.602L142.494 4.09766C142.487 3.1237 142.43 2.56868 142.323 2.43262C142.244 2.33236 141.857 2.25358 141.162 2.19629C140.475 2.139 139.87 2.11035 139.347 2.11035C138.724 2.11035 138.094 2.13542 137.456 2.18555C137.378 2.9375 137.338 3.97949 137.338 5.31152V7.53516C137.904 7.57096 138.362 7.58887 138.713 7.58887L140.12 7.57812C140.779 7.57096 141.152 7.51725 141.238 7.41699C141.352 7.28809 141.427 6.80469 141.463 5.9668L141.571 5.85938H142.237L142.344 5.9668C142.315 6.76888 142.301 7.50293 142.301 8.16895C142.301 8.89225 142.315 9.68359 142.344 10.543L142.237 10.6396H141.517L141.409 10.5322C141.409 9.70866 141.352 9.22168 141.238 9.07129C141.123 8.91374 140.776 8.8099 140.196 8.75977C139.759 8.72396 139.293 8.70605 138.799 8.70605C138.276 8.70605 137.789 8.72396 137.338 8.75977V12.0361C137.338 12.9743 137.356 13.8838 137.392 14.7646H138.853C140.944 14.7646 142.226 14.6823 142.699 14.5176C142.777 14.4889 142.835 14.4495 142.87 14.3994C142.942 14.2992 143.01 14.0843 143.075 13.7549L143.332 12.4229L143.44 12.3047H144.095L144.213 12.4121ZM161.385 15.957L161.288 16.0645C159.699 16.0215 158.739 16 158.41 16C157.092 16 155.867 16.0215 154.736 16.0645L154.639 15.957V15.2803L154.746 15.1621L155.681 15.1084C156.075 15.0869 156.272 14.9473 156.272 14.6895C156.272 14.5391 156.172 14.2025 155.971 13.6797L155.101 11.4131C154.113 11.3988 153.103 11.3916 152.072 11.3916C151.513 11.3916 150.682 11.3988 149.579 11.4131L149.107 12.7236C148.749 13.7191 148.57 14.3421 148.57 14.5928C148.57 14.8649 148.738 15.026 149.075 15.0762C149.261 15.1048 149.626 15.1335 150.17 15.1621L150.278 15.2695V15.957L150.17 16.0645C148.845 16.0215 147.993 16 147.614 16C147.32 16 146.593 16.0215 145.433 16.0645L145.326 15.9678V15.2695L145.444 15.1621C146.181 15.1191 146.633 14.9723 146.797 14.7217C146.969 14.471 147.603 12.9779 148.699 10.2422L151.502 3.22754C151.71 2.68327 152.025 1.86328 152.448 0.767578H153.973L159.666 14.1631C159.888 14.6715 160.089 14.958 160.268 15.0225C160.504 15.1084 160.844 15.1514 161.288 15.1514L161.385 15.2695V15.957ZM154.575 10.1777L152.276 4.54883L150.074 10.1777C150.661 10.1992 151.424 10.21 152.362 10.21C153.271 10.21 154.009 10.1992 154.575 10.1777ZM177.075 15.957L176.967 16.0645C176.917 16.0645 176.781 16.0609 176.559 16.0537C175.578 16.0179 174.966 16 174.722 16C174.357 16 173.777 16.0215 172.982 16.0645C172.953 15.8926 172.817 15.6061 172.574 15.2051L169.91 10.7578L168.717 8.94238C168.567 8.72038 168.356 8.50195 168.083 8.28711L168.202 7.92188C168.366 7.92904 168.488 7.93262 168.567 7.93262C169.269 7.93262 169.82 7.82161 170.221 7.59961C170.586 7.39909 170.923 7.04818 171.231 6.54688C171.539 6.04557 171.693 5.44759 171.693 4.75293C171.693 3.54264 171.242 2.72624 170.339 2.30371C169.91 2.10319 169.283 2.00293 168.459 2.00293C168.101 2.00293 167.758 2.03158 167.428 2.08887C167.357 2.79069 167.321 3.98665 167.321 5.67676V11.2949C167.321 12.9993 167.367 14.1094 167.46 14.625C167.496 14.8327 167.618 14.9652 167.826 15.0225C167.933 15.0511 168.352 15.0869 169.082 15.1299L169.19 15.2373V15.957L169.093 16.0645C168.377 16.0215 167.274 16 165.785 16C164.245 16 163.142 16.0215 162.476 16.0645L162.369 15.9678V15.2373L162.476 15.1299C163.206 15.0869 163.625 15.0511 163.733 15.0225C163.94 14.9652 164.062 14.8327 164.098 14.625C164.191 14.1094 164.238 12.9993 164.238 11.2949V5.6123C164.238 3.90788 164.191 2.79785 164.098 2.28223C164.062 2.07454 163.94 1.94206 163.733 1.88477C163.625 1.85612 163.206 1.82031 162.476 1.77734L162.369 1.66992V0.939453L162.476 0.842773C163.178 0.885742 164.281 0.907227 165.785 0.907227C166.658 0.907227 167.367 0.896484 167.912 0.875C168.993 0.832031 169.802 0.810547 170.339 0.810547C171.578 0.810547 172.488 0.921549 173.068 1.14355C173.848 1.44434 174.371 1.9528 174.636 2.66895C174.765 3.01986 174.829 3.43522 174.829 3.91504C174.829 5.86296 173.734 7.24512 171.542 8.06152C171.9 8.66309 172.28 9.27181 172.681 9.8877L174.335 12.4336C175.309 13.9375 175.957 14.7933 176.28 15.001C176.444 15.1084 176.674 15.1621 176.967 15.1621L177.075 15.2695V15.957ZM192.345 14.1201L191.851 15.2158C190.34 16.0465 188.65 16.4619 186.781 16.4619C183.042 16.4619 180.486 15.1156 179.111 12.4229C178.473 11.1768 178.155 9.82682 178.155 8.37305C178.155 6.02409 178.935 4.15137 180.497 2.75488C182.094 1.31543 184.274 0.595703 187.038 0.595703C188.793 0.595703 190.508 0.914388 192.184 1.55176L192.324 1.71289C192.08 2.70117 191.93 3.85775 191.872 5.18262L191.776 5.29004H191.142L191.035 5.17188C191.013 4.30534 190.974 3.70378 190.916 3.36719C190.021 2.35742 188.729 1.85254 187.038 1.85254C185.298 1.85254 183.934 2.40397 182.946 3.50684C181.957 4.6097 181.463 6.10645 181.463 7.99707C181.463 10.5537 182.344 12.516 184.106 13.8838C185.044 14.6143 186.301 14.9795 187.876 14.9795C189.309 14.9795 190.709 14.6107 192.077 13.873L192.345 14.1201ZM210.441 15.957L210.333 16.0645C209.624 16.0215 208.522 16 207.025 16C205.492 16 204.389 16.0215 203.716 16.0645L203.609 15.9678V15.2373L203.727 15.1299C204.457 15.0869 204.876 15.0511 204.984 15.0225C205.192 14.9652 205.313 14.8327 205.349 14.625C205.442 14.1094 205.489 12.9993 205.489 11.2949V8.70605C205.123 8.67025 203.963 8.65234 202.008 8.65234C200.204 8.65234 199.015 8.67025 198.442 8.70605V11.2949C198.442 12.9993 198.488 14.1094 198.581 14.625C198.617 14.8327 198.739 14.9652 198.947 15.0225C199.054 15.0511 199.473 15.0869 200.204 15.1299L200.311 15.2373V15.957L200.214 16.0645C199.498 16.0215 198.395 16 196.906 16C195.366 16 194.263 16.0215 193.597 16.0645L193.49 15.9678V15.2373L193.597 15.1299C194.328 15.0869 194.747 15.0511 194.854 15.0225C195.062 14.9652 195.183 14.8327 195.219 14.625C195.312 14.1094 195.359 12.9993 195.359 11.2949V5.6123C195.359 3.90788 195.312 2.79785 195.219 2.28223C195.183 2.07454 195.062 1.94206 194.854 1.88477C194.747 1.85612 194.328 1.82031 193.597 1.77734L193.49 1.66992V0.939453L193.597 0.842773C194.285 0.885742 195.387 0.907227 196.906 0.907227C198.46 0.907227 199.563 0.885742 200.214 0.842773L200.311 0.939453V1.68066L200.204 1.77734C199.473 1.82031 199.054 1.85612 198.947 1.88477C198.739 1.94206 198.617 2.07454 198.581 2.28223C198.488 2.79785 198.442 3.90788 198.442 5.6123V7.38477C199.201 7.42057 200.247 7.43848 201.579 7.43848C203.67 7.43848 204.973 7.42057 205.489 7.38477V5.6123C205.489 3.90788 205.442 2.79785 205.349 2.28223C205.313 2.07454 205.192 1.94206 204.984 1.88477C204.876 1.85612 204.457 1.82031 203.727 1.77734L203.609 1.66992V0.939453L203.716 0.842773C204.411 0.885742 205.514 0.907227 207.025 0.907227C208.586 0.907227 209.689 0.885742 210.333 0.842773L210.441 0.939453V1.68066L210.344 1.77734C209.599 1.82031 209.177 1.85612 209.077 1.88477C208.869 1.94206 208.747 2.07454 208.711 2.28223C208.618 2.79785 208.572 3.90788 208.572 5.6123V11.2949C208.572 12.9993 208.618 14.1094 208.711 14.625C208.747 14.8327 208.869 14.9652 209.077 15.0225C209.184 15.0511 209.603 15.0869 210.333 15.1299L210.441 15.2373V15.957Z" fill="#FF95A1"/>
</svg>
