<svg width="34" height="34" viewBox="0 0 34 34" fill="none" xmlns="http://www.w3.org/2000/svg">
<mask id="mask0_3450_36247" style="mask-type:alpha" maskUnits="userSpaceOnUse" x="0" y="0" width="34" height="34">
<rect width="34" height="34" fill="#C4C4C4"/>
</mask>
<g mask="url(#mask0_3450_36247)">
<path fill-rule="evenodd" clip-rule="evenodd" d="M16.5456 2C22.9444 2 28.0912 7.1932 28.0912 13.5456C28.0912 18.3215 25.17 22.4482 21.0433 24.2102L16.5456 32L12.0479 24.2102C7.92118 22.4482 5 18.3215 5 13.5456C5 7.1932 10.1932 2 16.5456 2ZM16.5456 9.74343C18.6785 9.74343 20.3941 11.459 20.3941 13.5456C20.3941 15.6785 18.6785 17.3941 16.5456 17.3941C14.459 17.3941 12.7434 15.6785 12.7434 13.5456C12.7434 11.459 14.459 9.74343 16.5456 9.74343Z" fill="#F26060"/>
</g>
</svg>
