<svg width="57" height="58" viewBox="0 0 57 58" fill="none" xmlns="http://www.w3.org/2000/svg">
<path d="M56.1585 18.0348C55.9247 17.9039 50.455 15.0141 41.3387 13.2658L40.9881 11.7436C40.0765 7.75959 36.6287 4.96484 32.5965 4.96484H24.4035C20.383 4.96484 16.9352 7.7477 16.0119 11.7436L15.6613 13.2658C6.54501 15.0022 1.07525 17.9039 0.841501 18.0348C0.32725 18.3083 0 18.8553 0 19.45V38.3591C0 45.9347 6.05413 52.1069 13.5108 52.1069C14.3873 52.1069 15.0886 51.3934 15.0886 50.5014C15.0886 49.6095 14.3873 48.8959 13.5108 48.8959C7.80726 48.8959 3.15563 44.1746 3.15563 38.3591V20.4608C5.04901 19.5808 10.0513 17.4996 17.2391 16.239C17.8585 16.132 18.3611 15.6444 18.5013 15.0259L19.0857 12.469C19.6701 9.94782 21.844 8.17583 24.4035 8.17583H32.5965C35.1443 8.17583 37.3299 9.93593 37.9143 12.469L38.4987 15.0259C38.6389 15.6563 39.1415 16.132 39.7609 16.239C46.9254 17.4996 51.9393 19.5808 53.8444 20.4608V38.3591C53.8444 44.1627 49.2044 48.8959 43.4892 48.8959C42.6127 48.8959 41.9114 49.6095 41.9114 50.5014C41.9114 51.3934 42.6127 52.1069 43.4892 52.1069C50.9342 52.1069 57 45.9466 57 38.3591V19.45C57 18.8553 56.6844 18.3083 56.1585 18.0348Z" fill="#847A87"/>
<path d="M5.16564 14.7525C5.32927 14.7525 5.49289 14.7287 5.65652 14.6692C7.31615 14.1103 9.05759 13.6108 10.8341 13.1826C11.6873 12.9805 12.2015 12.1123 12.0028 11.256C11.8042 10.3879 10.951 9.86461 10.1095 10.0668C8.25115 10.5187 6.41621 11.042 4.66308 11.6247C3.83327 11.8982 3.38914 12.814 3.65796 13.6464C3.89171 14.3243 4.51114 14.7525 5.16564 14.7525Z" fill="#847A87"/>
<path d="M28.5057 16.0605C18.4895 16.0605 10.3433 24.3497 10.3433 34.5416C10.3433 44.7335 18.4895 53.0345 28.5057 53.0345C38.5219 53.0345 46.6681 44.7454 46.6681 34.5535C46.6681 24.3616 38.5219 16.0605 28.5057 16.0605ZM28.5057 49.8235C20.2309 49.8235 13.4989 42.9734 13.4989 34.5535C13.4989 26.1335 20.2309 19.2715 28.5057 19.2715C36.7804 19.2715 43.5124 26.1217 43.5124 34.5416C43.5124 42.9615 36.7804 49.8235 28.5057 49.8235Z" fill="#847A87"/>
</svg>
