<svg width="85" height="68" viewBox="0 0 85 68" fill="none" xmlns="http://www.w3.org/2000/svg">
<path fill-rule="evenodd" clip-rule="evenodd" d="M65.9674 11.8261H74.837C80.4728 11.8261 85 16.3533 85 21.9891V57.837C85 63.4728 80.4728 68 74.837 68H10.163C4.52717 68 0 63.4728 0 57.837V21.9891C0 16.3533 4.52717 11.8261 10.163 11.8261H19.0326L23.9293 4.43478C25.7772 1.66304 29.0109 0 32.337 0H52.663C55.9891 0 59.2228 1.66304 61.0706 4.43478L65.9674 11.8261ZM19.587 36.7717C19.587 49.4293 29.8424 59.6848 42.5 59.6848C55.1576 59.6848 65.413 49.4293 65.413 36.8641C65.413 24.2065 55.1576 13.9511 42.5 13.9511C29.8424 13.9511 19.587 24.1141 19.587 36.7717ZM73.1739 26.1467H73.5435C75.2065 26.0543 76.4076 24.6685 76.3152 23.0054C76.2228 21.3424 74.8369 20.0489 73.1739 20.1413H69.4783C67.9076 20.2337 66.7065 21.4348 66.6141 23.0054C66.5217 24.6685 67.8152 26.0543 69.4783 26.1467H73.1739ZM29.75 36.8652C29.75 29.8435 35.4783 24.1152 42.5 24.1152C49.5217 24.1152 55.25 29.7511 55.25 36.7728C55.25 43.7946 49.5217 49.5228 42.5 49.5228C35.4783 49.5228 29.75 43.887 29.75 36.8652Z" fill="white"/>
</svg>
