<svg width="24" height="24" viewBox="0 0 24 24" fill="none" xmlns="http://www.w3.org/2000/svg">
<mask id="mask0_3890_5902" style="mask-type:alpha" maskUnits="userSpaceOnUse" x="0" y="0" width="24" height="24">
<rect width="24" height="24" fill="#C4C4C4"/>
</mask>
<g mask="url(#mask0_3890_5902)">
<path d="M20.2407 19.5684C19.661 18.4734 19.0652 17.4267 18.8236 16.2029C18.5338 14.7536 18.6787 13.3849 18.7592 11.9356C18.8397 10.5346 18.7592 9.10145 18.0829 7.82931C17.2455 6.25121 15.7962 5.01127 14.0088 4.49597L13.2197 4.27053V3.09501C13.2197 2.5153 12.785 2.03221 12.2053 2C12.1892 2 12.1569 2 12.1408 2C12.1247 2 12.0925 2 12.0764 2C11.4967 2.03221 11.0619 2.5314 11.0619 3.09501V4.28663L10.2729 4.51208C8.48545 5.02738 7.03617 6.26731 6.19881 7.84541C5.52249 9.11755 5.44197 10.5507 5.52249 11.9517C5.603 13.401 5.76403 14.7858 5.45807 16.219C5.20043 17.4428 4.62071 18.4895 4.041 19.5845C3.97659 19.6973 3.9927 19.81 4.05711 19.9227C4.12152 20.0354 4.23424 20.0837 4.36307 20.0837H10.3212L10.3856 20.3253C10.4339 21.2593 11.223 22 12.1569 22C13.0909 22 13.88 21.2593 13.9283 20.3253L13.9927 20.0837H19.9508C20.0797 20.0837 20.1924 20.0193 20.2568 19.9227C20.289 19.7939 20.289 19.6812 20.2407 19.5684Z" fill="#4B5064"/>
</g>
</svg>
