<svg width="24" height="24" viewBox="0 0 24 24" fill="none" xmlns="http://www.w3.org/2000/svg">
<mask id="mask0_1805_20805" style="mask-type:alpha" maskUnits="userSpaceOnUse" x="-1" y="-1" width="26" height="26">
<rect width="24" height="24" fill="#C4C4C4" stroke="#F0FAFC"/>
</mask>
<g mask="url(#mask0_1805_20805)">
<path d="M7.72784 4C4.03698 4 1 7.03698 1 10.7278C1 14.4187 4.03698 17.4557 7.72784 17.4557L6.81949 19.0289C6.71218 19.215 6.65571 19.4259 6.65571 19.6405C6.65571 20.3115 7.20791 20.8637 7.87891 20.8637C8.02167 20.8637 8.1632 20.8388 8.2974 20.7899L18.5734 17.0499C21.2248 16.0848 23 13.5495 23 10.7278C23 7.03698 19.963 4 16.2722 4C16.2722 4 7.72784 4 7.72784 4Z" fill="#4B5064" stroke="#F0FAFC"/>
</g>
</svg>
