<svg width="24" height="24" viewBox="0 0 24 24" fill="none" xmlns="http://www.w3.org/2000/svg">
<mask id="mask0_1805_20810" style="mask-type:alpha" maskUnits="userSpaceOnUse" x="0" y="0" width="24" height="24">
<rect width="24" height="24" fill="#C4C4C4"/>
</mask>
<g mask="url(#mask0_1805_20810)">
<path d="M18.2942 15.0818C17.489 15.0825 16.7092 15.3631 16.0881 15.8755L16.01 15.9411L8.90734 12.3101V12.2132C8.90734 12.1445 8.90734 12.0757 8.90734 12.0039C8.90644 11.847 8.89496 11.6904 8.87297 11.5351V11.4289L15.81 7.86352L15.8912 7.93852C16.4639 8.4907 17.2097 8.8282 18.0025 8.89396C18.7953 8.95971 19.5865 8.74969 20.2423 8.29939C20.8982 7.8491 21.3784 7.18615 21.6018 6.42264C21.8252 5.65912 21.7782 4.84188 21.4686 4.10906C21.1589 3.37625 20.6058 2.77283 19.9026 2.40081C19.1994 2.02879 18.3893 1.911 17.6093 2.06735C16.8293 2.22369 16.1272 2.64459 15.6217 3.25888C15.1162 3.87317 14.8383 4.64316 14.8351 5.43869C14.8351 5.51993 14.8351 5.60118 14.8351 5.68555V5.78554L7.7793 9.42904L7.70118 9.36029C7.1898 8.92503 6.56278 8.64804 5.89663 8.5631C5.23049 8.47817 4.55402 8.58897 3.94979 8.88199C3.34555 9.17501 2.83967 9.63757 2.49387 10.2132C2.14807 10.7889 1.97731 11.4528 2.00242 12.1238C2.02753 12.7949 2.24744 13.4441 2.63529 13.9923C3.02315 14.5405 3.56219 14.964 4.18664 15.211C4.81109 15.4581 5.49394 15.518 6.15187 15.3835C6.80981 15.249 7.41437 14.9259 7.89179 14.4537L7.96991 14.3756L14.8882 17.9347V18.0441C14.8641 18.2117 14.8515 18.3809 14.8507 18.5503C14.8525 19.2347 15.0574 19.9032 15.4393 20.4711C15.8212 21.0391 16.363 21.481 16.9962 21.7409C17.6293 22.0008 18.3253 22.067 18.9961 21.9312C19.667 21.7954 20.2824 21.4637 20.7646 20.978C21.2468 20.4923 21.5741 19.8744 21.705 19.2027C21.836 18.5309 21.7647 17.8354 21.5002 17.2041C21.2357 16.5729 20.7899 16.0343 20.2192 15.6565C19.6485 15.2787 18.9786 15.0787 18.2942 15.0818Z" fill="#4B5064"/>
</g>
</svg>
