<svg width="24" height="24" viewBox="0 0 24 24" fill="none" xmlns="http://www.w3.org/2000/svg">
<mask id="mask0_1805_20815" style="mask-type:alpha" maskUnits="userSpaceOnUse" x="0" y="0" width="24" height="24">
<rect width="24" height="24" fill="#C4C4C4"/>
</mask>
<g mask="url(#mask0_1805_20815)">
<path d="M8.625 2.625C8.625 2.27982 8.90482 2 9.25 2H14.25C14.5952 2 14.875 2.27982 14.875 2.625V5.125C14.875 5.47018 14.5952 5.75 14.25 5.75H9.25C8.90482 5.75 8.625 5.47018 8.625 5.125V2.625Z" fill="#4B5064"/>
<path fill-rule="evenodd" clip-rule="evenodd" d="M6.125 3.25H7.375V6.16667C7.375 6.62691 7.76675 7 8.25 7H15.25C15.7333 7 16.125 6.62691 16.125 6.16667V3.25H17.375C19.1009 3.25 20.5 4.64911 20.5 6.375V18.875C20.5 20.6009 19.1009 22 17.375 22H6.125C4.39911 22 3 20.6009 3 18.875V6.375C3 4.64911 4.39911 3.25 6.125 3.25ZM15.5 17.625C15.5 17.9702 15.2202 18.25 14.875 18.25C14.5298 18.25 14.25 17.9702 14.25 17.625V10.125C14.25 9.77981 14.5298 9.5 14.875 9.5C15.2202 9.5 15.5 9.77981 15.5 10.125V17.625ZM11.75 18.25C12.0952 18.25 12.375 17.9702 12.375 17.625V12.625C12.375 12.2798 12.0952 12 11.75 12C11.4048 12 11.125 12.2798 11.125 12.625V17.625C11.125 17.9702 11.4048 18.25 11.75 18.25ZM9.25 17.625C9.25 17.9702 8.97018 18.25 8.625 18.25C8.27982 18.25 8 17.9702 8 17.625V15.125C8 14.7798 8.27982 14.5 8.625 14.5C8.97018 14.5 9.25 14.7798 9.25 15.125V17.625Z" fill="#4B5064"/>
</g>
</svg>
