<svg width="24" height="24" viewBox="0 0 24 24" fill="none" xmlns="http://www.w3.org/2000/svg">
<mask id="mask0_1805_21224" style="mask-type:alpha" maskUnits="userSpaceOnUse" x="0" y="0" width="24" height="24">
<rect width="24" height="24" fill="#C4C4C4"/>
</mask>
<g mask="url(#mask0_1805_21224)">
<path d="M17.8571 10.5714V7.71429C17.8571 4.55857 15.2986 2 12.1429 2C8.98714 2 6.42857 4.55857 6.42857 7.71429H8.57143C8.57143 5.74429 10.1743 4.14286 12.1429 4.14286C14.1114 4.14286 15.7143 5.74429 15.7143 7.71429V10.5714H5V14.8571C5 18.8014 8.19857 22 12.1429 22C16.0871 22 19.2857 18.8014 19.2857 14.8571V10.5714H17.8571ZM12.1429 16.2857C11.3543 16.2857 10.7143 15.6457 10.7143 14.8571C10.7143 14.0686 11.3543 13.4286 12.1429 13.4286C12.9314 13.4286 13.5714 14.0686 13.5714 14.8571C13.5714 15.6457 12.9314 16.2857 12.1429 16.2857Z" fill="#4B5064"/>
</g>
</svg>
