<svg width="24" height="24" viewBox="0 0 24 24" fill="none" xmlns="http://www.w3.org/2000/svg">
<mask id="mask0_1805_20822" style="mask-type:alpha" maskUnits="userSpaceOnUse" x="0" y="0" width="24" height="24">
<rect width="24" height="24" fill="#C4C4C4"/>
</mask>
<g mask="url(#mask0_1805_20822)">
<path d="M12.0011 7.00098C11.8644 7.00098 11.7277 7.00098 11.591 7.01765C10.6773 7.09081 9.80161 7.41503 9.06055 7.9545L16.0619 14.9559C16.2134 14.7443 16.3483 14.5214 16.4653 14.2891V14.2891C16.8253 13.5808 17.0094 12.7964 17.0021 12.0019C16.996 10.6775 16.4671 9.40904 15.5306 8.47251C14.594 7.53597 13.3256 7.00711 12.0011 7.00098V7.00098Z" fill="#4B5064"/>
<path d="M21.9705 11.185C21.8146 9.28282 21.1177 7.46491 19.9621 5.94594C18.8064 4.42696 17.2403 3.27035 15.4486 2.61264C13.657 1.95493 11.7145 1.82359 9.85056 2.23412C7.98663 2.64465 6.27909 3.57992 4.9295 4.9295C3.57992 6.27909 2.64465 7.98663 2.23412 9.85056C1.82359 11.7145 1.95493 13.657 2.61264 15.4486C3.27035 17.2403 4.42696 18.8064 5.94594 19.9621C7.46491 21.1177 9.28282 21.8146 11.185 21.9705C12.6297 22.0815 14.0813 21.8787 15.4402 21.3759C16.7992 20.8731 18.0332 20.0824 19.0578 19.0578C20.0824 18.0332 20.8731 16.7992 21.3759 15.4402C21.8787 14.0813 22.0815 12.6297 21.9705 11.185V11.185ZM17.5763 15.5459C17.3154 15.952 17.0114 16.3287 16.6694 16.6694C15.7004 17.6447 14.4487 18.2898 13.0921 18.5131C12.7317 18.5728 12.3671 18.6029 12.0019 18.6031C10.8231 18.6026 9.666 18.2867 8.65057 17.6881C7.63514 17.0895 6.79842 16.23 6.22724 15.1989C5.65607 14.1678 5.37125 13.0026 5.40235 11.8243C5.43345 10.6459 5.77934 9.4974 6.40411 8.49785C6.66974 8.07647 6.98175 7.68619 7.33429 7.33429C8.28819 6.37488 9.51573 5.73433 10.8483 5.50061C11.2292 5.43411 11.6152 5.40065 12.0019 5.40059C13.1848 5.40075 14.3459 5.71861 15.364 6.32095C16.3821 6.92329 17.2197 7.788 17.7893 8.82472C18.359 9.86145 18.6397 11.0321 18.6022 12.2144C18.5648 13.3968 18.2104 14.5473 17.5763 15.5459V15.5459Z" fill="#4B5064"/>
<path d="M7.46363 9.86476C7.1518 10.5337 6.99347 11.2638 7.00021 12.0018C7.00634 13.3263 7.5352 14.5947 8.47174 15.5313C9.40827 16.4678 10.6767 16.9967 12.0012 17.0028H12.2412C13.2152 16.9583 14.1545 16.6278 14.9417 16.0526L7.94039 9.05127C7.7562 9.30681 7.59657 9.57919 7.46363 9.86476Z" fill="#4B5064"/>
</g>
</svg>
