<svg width="32" height="32" viewBox="0 0 32 32" fill="none" xmlns="http://www.w3.org/2000/svg">
<path d="M7 10H9H25" stroke="#347B91" stroke-width="2" stroke-linecap="round" stroke-linejoin="round"/>
<path d="M24 10C24 9.44772 23.5523 9 23 9C22.4477 9 22 9.44772 22 10H24ZM10 10C10 9.44772 9.55228 9 9 9C8.44772 9 8 9.44772 8 10H10ZM11 10C11 10.5523 11.4477 11 12 11C12.5523 11 13 10.5523 13 10H11ZM19 10C19 10.5523 19.4477 11 20 11C20.5523 11 21 10.5523 21 10H19ZM22 10V24H24V10H22ZM22 24C22 24.5523 21.5523 25 21 25V27C22.6569 27 24 25.6569 24 24H22ZM21 25H11V27H21V25ZM11 25C10.4477 25 10 24.5523 10 24H8C8 25.6569 9.34315 27 11 27V25ZM10 24V10H8V24H10ZM13 10V8H11V10H13ZM13 8C13 7.44772 13.4477 7 14 7V5C12.3431 5 11 6.34315 11 8H13ZM14 7H18V5H14V7ZM18 7C18.5523 7 19 7.44772 19 8H21C21 6.34315 19.6569 5 18 5V7ZM19 8V10H21V8H19Z" fill="#347B91"/>
<path d="M14 15V21" stroke="#347B91" stroke-width="2" stroke-linecap="round" stroke-linejoin="round"/>
<path d="M18 15V21" stroke="#347B91" stroke-width="2" stroke-linecap="round" stroke-linejoin="round"/>
</svg>
