<svg width="24" height="24" viewBox="0 0 24 24" fill="none" xmlns="http://www.w3.org/2000/svg">
<path d="M12 20C9.86312 20 7.85416 19.1678 6.34313 17.6569C4.83216 16.1458 4 14.1369 4 12C4 9.86312 4.83216 7.85416 6.34313 6.34313C7.85416 4.83216 9.86312 4 12 4C14.1369 4 16.1458 4.83216 17.6569 6.34313C19.1678 7.85416 20 9.86312 20 12C20 14.1369 19.1678 16.1458 17.6569 17.6569C16.1458 19.1678 14.1369 20 12 20ZM12 5.25C8.27803 5.25 5.25 8.27803 5.25 12C5.25 15.722 8.27803 18.75 12 18.75C15.722 18.75 18.75 15.722 18.75 12C18.75 8.27803 15.722 5.25 12 5.25ZM14.9293 13.3809C14.6381 13.1955 14.2517 13.2814 14.0665 13.5726C14.0588 13.5847 13.2809 14.7832 11.9688 14.7832C10.6566 14.7832 9.87875 13.5847 9.87103 13.5726C9.68572 13.2814 9.29944 13.1956 9.00822 13.3809C8.717 13.5662 8.63116 13.9525 8.81647 14.2437C8.86297 14.3168 9.97809 16.0332 11.9688 16.0332C13.9594 16.0332 15.0745 14.3168 15.121 14.2437C15.3063 13.9525 15.2205 13.5662 14.9293 13.3809ZM9.25 9.15625C9.68147 9.15625 10.0312 9.50603 10.0312 9.9375C10.0312 10.369 9.68147 10.7188 9.25 10.7188C8.81853 10.7188 8.46875 10.369 8.46875 9.9375C8.46875 9.50603 8.81853 9.15625 9.25 9.15625ZM13.9375 9.9375C13.9375 10.369 14.2873 10.7188 14.7188 10.7188C15.1502 10.7188 15.5 10.369 15.5 9.9375C15.5 9.50603 15.1502 9.15625 14.7188 9.15625C14.2873 9.15625 13.9375 9.50603 13.9375 9.9375Z" fill="#323B52"/>
</svg>
