<svg width="64" height="64" viewBox="0 0 64 64" fill="none" xmlns="http://www.w3.org/2000/svg">
<rect width="64" height="64" rx="32" fill="#F4C4AE"/>
<path d="M15.0547 38.1562L11.1797 28.0312H11.1172C11.1901 28.8333 11.2266 29.7865 11.2266 30.8906V38.1562H10V26.7344H12L15.6172 36.1562H15.6797L19.3281 26.7344H21.3125V38.1562H19.9844V30.7969C19.9844 29.9531 20.0208 29.0365 20.0938 28.0469H20.0312L16.125 38.1562H15.0547Z" fill="white"/>
<path d="M29.5234 38.1562L29.2656 36.9375H29.2031C28.776 37.474 28.349 37.8385 27.9219 38.0312C27.5 38.2188 26.9714 38.3125 26.3359 38.3125C25.487 38.3125 24.8203 38.0938 24.3359 37.6562C23.8568 37.2188 23.6172 36.5964 23.6172 35.7891C23.6172 34.0599 25 33.1536 27.7656 33.0703L29.2188 33.0234V32.4922C29.2188 31.8203 29.0729 31.3255 28.7812 31.0078C28.4948 30.6849 28.0339 30.5234 27.3984 30.5234C26.6849 30.5234 25.8776 30.7422 24.9766 31.1797L24.5781 30.1875C25 29.9583 25.4609 29.7786 25.9609 29.6484C26.4661 29.5182 26.9714 29.4531 27.4766 29.4531C28.4974 29.4531 29.2526 29.6797 29.7422 30.1328C30.237 30.5859 30.4844 31.3125 30.4844 32.3125V38.1562H29.5234ZM26.5938 37.2422C27.401 37.2422 28.0339 37.0208 28.4922 36.5781C28.9557 36.1354 29.1875 35.5156 29.1875 34.7188V33.9453L27.8906 34C26.8594 34.0365 26.1146 34.1979 25.6562 34.4844C25.2031 34.7656 24.9766 35.2057 24.9766 35.8047C24.9766 36.2734 25.1172 36.6302 25.3984 36.875C25.6849 37.1198 26.0833 37.2422 26.5938 37.2422Z" fill="white"/>
<path d="M35.9297 37.2422C36.1589 37.2422 36.3802 37.2266 36.5938 37.1953C36.8073 37.1589 36.9766 37.1224 37.1016 37.0859V38.0781C36.9609 38.1458 36.7526 38.2005 36.4766 38.2422C36.2057 38.2891 35.9609 38.3125 35.7422 38.3125C34.0859 38.3125 33.2578 37.4401 33.2578 35.6953V30.6016H32.0312V29.9766L33.2578 29.4375L33.8047 27.6094H34.5547V29.5938H37.0391V30.6016H34.5547V35.6406C34.5547 36.1562 34.6771 36.5521 34.9219 36.8281C35.1667 37.1042 35.5026 37.2422 35.9297 37.2422Z" fill="white"/>
<path d="M42.2422 38.3125C41.0026 38.3125 40.0417 37.9323 39.3594 37.1719C38.6823 36.4062 38.3438 35.3255 38.3438 33.9297C38.3438 32.4974 38.6875 31.3906 39.375 30.6094C40.0677 29.8281 41.0521 29.4375 42.3281 29.4375C42.7396 29.4375 43.151 29.4818 43.5625 29.5703C43.974 29.6589 44.2969 29.763 44.5312 29.8828L44.1328 30.9844C43.8464 30.8698 43.5339 30.776 43.1953 30.7031C42.8568 30.625 42.5573 30.5859 42.2969 30.5859C40.5573 30.5859 39.6875 31.6953 39.6875 33.9141C39.6875 34.9661 39.8984 35.7734 40.3203 36.3359C40.7474 36.8984 41.3776 37.1797 42.2109 37.1797C42.9245 37.1797 43.6562 37.026 44.4062 36.7188V37.8672C43.8333 38.1641 43.112 38.3125 42.2422 38.3125Z" fill="white"/>
<path d="M52.3047 38.1562V32.6172C52.3047 31.9193 52.1458 31.3984 51.8281 31.0547C51.5104 30.7109 51.013 30.5391 50.3359 30.5391C49.4349 30.5391 48.776 30.7839 48.3594 31.2734C47.9479 31.763 47.7422 32.5651 47.7422 33.6797V38.1562H46.4453V26H47.7422V29.6797C47.7422 30.1224 47.7214 30.4896 47.6797 30.7812H47.7578C48.013 30.3698 48.375 30.0469 48.8438 29.8125C49.3177 29.5729 49.8568 29.4531 50.4609 29.4531C51.5078 29.4531 52.2917 29.7031 52.8125 30.2031C53.3385 30.6979 53.6016 31.487 53.6016 32.5703V38.1562H52.3047Z" fill="white"/>
</svg>
