<svg width="24" height="24" viewBox="0 0 24 24" fill="none" xmlns="http://www.w3.org/2000/svg">
<path d="M21.7559 20.5775L16.0684 14.89C17.17 13.5292 17.8334 11.8 17.8334 9.9167C17.8334 5.55169 14.2817 2 9.91666 2C5.55165 2 2 5.55165 2 9.91666C2 14.2817 5.55169 17.8334 9.9167 17.8334C11.8 17.8334 13.5292 17.17 14.89 16.0684L20.5775 21.7559C20.74 21.9184 20.9534 22 21.1667 22C21.3801 22 21.5934 21.9184 21.7559 21.7559C22.0817 21.43 22.0817 20.9034 21.7559 20.5775ZM9.9167 16.1667C6.47001 16.1667 3.66668 13.3633 3.66668 9.91666C3.66668 6.46997 6.47001 3.66664 9.9167 3.66664C13.3634 3.66664 16.1667 6.46997 16.1667 9.91666C16.1667 13.3633 13.3633 16.1667 9.9167 16.1667Z" fill="#847A87"/>
</svg>
