<svg width="24" height="24" viewBox="0 0 24 24" fill="none" xmlns="http://www.w3.org/2000/svg">
<mask id="mask0" mask-type="alpha" maskUnits="userSpaceOnUse" x="0" y="0" width="24" height="24">
<rect width="24" height="24" fill="#C4C4C4"/>
</mask>
<g mask="url(#mask0)">
<path d="M13.4142 3.58579C14.1953 4.36683 14.1953 5.63317 13.4142 6.41421C12.6332 7.19526 11.3668 7.19526 10.5858 6.41421C9.80474 5.63317 9.80474 4.36683 10.5858 3.58579C11.3668 2.80474 12.6331 2.80474 13.4142 3.58579Z" fill="#5B676D"/>
<path d="M13.4142 10.5858C14.1953 11.3668 14.1953 12.6332 13.4142 13.4142C12.6332 14.1953 11.3668 14.1953 10.5858 13.4142C9.80474 12.6332 9.80474 11.3668 10.5858 10.5858C11.3668 9.80474 12.6331 9.80474 13.4142 10.5858" fill="#5B676D"/>
<path d="M13.4142 17.5858C14.1953 18.3668 14.1953 19.6332 13.4142 20.4142C12.6332 21.1953 11.3668 21.1953 10.5858 20.4142C9.80474 19.6332 9.80474 18.3668 10.5858 17.5858C11.3668 16.8047 12.6331 16.8047 13.4142 17.5858" fill="#5B676D"/>
</g>
</svg>
