<svg width="26" height="26" viewBox="0 0 26 26" fill="none" xmlns="http://www.w3.org/2000/svg">
<path fill-rule="evenodd" clip-rule="evenodd" d="M12.2885 1C14.0436 1 15.4664 2.41594 15.4664 4.16268V8.26945H21.8221C23.5772 8.26945 25 9.68539 25 11.4321V18.4184C25 20.1651 23.5772 21.581 21.8221 21.581H21.4427V23.6755C21.4427 24.8531 20.0122 25.4429 19.1755 24.6102L16.1318 21.581H11.3399C9.58484 21.581 8.16206 20.1651 8.16206 18.4184V12.7863L6.27969 14.6304C5.44009 15.4528 4.01996 14.8609 4.01996 13.6883V12.3067C2.33823 12.2248 1 10.8419 1 9.14789V4.16268C1 2.41594 2.42279 1 4.17787 1H12.2885ZM14.3281 8.26945H11.3399C9.64902 8.26945 8.26655 9.58361 8.16771 11.2418C8.10161 11.2732 8.04058 11.3156 7.98743 11.3676L5.4811 13.8229C5.36116 13.9404 5.1583 13.856 5.1583 13.6883V11.8385C5.1583 11.4736 4.861 11.1777 4.49427 11.1777H4.17787C3.05148 11.1777 2.13834 10.2688 2.13834 9.14789V4.16268C2.13834 3.04158 3.05148 2.1329 4.17787 2.1329H12.2885C13.4149 2.1329 14.3281 3.04158 14.3281 4.16268V8.26945ZM9.3004 18.4184V12.3106L9.31626 11.1777C9.44204 10.1766 10.3001 9.40235 11.3399 9.40235H14.3122H15.4563H21.8221C22.9485 9.40235 23.8617 10.311 23.8617 11.4321V18.4184C23.8617 19.5395 22.9485 20.4481 21.8221 20.4481H20.9684C20.6016 20.4481 20.3043 20.7441 20.3043 21.109V23.6755C20.3043 23.8439 20.1 23.9282 19.9805 23.809L16.7978 20.6417C16.6733 20.5178 16.5044 20.4481 16.3283 20.4481H11.3399C10.2135 20.4481 9.3004 19.5395 9.3004 18.4184Z" fill="#323B52"/>
<path d="M14.2332 14.9724C14.2332 15.4939 13.8085 15.9165 13.2846 15.9165C12.7607 15.9165 12.336 15.4939 12.336 14.9724C12.336 14.451 12.7607 14.0284 13.2846 14.0284C13.8085 14.0284 14.2332 14.451 14.2332 14.9724Z" fill="#323B52"/>
<path d="M16.6996 15.9165C17.2235 15.9165 17.6482 15.4939 17.6482 14.9724C17.6482 14.451 17.2235 14.0284 16.6996 14.0284C16.1757 14.0284 15.751 14.451 15.751 14.9724C15.751 15.4939 16.1757 15.9165 16.6996 15.9165Z" fill="#323B52"/>
<path d="M21.0632 14.9724C21.0632 15.4939 20.6385 15.9165 20.1146 15.9165C19.5907 15.9165 19.166 15.4939 19.166 14.9724C19.166 14.451 19.5907 14.0284 20.1146 14.0284C20.6385 14.0284 21.0632 14.451 21.0632 14.9724Z" fill="#323B52"/>
<path fill-rule="evenodd" clip-rule="evenodd" d="M12.2885 1C14.0436 1 15.4664 2.41594 15.4664 4.16268V8.26945H21.8221C23.5772 8.26945 25 9.68539 25 11.4321V18.4184C25 20.1651 23.5772 21.581 21.8221 21.581H21.4427V23.6755C21.4427 24.8531 20.0122 25.4429 19.1755 24.6102L16.1318 21.581H11.3399C9.58484 21.581 8.16206 20.1651 8.16206 18.4184V12.7863L6.27969 14.6304C5.44009 15.4528 4.01996 14.8609 4.01996 13.6883V12.3067C2.33823 12.2248 1 10.8419 1 9.14789V4.16268C1 2.41594 2.42279 1 4.17787 1H12.2885ZM14.3281 8.26945H11.3399C9.64902 8.26945 8.26655 9.58361 8.16771 11.2418C8.10161 11.2732 8.04058 11.3156 7.98743 11.3676L5.4811 13.8229C5.36116 13.9404 5.1583 13.856 5.1583 13.6883V11.8385C5.1583 11.4736 4.861 11.1777 4.49427 11.1777H4.17787C3.05148 11.1777 2.13834 10.2688 2.13834 9.14789V4.16268C2.13834 3.04158 3.05148 2.1329 4.17787 2.1329H12.2885C13.4149 2.1329 14.3281 3.04158 14.3281 4.16268V8.26945ZM9.3004 18.4184V12.3106L9.31626 11.1777C9.44204 10.1766 10.3001 9.40235 11.3399 9.40235H14.3122H15.4563H21.8221C22.9485 9.40235 23.8617 10.311 23.8617 11.4321V18.4184C23.8617 19.5395 22.9485 20.4481 21.8221 20.4481H20.9684C20.6016 20.4481 20.3043 20.7441 20.3043 21.109V23.6755C20.3043 23.8439 20.1 23.9282 19.9805 23.809L16.7978 20.6417C16.6733 20.5178 16.5044 20.4481 16.3283 20.4481H11.3399C10.2135 20.4481 9.3004 19.5395 9.3004 18.4184Z" stroke="#323B52" stroke-width="0.4"/>
<path d="M14.2332 14.9724C14.2332 15.4939 13.8085 15.9165 13.2846 15.9165C12.7607 15.9165 12.336 15.4939 12.336 14.9724C12.336 14.451 12.7607 14.0284 13.2846 14.0284C13.8085 14.0284 14.2332 14.451 14.2332 14.9724Z" stroke="#323B52" stroke-width="0.4"/>
<path d="M16.6996 15.9165C17.2235 15.9165 17.6482 15.4939 17.6482 14.9724C17.6482 14.451 17.2235 14.0284 16.6996 14.0284C16.1757 14.0284 15.751 14.451 15.751 14.9724C15.751 15.4939 16.1757 15.9165 16.6996 15.9165Z" stroke="#323B52" stroke-width="0.4"/>
<path d="M21.0632 14.9724C21.0632 15.4939 20.6385 15.9165 20.1146 15.9165C19.5907 15.9165 19.166 15.4939 19.166 14.9724C19.166 14.451 19.5907 14.0284 20.1146 14.0284C20.6385 14.0284 21.0632 14.451 21.0632 14.9724Z" stroke="#323B52" stroke-width="0.4"/>
</svg>
