<svg width="15" height="18" viewBox="0 0 15 18" fill="none" xmlns="http://www.w3.org/2000/svg">
<path d="M7.07259 0C5.19682 0 3.39788 0.745146 2.07151 2.07151C0.745146 3.39788 0 5.19682 0 7.07259C0 12.4606 6.42963 17.6429 6.67395 17.8615C6.78747 17.9512 6.92792 18 7.07259 18C7.21727 18 7.35772 17.9512 7.47123 17.8615C7.7477 17.6429 14.1452 12.4606 14.1452 7.07259C14.1452 5.19682 13.4 3.39788 12.0737 2.07151C10.7473 0.745146 8.94836 0 7.07259 0ZM7.07259 10.9304C6.3096 10.9304 5.56373 10.7041 4.92933 10.2802C4.29492 9.85632 3.80046 9.25381 3.50847 8.5489C3.21648 7.84398 3.14009 7.06831 3.28894 6.31998C3.43779 5.57164 3.80521 4.88425 4.34473 4.34473C4.88425 3.80521 5.57164 3.43779 6.31998 3.28894C7.06831 3.14009 7.84398 3.21648 8.5489 3.50847C9.25382 3.80046 9.85632 4.29492 10.2802 4.92932C10.7041 5.56373 10.9304 6.30959 10.9304 7.07259C10.9304 8.09574 10.5239 9.07698 9.80045 9.80045C9.07698 10.5239 8.09574 10.9304 7.07259 10.9304ZM9.64444 7.07259C9.64444 7.58125 9.49361 8.0785 9.21101 8.50143C8.92841 8.92437 8.52674 9.25401 8.0568 9.44867C7.58685 9.64333 7.06974 9.69426 6.57085 9.59503C6.07196 9.49579 5.6137 9.25084 5.25402 8.89116C4.89434 8.53148 4.64939 8.07322 4.55016 7.57433C4.45092 7.07544 4.50185 6.55833 4.69651 6.08839C4.89117 5.61844 5.22081 5.21677 5.64375 4.93418C6.06669 4.65158 6.56393 4.50074 7.07259 4.50074C7.75469 4.50074 8.40885 4.7717 8.89116 5.25402C9.37348 5.73633 9.64444 6.39049 9.64444 7.07259Z" fill="#347B91"/>
</svg>
