<svg width="24" height="24" viewBox="0 0 24 24" fill="none" xmlns="http://www.w3.org/2000/svg">
<mask id="mask0_3759_11989" style="mask-type:alpha" maskUnits="userSpaceOnUse" x="0" y="0" width="24" height="24">
<rect width="24" height="24" fill="#C4C4C4"/>
</mask>
<g mask="url(#mask0_3759_11989)">
<path d="M6.3338 6.71503C6.95611 4.92352 8.6722 3 11.5575 3C14.4805 3 16.1777 4.94238 16.8 6.75275C18.6104 12.0141 12.4249 16.3892 8.0876 12.9005C6.22065 11.4107 5.5229 8.978 6.3338 6.71503Z" fill="#347B91"/>
<path d="M6.22079 19.5194L8.05002 13.6357C9.03064 14.3146 10.2376 14.7106 11.4822 14.7295L11.5576 18.6331L11.5953 20.5755C11.5953 20.8395 11.3502 21.0469 11.0862 20.9904L6.52252 20.0663C6.29623 19.9909 6.14536 19.7457 6.22079 19.5194Z" fill="#347B91"/>
<path d="M12.9901 19.2932C11.9907 15.7478 12.1227 16.4644 12.085 14.7107C13.141 14.6164 14.2159 14.2203 15.0645 13.6357L17.3275 17.4828C17.4595 17.7091 17.3652 17.9919 17.1201 18.0862L13.5559 19.576C13.3296 19.6515 13.0656 19.5194 12.9901 19.2932Z" fill="#347B91"/>
</g>
</svg>
