<svg width="24" height="24" viewBox="0 0 24 24" fill="none" xmlns="http://www.w3.org/2000/svg">
<mask id="mask0_3759_11956" style="mask-type:alpha" maskUnits="userSpaceOnUse" x="0" y="0" width="24" height="24">
<rect width="24" height="24" fill="#C4C4C4"/>
</mask>
<g mask="url(#mask0_3759_11956)">
<path d="M20.9994 9.56075V17.5355C20.9994 18.4193 20.2762 19.1425 19.3923 19.1425H4.60767C3.72381 19.1425 3.00064 18.4193 3.00064 17.5355V9.56075C3.30212 9.89244 3.64345 10.1836 4.015 10.4343C5.68245 11.5695 7.36983 12.7041 9.00707 13.8997C9.85108 14.5226 10.8957 15.2856 11.9904 15.2856H12.0103C13.105 15.2856 14.1496 14.522 14.9936 13.8997C16.6308 12.7144 18.3182 11.5695 19.9953 10.4343C20.3565 10.183 20.6985 9.89179 21 9.56075H20.9994ZM20.9994 6.60767C20.9994 7.73259 20.1656 8.74695 19.2818 9.35955C17.7146 10.444 16.1378 11.529 14.5809 12.6237C13.9278 13.0756 12.8234 14 12.0096 14H11.9897C11.1759 14 10.0716 13.0763 9.41847 12.6237C7.86158 11.529 6.28477 10.444 4.72788 9.35955C4.015 8.87744 3 7.74223 3 6.82816C3 5.84401 3.53225 5 4.60703 5H19.3917C20.2653 5 20.9987 5.72316 20.9987 6.60703L20.9994 6.60767Z" fill="#347B91"/>
</g>
</svg>
