<svg width="24" height="24" viewBox="0 0 24 24" fill="none" xmlns="http://www.w3.org/2000/svg">
<mask id="mask0_3759_11962" style="mask-type:alpha" maskUnits="userSpaceOnUse" x="0" y="0" width="24" height="24">
<rect width="24" height="24" fill="#C4C4C4"/>
</mask>
<g mask="url(#mask0_3759_11962)">
<path fill-rule="evenodd" clip-rule="evenodd" d="M19.1267 19.8567C20.9008 19.7628 21.4627 16.0788 21.2806 15.5655C20.9704 14.6898 17.2806 13.008 16.968 13.3661C16.476 13.9294 14.8948 15.2194 14.5456 15.25C13.2613 15.3619 8.2753 11.2722 8.13384 9.99056C8.09527 9.64247 9.05129 7.83922 9.50736 7.24677C9.79757 6.86992 7.42642 3.58057 6.50689 3.44738C5.96795 3.36938 2.46492 4.64092 2.71998 6.39912C3.59878 12.4585 13.0127 20.1801 19.1267 19.8567L19.1267 19.8567Z" fill="#347B91"/>
</g>
</svg>
