<svg width="24" height="24" viewBox="0 0 24 24" fill="none" xmlns="http://www.w3.org/2000/svg">
<mask id="mask0_1741_22762" style="mask-type:alpha" maskUnits="userSpaceOnUse" x="0" y="0" width="24" height="24">
<rect width="24" height="24" fill="#C4C4C4"/>
</mask>
<g mask="url(#mask0_1741_22762)">
<path d="M22.2472 9.63446L12.5952 3.10517C12.39 2.96494 12.1198 2.96494 11.9146 3.10517L2.26605 9.63446C1.77353 9.96964 2.00953 10.7426 2.60807 10.7426H4.12667C4.46186 10.7426 4.73206 11.0128 4.73206 11.348V20.3946C4.73206 20.7298 5.00226 21 5.33744 21H9.59567C9.93086 21 10.2011 20.7298 10.2011 20.3946V15.4523C10.2011 15.1171 10.4713 14.8469 10.8064 14.8469H13.6966C14.0318 14.8469 14.302 15.1171 14.302 15.4523V20.3946C14.302 20.7298 14.5722 21 14.9073 21H19.1656C19.5008 21 19.771 20.7298 19.771 20.3946V11.348C19.771 11.0128 20.0412 10.7426 20.3764 10.7426H21.8949C22.5038 10.7426 22.7398 9.96964 22.2472 9.63446Z" fill="#4B5064"/>
</g>
</svg>
