<svg width="24" height="24" viewBox="0 0 24 24" fill="none" xmlns="http://www.w3.org/2000/svg">
<mask id="mask0_1741_22777" style="mask-type:alpha" maskUnits="userSpaceOnUse" x="0" y="0" width="24" height="24">
<rect width="24" height="24" fill="#C4C4C4"/>
</mask>
<g mask="url(#mask0_1741_22777)">
<path d="M10.7982 5.79333C10.6232 5.60666 10.6232 5.31111 10.7982 5.14C10.8857 5.04667 10.9878 5 11.1045 5C11.2212 5 11.3232 5.04667 11.4107 5.14L17.5357 11.6733C17.7107 11.86 17.7107 12.1556 17.5357 12.3267L11.4107 18.86C11.2357 19.0467 10.9587 19.0467 10.7982 18.86C10.6232 18.6733 10.6232 18.3778 10.7982 18.2067L16.617 12L10.7982 5.79333ZM11.9503 12L6.13157 18.2067C5.95657 18.3933 5.95657 18.6889 6.13157 18.86C6.30657 19.0467 6.58366 19.0467 6.74407 18.86L12.8691 12.3267C13.0441 12.14 13.0441 11.8444 12.8691 11.6733L6.74407 5.14C6.65657 5.04667 6.53991 5 6.43782 5C6.33574 5 6.21907 5.04667 6.13157 5.14C5.95657 5.32667 5.95657 5.62222 6.13157 5.79333L11.9503 12Z" fill="#4B5064"/>
</g>
</svg>
