<svg width="22" height="30" viewBox="0 0 22 30" fill="none" xmlns="http://www.w3.org/2000/svg">
<path d="M19.8849 5.08694C18.0544 1.97574 14.8032 0.0749893 11.1877 0.00234976C11.0334 -0.000783254 10.878 -0.000783254 10.7236 0.00234976C7.10819 0.0749893 3.85695 1.97574 2.02644 5.08694C0.155403 8.26707 0.104212 12.087 1.88948 15.3054L9.36861 28.7882C9.37197 28.7942 9.37533 28.8002 9.3788 28.8061C9.70786 29.3694 10.2974 29.7057 10.9558 29.7057C11.6141 29.7057 12.2036 29.3693 12.5326 28.8061C12.5361 28.8002 12.5395 28.7942 12.5428 28.7882L20.0219 15.3054C21.8071 12.087 21.7559 8.26707 19.8849 5.08694ZM10.9557 13.4604C8.61695 13.4604 6.71428 11.5864 6.71428 9.28304C6.71428 6.97963 8.61695 5.10568 10.9557 5.10568C13.2944 5.10568 15.197 6.97963 15.197 9.28304C15.197 11.5864 13.2944 13.4604 10.9557 13.4604Z" fill="#F26060"/>
</svg>
