<svg width="34" height="34" viewBox="0 0 34 34" fill="none" xmlns="http://www.w3.org/2000/svg">
<mask id="mask0_3450_36250" style="mask-type:alpha" maskUnits="userSpaceOnUse" x="0" y="0" width="34" height="34">
<rect width="34" height="34" fill="#C4C4C4"/>
</mask>
<g mask="url(#mask0_3450_36250)">
<path d="M16.7308 2.00806C11.3875 2.2463 6.86111 6.33031 6.11237 11.6055C5.8401 13.5114 6.07834 15.3151 6.6569 16.9487C7.54177 19.4672 9.31151 21.5432 11.5577 22.8705L16.8669 31.8213C17.0031 32.0596 17.3774 32.0596 17.5136 31.8213L22.6866 22.9386C26.09 21.0327 28.3702 17.3912 28.3702 13.2051C28.4042 6.84081 23.1291 1.76983 16.7308 2.00806ZM17.922 22.0537C12.3745 22.4962 7.81404 17.9017 8.22244 12.3542C8.56278 7.99794 12.1022 4.45847 16.4585 4.11813C22.006 3.6757 26.5664 8.27021 26.158 13.8177C25.8177 18.1739 22.2782 21.7134 17.922 22.0537Z" fill="#323B52"/>
<path d="M17.1736 12.4219C19.0908 12.4219 20.645 10.7458 20.645 8.67825C20.645 6.61067 19.0908 4.93457 17.1736 4.93457C15.2564 4.93457 13.7021 6.61067 13.7021 8.67825C13.7021 10.7458 15.2564 12.4219 17.1736 12.4219Z" fill="#323B52"/>
<path d="M17.1732 13.001C14.1102 13.001 11.5237 15.1451 10.6729 18.072C12.2044 19.9778 14.5527 21.203 17.1732 21.203C19.7938 21.203 22.1761 19.9778 23.6736 18.072C22.8228 15.1451 20.2362 13.001 17.1732 13.001Z" fill="#323B52"/>
</g>
</svg>
