<svg width="24" height="24" viewBox="0 0 24 24" fill="none" xmlns="http://www.w3.org/2000/svg">
<mask id="mask0" mask-type="alpha" maskUnits="userSpaceOnUse" x="0" y="0" width="24" height="24">
<rect width="24" height="24" fill="#C4C4C4"/>
</mask>
<g mask="url(#mask0)">
<path d="M12.6842 9.33333C12.6842 6.38596 15.0702 4 18.0175 4C20.9649 4 23.3509 6.21053 23.3509 10.3158C23.3509 16 19.1053 19.9298 14.5088 20C13.7368 20 13.3158 19.5439 13.3158 18.7719V18.7368C13.3158 17.9649 13.5263 17.614 13.9123 17.5088C15.1404 17.2982 17.6316 16.6316 18.4386 14.6667C14.6491 14.6667 12.6842 12.2456 12.6842 9.33333ZM6.75439 14.6667C5.94737 16.6316 3.45614 17.2982 2.22807 17.5088C1.84211 17.614 1.63158 17.9649 1.63158 18.7368V18.7719C1.63158 19.5439 2.05263 20 2.82456 20C7.42105 19.9298 11.6667 16 11.6667 10.3158C11.6667 6.21053 9.2807 4 6.33333 4C3.38597 4 1 6.38596 1 9.33333C1 12.2807 2.92983 14.6667 6.75439 14.6667Z" fill="url(#paint0_linear)"/>
</g>
<defs>
<linearGradient id="paint0_linear" x1="31.415" y1="25.5273" x2="0.681706" y2="24.4778" gradientUnits="userSpaceOnUse">
<stop offset="0.169544" stop-color="#FBF8D1"/>
<stop offset="1" stop-color="#FFD895"/>
</linearGradient>
</defs>
</svg>
