<svg width="56" height="56" viewBox="0 0 56 56" fill="none" xmlns="http://www.w3.org/2000/svg">
<circle opacity="0.9" cx="28" cy="28" r="28" fill="url(#paint0_linear)"/>
<path d="M41.4069 17.1924C32.2082 16.2461 29.5584 10.9464 29.4448 10.7192C29.2177 10.265 28.8013 10 28.3091 10C27.817 10 27.3628 10.3028 27.1735 10.7192C27.0221 10.9464 24.3344 16.2461 15.1356 17.1924C14.4921 17.2681 14 17.7981 14 18.4795V27.7539C14 38.6562 27.1356 45.5457 27.7035 45.8486C27.8927 45.9243 28.082 46 28.2713 46C28.4606 46 28.6877 45.9621 28.8391 45.8486C29.4069 45.5457 42.5426 38.694 42.5426 27.7539V18.4416C42.5804 17.7981 42.0505 17.2681 41.4069 17.1924ZM40.0063 27.7539C40.0063 35.8927 30.7319 41.7981 28.2713 43.2366C25.8107 41.7981 16.5363 35.9306 16.5363 27.7539V19.5773C23.1609 18.6309 26.6435 15.5268 28.2713 13.5584C29.8991 15.5268 33.3817 18.6309 40.0063 19.5773V27.7539Z" fill="white"/>
<path d="M23.3506 23.7795C23.3506 26.0508 24.9026 27.9436 26.9847 28.5114V37.6344C26.9847 38.3537 27.5525 38.9215 28.2717 38.9215C28.991 38.9215 29.5588 38.3537 29.5588 37.6344V36.1959H31.1487C31.8679 36.1959 32.4358 35.6281 32.4358 34.9089C32.4358 34.1896 31.8679 33.6218 31.1487 33.6218H29.5588V28.5114C31.6408 27.9436 33.1929 26.0508 33.1929 23.7795C33.1929 21.054 30.9973 18.8584 28.2717 18.8584C25.5462 18.8963 23.3506 21.0918 23.3506 23.7795ZM30.6187 23.7795C30.6187 25.0666 29.5588 26.1265 28.2717 26.1265C26.9847 26.1265 25.9247 25.0666 25.9247 23.7795C25.9247 22.4925 26.9847 21.4325 28.2717 21.4325C29.5588 21.4325 30.6187 22.4925 30.6187 23.7795Z" fill="white"/>
<defs>
<linearGradient id="paint0_linear" x1="79.4659" y1="117.25" x2="-46.4547" y2="110.937" gradientUnits="userSpaceOnUse">
<stop stop-color="#E6D197"/>
<stop stop-color="#FAF5BD"/>
<stop offset="0.129569" stop-color="#E8D696"/>
<stop offset="0.28783" stop-color="#CDB575"/>
<stop offset="0.440477" stop-color="#D0B26B"/>
<stop offset="0.607885" stop-color="#D0AB5E"/>
<stop offset="0.963917" stop-color="#C1913D"/>
</linearGradient>
</defs>
</svg>
