<svg width="32" height="32" viewBox="0 0 32 32" fill="none" xmlns="http://www.w3.org/2000/svg">
<circle cx="16" cy="16" r="15" stroke="#DFDFDF" stroke-width="2"/>
<path fill-rule="evenodd" clip-rule="evenodd" d="M15.8585 8.6875C14.8929 8.6875 14.1243 9.49122 14.1736 10.4494L14.5894 18.5179C14.6278 19.264 15.248 19.8494 16 19.8494C16.752 19.8494 17.3721 19.264 17.4105 18.5179L17.8263 10.4494C17.8756 9.49122 17.107 8.6875 16.1414 8.6875H16H15.8585ZM16.0118 23.3161C16.7741 23.3161 17.3921 22.7021 17.3921 21.9446C17.3921 21.1872 16.7741 20.5732 16.0118 20.5732C15.2495 20.5732 14.6315 21.1872 14.6315 21.9446C14.6315 22.7021 15.2495 23.3161 16.0118 23.3161Z" fill="#DFDFDF"/>
</svg>
